<svg width="394" height="177" viewBox="0 0 394 177" fill="none" xmlns="http://www.w3.org/2000/svg">
<path d="M338.018 92.3867H10.4555C8.05327 92.3867 5.7211 92.5285 3.42773 92.746C11.9559 102.363 17.3513 116.812 17.3513 132.972C17.3513 149.123 11.9559 163.563 3.42773 173.198C5.7211 173.406 8.06104 173.548 10.4555 173.548H338.018C360.905 173.548 382.035 163.061 382.035 150.125V115.8C382.035 102.873 360.905 92.3867 338.018 92.3867Z" fill="white"/>
<path d="M339.309 88.9258H11.7466C7.82066 88.9258 4.00336 89.2475 0.357294 89.7771C2.23086 91.7439 3.97224 93.8904 5.58148 96.1598C7.59498 95.9612 9.64758 95.8479 11.7466 95.8479H339.309C360.004 95.8479 378.164 105.172 378.164 115.81V150.135C378.164 160.773 360.004 170.087 339.309 170.087H11.7466C9.54651 170.087 7.40083 169.965 5.30959 169.766C3.66926 172.026 1.90466 174.144 0 176.102C3.7549 176.679 7.68072 177 11.7466 177H339.309C365.99 177 388.519 164.698 388.519 150.135V115.81C388.519 101.228 365.99 88.9258 339.309 88.9258Z" fill="#9D9FAE"/>
<path opacity="0.6" d="M201.949 122.174H230.434L227.059 151.053L201.949 122.174Z" fill="#CECFD1"/>
<path d="M201.949 122.174H230.434V143.762L201.949 122.174Z" fill="#CDCBC4"/>
<path opacity="0.6" d="M6.17188 96.1502L40.6733 103.346C40.6733 103.346 345.878 101.512 357.057 114.013C365.119 123.034 367.35 142.996 362.328 157.87C360.407 163.582 350.332 165.321 347.829 169.633C347.829 169.633 366.697 167.165 375.38 158.967C381.203 153.482 378.544 146.003 378.645 135.109C378.7 126.05 380.892 117.568 377.052 110.533C373.211 103.488 362.88 97.4931 343.538 95.9233L6.17188 96.1502Z" fill="#CECFD1"/>
<path d="M346.578 3.4707H38.9718C36.7173 3.4707 34.525 3.61249 32.3716 3.82998C40.3712 13.4468 45.4477 27.8957 45.4477 44.0562C45.4477 60.2072 40.3789 74.6466 32.3716 84.2823C34.5172 84.4904 36.7173 84.6324 38.9718 84.6324H346.578C368.074 84.6324 387.913 74.1454 387.913 61.2095V26.8841C387.913 13.9576 368.066 3.4707 346.578 3.4707Z" fill="white"/>
<path d="M347.791 0H40.1844C36.4917 0 32.9075 0.321472 29.4869 0.851013C31.2516 2.81788 32.8845 4.96459 34.3927 7.23405C36.2818 7.03547 38.2175 6.92181 40.1844 6.92181H347.791C367.226 6.92181 384.275 16.2457 384.275 26.8838V61.2092C384.275 71.8473 367.226 81.1617 347.791 81.1617H40.1844C38.1087 81.1617 36.1106 81.0388 34.136 80.8402C32.6045 83.1002 30.9409 85.2182 29.1528 87.1756C32.6823 87.7525 36.3673 88.074 40.1844 88.074H347.791C372.847 88.074 394 75.7716 394 61.2092V26.8838C394 12.312 372.847 0 347.791 0Z" fill="#C1A24C"/>
<path opacity="0.6" d="M218.794 33.2568H245.545L242.365 62.1359L218.794 33.2568Z" fill="#CECFD1"/>
<path d="M218.794 33.2568H245.545V54.8358L218.794 33.2568Z" fill="#CDCBC4"/>
<path opacity="0.6" d="M34.9443 7.23395L67.339 14.4299C67.339 14.4299 353.948 12.5953 364.45 25.0963C372.03 34.1174 374.121 54.0792 369.402 68.9536C367.599 74.6651 358.138 76.4052 355.782 80.7172C355.782 80.7172 373.499 78.2492 381.654 70.0508C387.119 64.5663 384.632 57.0864 384.725 46.193C384.78 37.1341 386.832 28.652 383.232 21.6166C379.625 14.5718 369.923 8.57655 351.763 7.00684L34.9443 7.23395Z" fill="#CECFD1"/>
</svg>
