<svg width="390" height="689" viewBox="0 0 390 689" fill="none" xmlns="http://www.w3.org/2000/svg">
<path opacity="0.5" d="M137.236 689C175.429 689 206.391 685.204 206.391 680.521C206.391 675.838 175.429 672.042 137.236 672.042C99.0427 672.042 68.0811 675.838 68.0811 680.521C68.0811 685.204 99.0427 689 137.236 689Z" fill="#CECECE"/>
<path d="M94.1587 378.037C94.1587 378.037 58.5364 375.389 82.839 340.349C84.6477 337.736 101.56 343.345 106.84 354.356C112.497 366.148 102.901 375.252 94.1587 378.037Z" fill="#989C31"/>
<path d="M95.6695 529.077L93.8608 528.954C98.5452 459.113 132.145 337.767 170.095 279.91C185.78 255.99 225.908 213.683 318.352 199.117C346.882 194.621 382.071 178.343 382.423 178.179L383.185 179.839C382.829 180.003 347.41 196.387 318.633 200.924C226.876 215.381 187.128 257.25 171.605 280.918C133.805 338.542 100.34 459.462 95.6695 529.077Z" fill="#ACB252"/>
<path d="M124.051 516.793L122.245 516.649C122.269 516.335 124.555 485.193 116.88 466.738C113.463 458.516 108.158 438.92 102.014 416.233C94.1932 387.336 85.3291 354.581 78.8496 340.482C71.0084 323.419 61.9513 270.413 52.3657 214.295C47.9489 188.455 43.3864 161.733 38.929 138.677C25.157 67.4187 43.5897 0.666159 43.7794 0L45.5203 0.498778C45.334 1.1581 27.0233 67.511 40.7106 138.325C45.1681 161.402 49.7373 188.134 54.1541 213.981C63.7193 269.976 72.7561 322.865 80.4957 339.71C87.0362 353.946 95.924 386.779 103.765 415.748C109.635 437.431 115.18 457.914 118.553 466.028C126.395 484.899 124.149 515.498 124.051 516.793Z" fill="#ACB252"/>
<path d="M335.741 196.722C335.741 196.722 347.464 185.599 350.451 176.262C353.811 165.764 352.297 152.028 352.297 152.028C352.297 152.028 337.201 166.386 335.419 175.579C333.638 184.769 333.045 191.519 335.741 196.722Z" fill="#AEB134"/>
<path d="M360.396 187.717C360.396 187.717 363.733 171.958 372.489 166.782C381.248 161.607 390 158.563 390 158.563C390 158.563 386.074 173.14 377.623 175.289C370.128 177.188 365.477 186.005 360.396 187.717Z" fill="#AEB134"/>
<path d="M336.481 195.974C336.481 195.974 343.096 201.197 339.427 207.244C334.337 215.641 334.228 223.956 336.721 230.986C339.214 238.017 340.965 238.386 340.965 238.386C340.965 238.386 350.916 225.619 348.962 213.598C347.008 201.569 342.652 198.912 336.481 195.974Z" fill="#AEB134"/>
<path d="M188.023 257.991C188.023 257.991 196.359 256.932 198.036 263.82C200.363 273.378 206.141 279.312 212.844 282.475C219.547 285.642 221.041 284.648 221.041 284.648C221.041 284.648 219.063 268.53 209.22 261.466C199.377 254.398 194.439 255.645 188.023 257.991Z" fill="#AEB134"/>
<path d="M220.119 234.119C220.119 234.119 217.45 209.673 220.119 199.363C222.785 189.053 233.952 195.752 233.952 207.934C233.952 220.116 225.678 230.59 220.119 234.119Z" fill="#989C31"/>
<path d="M221.576 234.139C221.576 234.139 226.443 251.497 223.69 262.156C222.358 267.301 233.952 259.416 233.952 246.322C233.952 236.575 222.785 233.835 221.576 234.139C220.367 234.444 221.576 234.139 221.576 234.139Z" fill="#989C31"/>
<path d="M250.563 217.612C250.563 217.612 244.523 194.836 255.694 183.877C266.865 172.918 273.808 186.617 275.922 196.363C278.036 206.106 265.96 214.568 250.563 217.612Z" fill="#8F922E"/>
<path d="M250.562 219.59C250.562 219.59 254.79 233.207 256.297 244.477C257.808 255.744 264.148 261.835 264.148 261.835C264.148 261.835 265.957 250.264 261.127 239.301C256.297 228.342 265.862 216.133 267.935 213.072C267.935 213.068 250.562 217.612 250.562 219.59Z" fill="#AEB134"/>
<path d="M148.126 320.955C149.047 320.716 149.013 307.369 140.484 299.16C134.059 292.977 123.901 298.193 120.094 300.533C116.287 302.873 117.015 312.473 126.133 317.857C135.251 323.241 140.271 322.985 148.126 320.955Z" fill="#8F922E"/>
<path d="M148.522 325.691C148.522 325.691 160.598 346.577 171.772 341.193C181.713 336.4 182.346 330.412 182.346 330.412C182.346 330.412 182.255 313.83 169.885 312.47C157.515 311.114 150.27 316.603 150.27 316.603L148.522 325.691Z" fill="#8F922E"/>
<path d="M34.6853 76.3795C34.6853 76.3795 14.1492 57.8022 3.88282 58.1062C-6.38353 58.4137 10.2337 82.1631 34.6853 76.3795Z" fill="#8F922E"/>
<path d="M34.6846 77.7457C34.6846 77.7457 59.5731 79.447 66.6894 60.9995C70.9165 50.0335 38.0073 68.3033 34.6846 77.7457Z" fill="#8F922E"/>
<path d="M297.558 204.302C297.558 204.302 313.735 181.762 312.36 171.496C310.988 161.234 289.304 180.382 297.558 204.302Z" fill="#8F922E"/>
<path d="M296.211 204.446C296.211 204.446 297.132 229.586 316.066 234.803C327.318 237.898 305.868 206.793 296.211 204.446Z" fill="#8F922E"/>
<path d="M37.4619 38.7738C37.4619 38.7738 59.529 38.0051 69.1755 23.6947C75.7431 13.9483 75.7431 13.9482 75.7431 13.9482C75.7431 13.9482 47.1829 22.4887 37.4619 38.7738Z" fill="#8F922E"/>
<path d="M37.462 38.7741C37.462 38.7741 6.45975 25.2186 0.793104 10.3001C-4.87354 -4.6253 21.3936 0.550252 29.8478 4.20559C38.302 7.86092 51.2849 21.8707 37.462 38.7741Z" fill="#AEB134"/>
<path d="M37.6688 125.716C37.6688 125.716 46.7564 135.76 60.9485 122.365C75.1371 108.963 75.9703 95.8687 75.9703 95.8687C75.9703 95.8687 59.2481 100.901 52.9819 105.919C44.6429 112.601 36.9744 121.371 37.6688 125.716Z" fill="#B9BD38"/>
<path d="M36.7915 129.334C36.7915 129.334 9.84361 133.833 2.37163 94.6528C1.50114 90.0785 21.9966 97.6966 28.6387 102.568C35.2809 107.44 38.6036 121.077 36.7915 129.334Z" fill="#8F922E"/>
<path d="M46.74 179.142C46.74 179.142 65.464 171.999 77.5391 177.861C89.6142 183.723 88.7098 187.59 92.0326 185.503C95.352 183.419 88.8216 161.47 68.8952 160.275C48.9688 159.079 45.4834 171.9 45.4834 171.9L46.74 179.142Z" fill="#8F922E"/>
<path d="M46.7697 179.826C46.7697 179.826 11.9061 160.022 2.08684 147.18C-6.06595 136.522 26.8467 155.403 31.9816 160.275C36.1816 164.255 44.9305 171.312 46.7697 179.826Z" fill="#8F922E"/>
<path d="M191.172 256.147C191.172 256.147 194.702 244.781 189.266 230.771C183.833 216.762 175.378 207.019 175.378 207.019C175.378 207.019 173.265 228.691 176.886 237.495C180.513 246.301 184.625 254.118 191.172 256.147Z" fill="#8F922E"/>
<path d="M86.7687 287.473C86.7687 287.473 67.933 297.223 60.6574 283.524C53.3785 269.825 60.2544 253.383 60.2544 253.383C60.2544 253.383 84.1064 250.903 90.7858 262.135C97.4584 273.364 95.4838 280.187 86.7687 287.473Z" fill="#989C31"/>
<path d="M54.1609 228.732C54.1609 228.732 41.7877 213.441 32.9948 217.875C24.2018 222.309 31.4333 225.729 34.1871 227.382C36.9408 229.036 57.3109 236.094 57.3109 236.094L54.1609 228.732Z" fill="#8F922E"/>
<path d="M57.3984 237.491C57.3984 237.491 66.6588 248.761 80.546 244.805C94.4365 240.846 82.6629 232.664 80.546 229.75C78.4324 226.836 63.5257 221.137 58.8075 226.535C54.0926 231.926 57.3984 237.491 57.3984 237.491Z" fill="#989C31"/>
<path d="M51.2544 202.471L58.6146 207.039C58.6146 207.039 67.9461 218.705 88.6312 206.861C99.8019 200.466 81.8163 192.141 77.3623 192.383C77.3623 192.383 63.5936 189.128 60.3894 195.219C57.1852 201.31 55.0683 201.556 51.2544 202.471Z" fill="#989C31"/>
<path d="M170.471 280.907C170.471 280.907 174.837 274.922 167.23 264.574C159.625 254.227 139.181 250.964 132.945 260.523C126.713 270.085 146.467 295.628 159.981 292.936C167.169 291.504 168.368 284.774 170.471 280.907Z" fill="#989C31"/>
<path d="M169.343 282.848C169.343 282.848 162.247 288.737 167.981 296.236C172.686 302.378 189.117 313.115 198.475 312.196C207.837 311.274 194.248 293.609 185.492 287.825C176.737 282.038 178.532 278.495 169.343 282.848Z" fill="#8F922E"/>
<path d="M60.5013 254.042C60.5013 254.042 53.5509 263.471 43.5556 267.065C39.3386 268.582 44.2567 250.015 52.3011 249.82C60.3455 249.629 60.5013 254.042 60.5013 254.042Z" fill="#8F9949"/>
<path d="M131.76 364.779C131.76 364.779 137.938 350.26 150.318 354.011C162.701 357.762 171.142 359.617 173.265 365.985C174.766 370.487 156.96 390.345 146.694 387.302C136.431 384.251 130.11 382.454 131.76 364.779Z" fill="#989C31"/>
<path d="M133.057 361.123C133.057 361.123 138.239 338.881 122.238 334.31C106.234 329.742 107.745 338.877 111.671 351.971C115.596 365.069 123.498 370.504 133.057 361.123Z" fill="#989C31"/>
<path d="M73.2433 321.454C73.2433 321.454 72.8775 314.478 70.8317 314.519C64.0337 314.656 46.0887 313.279 42.0445 321.044C38.0003 328.813 52.7918 340.134 73.2433 321.454Z" fill="#AEB134"/>
<path d="M76.0552 327.166C76.0552 327.166 90.5419 335.59 96.1814 323.5C102.82 309.268 100.713 307.424 97.5667 304.376C94.9722 301.865 85.1462 301.237 76.0518 304.376C68.0887 307.13 67.4993 318.625 76.0552 327.166Z" fill="#989C31"/>
<path d="M87.7873 378.037C87.7873 378.037 79.0012 379.485 74.3506 386.338C69.7035 393.191 84.6644 391.562 89.8636 380.336C92.3701 374.921 87.7873 378.037 87.7873 378.037Z" fill="#BDC038"/>
<path d="M48.6934 201.238C48.6934 201.238 40.7269 197.231 32.9805 200.046C25.2342 202.861 38.3153 210.366 49.0423 204.326C54.2178 201.416 48.6934 201.238 48.6934 201.238Z" fill="#B9BD38"/>
<path d="M92.4789 614.284L95.6696 615.521V529.074L93.8608 528.951C93.8608 528.954 90.5855 606.003 92.4789 614.284Z" fill="#ACB252"/>
<path d="M120.877 601.487L124.067 602.723V516.276L122.259 516.153C122.259 516.157 118.983 593.206 120.877 601.487Z" fill="#ACB252"/>
<path opacity="0.4" d="M164.74 520.024C164.266 491.362 146.744 477.988 141.531 462.225C132.481 434.834 144.539 406.183 144.847 405.383H80.4582C80.7664 406.179 92.8245 434.834 83.7742 462.225C78.5648 477.988 61.0398 491.362 60.5656 520.024C60.0914 548.683 60.5115 668.725 60.5115 668.725C60.5115 668.725 60.3421 688.716 81.8774 688.159C97.5225 687.753 127.824 689.434 143.425 688.159C164.96 686.397 164.791 668.725 164.791 668.725C164.791 668.725 165.211 548.683 164.74 520.024Z" fill="#F2FFFF"/>
<path opacity="0.4" d="M60.3423 580.351C60.3491 622.407 60.5117 668.98 60.5117 668.98C60.5117 668.98 60.3423 688.972 81.8776 688.412C97.5227 688.005 127.824 689.686 143.425 688.412C164.96 686.656 164.791 668.98 164.791 668.98C164.791 668.98 164.953 622.407 164.964 580.351H60.3423Z" fill="#43749F"/>
<path d="M94.6499 405.387H99.0701C99.0701 405.387 99.2699 445.083 99.0735 455.615L95.3544 457.607C95.3544 457.607 94.6499 415.635 94.6499 405.387Z" fill="#F2FFFF"/>
<path d="M88.0859 480.024C88.0859 480.024 74.9608 493.262 74.3274 512.478C73.694 531.694 74.3274 578.667 74.3274 578.667H77.2911C77.2911 578.667 76.7153 524.199 77.7145 511.409C79.1202 493.422 89.7727 482.159 91.8896 480.021H88.0859V480.024Z" fill="#F2FFFF"/>
<path opacity="0.6" d="M77.7107 584.86H74.0425V668.773H77.7107V584.86Z" fill="white"/>
</svg>
