<svg width="141" height="257" viewBox="0 0 141 257" fill="none" xmlns="http://www.w3.org/2000/svg">
<path d="M104.762 143.758L90.2664 141.552L86.972 155.156L128.273 156.41C130.539 156.479 131.58 153.617 129.799 152.215L119.903 147.967C117.939 147.123 115.906 146.448 113.828 145.946L104.762 143.758Z" fill="#CC800E"/>
<path d="M71.1589 200.747V189.717H77.7477V200.747H71.1589Z" fill="#1F1E1E"/>
<path d="M81.3715 190.452H76.1005V186.775H77.0888L63.5818 168.76H129.14L132.764 167.289L131.776 170.966L129.14 172.436H105.421L81.3715 186.775L82.3598 188.981L81.3715 190.452Z" fill="#1F1E1E"/>
<path d="M17.1308 170.966L15.4836 168.76H63.9112L77.4182 186.408L76.4299 187.511V188.614V190.452H68.8528L68.1939 189.717V188.614L69.5117 187.511V186.408L44.4743 172.436H19.1075L17.1308 170.966Z" fill="#3E3D3D"/>
<path d="M114.88 109.565H83.0187L84.8737 114.65H113.317L118.264 117.362L119.809 156.345L123.21 157.362V120.752L122.833 117.65C122.673 116.337 122.291 115.062 121.702 113.878L121.196 112.86C120.893 112.251 120.479 111.702 119.976 111.243C119.259 110.588 118.382 110.134 117.434 109.925L116.679 109.76C116.088 109.63 115.485 109.565 114.88 109.565Z" fill="#1F1E1E"/>
<path d="M112.893 120.69H88.4665L82.3598 114.712H113.809C116.676 114.712 119 117.036 119 119.903V122.018L119.916 155.891L113.809 152.902L112.893 120.69Z" fill="#3E3D3D"/>
<g filter="url(#filter0_ii_702:58)">
<path d="M11.5304 6.89245V20.1164C11.5304 20.6666 11.6794 21.2065 11.9615 21.6788C12.5114 22.5994 13.5048 23.1631 14.5771 23.1631H50.3514C52.382 23.1631 54.0281 21.517 54.0281 19.4864V7.25562C54.0281 6.11162 53.7562 4.98399 53.2348 3.9657C52.8873 3.28708 52.4317 2.66494 51.8904 2.12801C50.5212 0.769653 48.6631 0 46.7344 0H17.0784C16.0403 0 15.0271 0.318445 14.1757 0.912366C13.3121 1.51473 12.6573 2.37083 12.3021 3.36199L11.9951 4.21837C11.6876 5.07637 11.5304 5.98099 11.5304 6.89245Z" fill="#EB9412"/>
</g>
<g filter="url(#filter1_i_702:58)">
<path d="M8.56545 156.857V146.332L0.329468 42.6495V33.1309C0.329468 31.202 0.994663 29.3321 2.21287 27.8366C3.1374 26.7016 4.34302 25.8285 5.70977 25.3042L9.84318 23.7184C12.7007 22.6222 15.7353 22.0601 18.7958 22.0601H43.1566H54.3361C56.9635 22.0601 59.5686 22.5426 62.0217 23.4837L63.3405 23.9897C66.9144 25.3607 69.9331 27.8775 71.9249 31.1463C73.5785 33.8604 74.4533 36.9773 74.4533 40.1555V40.8806C74.4533 42.0575 74.5577 43.2321 74.7653 44.3906L77.4183 59.1945L81.3715 83.4606L84.3365 96.329L87.6309 106.991L90.2234 119.288C90.252 119.424 90.2664 119.562 90.2664 119.701V137.717C90.2664 141.963 89.5963 146.182 88.2808 150.22C87.9601 151.204 88.6937 152.215 89.7289 152.215H90.2664H120.245H129.512C131.208 152.215 132.87 152.684 134.315 153.571L135.419 154.249C137.454 155.498 138.694 157.714 138.694 160.101C138.694 161.433 138.307 162.735 137.58 163.851L137.407 164.117C136.529 165.465 135.262 166.513 133.775 167.125L132.23 167.76C130.625 168.42 128.906 168.76 127.17 168.76H18.5057C17.1657 168.76 15.8416 168.47 14.624 167.91C12.2349 166.812 10.4225 164.754 9.63573 162.245L9.15656 160.717C8.76477 159.468 8.56545 158.167 8.56545 156.857Z" fill="#EFA310"/>
</g>
<g filter="url(#filter2_i_702:58)">
<path d="M4.28271 97.432L8.09226 146.326C8.17338 147.367 9.0419 148.17 10.0862 148.17H65.3074C68.4256 148.17 71.2113 146.222 72.2806 143.292C73.5 139.952 74.1238 136.424 74.1238 132.868V126.11V103.682L70.5 70.5922L67.0628 51.6676C66.0919 46.3222 63.2435 41.4995 59.0309 38.0687C55.2875 35.0201 51.0217 32.6764 46.441 31.1517L42.5884 29.8693C37.2914 28.1062 31.7451 27.2074 26.1624 27.2074C19.9715 27.2074 13.8303 28.3127 8.02783 30.4713L6.53447 31.0268C2.6059 32.4883 0 36.2381 0 40.4298V58.8269L4.28271 97.432Z" fill="#EB9412"/>
</g>
<path d="M50.966 23.1631H14.9462C13.2854 23.1631 11.7963 22.1398 11.2009 20.5894H39.7962C41.7569 20.5894 43.658 19.915 45.1804 18.6793L45.3429 18.5474C46.0749 17.9532 46.6875 17.2256 47.1482 16.403C47.771 15.2908 48.0981 14.0373 48.0981 12.7626V0C49.1826 0.242073 50.1996 0.722599 51.0753 1.40669L51.9509 2.09072C52.6681 2.65106 53.2546 3.36105 53.6694 4.17121C54.1216 5.05443 54.3575 6.03248 54.3575 7.02473V19.7717C54.3575 20.3091 54.2297 20.8389 53.9848 21.3173C53.4047 22.4503 52.2389 23.1631 50.966 23.1631Z" fill="#EFA310"/>
<ellipse cx="18.4486" cy="250.75" rx="5.92991" ry="6.25036" fill="#232222"/>
<ellipse cx="18.1192" cy="251.117" rx="2.30608" ry="2.20601" fill="#171717"/>
<ellipse cx="131.776" cy="249.279" rx="5.92991" ry="6.25036" fill="#232222"/>
<ellipse cx="131.446" cy="249.647" rx="2.30608" ry="2.20601" fill="#171717"/>
<ellipse cx="68.5234" cy="250.014" rx="5.92991" ry="6.25037" fill="#232222"/>
<ellipse cx="68.1939" cy="250.382" rx="2.30608" ry="2.20601" fill="#171717"/>
<path d="M26.6846 240.328L71.8177 230.986V225.38L26.6846 235.097L19.4369 239.207L22.4018 241.076L22.7313 243.692H18.4486L16.4719 244.813L14.4953 246.681V248.176H21.4135L21.743 249.279H26.3551L26.6846 246.681V240.328Z" fill="#3E3D3D"/>
<path d="M14.1659 248.176H10.5421L11.8598 245.602L14.1659 243.764L16.472 242.293H19.7664L22.0724 243.764L14.1659 248.176Z" fill="#C4C4C4"/>
<path d="M79.0654 198.173H74.4532H72.1472L72.8061 230.569L71.8177 242.661L69.8411 242.807L66.8761 244.247L64.5701 245.327L63.9112 247.847H72.1472L73.4649 249.647H77.0888L78.0771 247.847V230.569L86.9719 232.009L101.797 235.248L114.974 238.128L124.199 239.928V245.327H123.21L124.199 248.176H127.822L128.152 247.073L136.388 246.767L135.07 243.527L131.446 242.088L127.822 241.926V239.928H129.14L131.446 239.208L129.799 238.128L121.892 235.248L109.374 232.009L97.1846 229.489L79.0654 225.53V198.173Z" fill="#3E3D3D"/>
<path d="M136.388 247.073L141 247.441L140.012 245.602L137.706 243.764L135.4 242.293L131.446 241.926H128.481L136.388 247.073Z" fill="#C4C4C4"/>
<g filter="url(#filter3_i_702:58)">
<path d="M74.4533 226.363V198.173H69.8411V221.912L64.5701 223.025L52.3808 226.363L38.8738 230.443L28.0023 233.782L22.0724 236.749L18.4486 240.087L22.0724 238.974L26.6846 236.749L39.5327 233.782L50.4042 231.185L60.2874 229.331L67.5351 228.218H70.8294V231.185L72.8061 232.669V228.218L74.4533 226.363Z" fill="#C4C4C4"/>
</g>
<path d="M64.5701 247.808L61.2757 248.176L62.5935 245.602L64.8995 243.764L67.2056 242.293H70.5L71.8178 242.661L64.5701 247.808Z" fill="#C4C4C4"/>
<rect x="24.3785" y="187.878" width="15.8131" height="2.94135" rx="1.47067" fill="#413E3E"/>
<path d="M38.5444 188.981C39.6425 189.349 43.2224 189.349 48.757 186.408C54.2916 183.466 56.7733 185.06 58.6402 183.834L64.5701 179.422" stroke="#413E3E" stroke-width="1.6"/>
<path d="M114.821 109.933H107.397L112.339 111.036L114.649 111.68C116.583 112.22 118.342 113.324 119.682 114.819C120.694 115.948 121.459 117.304 121.893 118.757L122.881 125.007V120.595V118.886C122.881 117.352 122.51 115.841 121.799 114.481L121.553 114.011C120.913 112.786 119.951 111.759 118.771 111.041C117.58 110.316 116.214 109.933 114.821 109.933Z" fill="#C9C9C9" fill-opacity="0.14"/>
<defs>
<filter id="filter0_ii_702:58" x="3.5304" y="-6" width="50.4977" height="33.1631" filterUnits="userSpaceOnUse" color-interpolation-filters="sRGB">
<feFlood flood-opacity="0" result="BackgroundImageFix"/>
<feBlend mode="normal" in="SourceGraphic" in2="BackgroundImageFix" result="shape"/>
<feColorMatrix in="SourceAlpha" type="matrix" values="0 0 0 0 0 0 0 0 0 0 0 0 0 0 0 0 0 0 127 0" result="hardAlpha"/>
<feOffset dx="-8" dy="-6"/>
<feGaussianBlur stdDeviation="4"/>
<feComposite in2="hardAlpha" operator="arithmetic" k2="-1" k3="1"/>
<feColorMatrix type="matrix" values="0 0 0 0 0 0 0 0 0 0 0 0 0 0 0 0 0 0 0.13 0"/>
<feBlend mode="normal" in2="shape" result="effect1_innerShadow_702:58"/>
<feColorMatrix in="SourceAlpha" type="matrix" values="0 0 0 0 0 0 0 0 0 0 0 0 0 0 0 0 0 0 127 0" result="hardAlpha"/>
<feOffset dx="-1" dy="4"/>
<feGaussianBlur stdDeviation="14.5"/>
<feComposite in2="hardAlpha" operator="arithmetic" k2="-1" k3="1"/>
<feColorMatrix type="matrix" values="0 0 0 0 0 0 0 0 0 0 0 0 0 0 0 0 0 0 0.12 0"/>
<feBlend mode="normal" in2="effect1_innerShadow_702:58" result="effect2_innerShadow_702:58"/>
</filter>
<filter id="filter1_i_702:58" x="-2.67053" y="22.0601" width="141.365" height="147.7" filterUnits="userSpaceOnUse" color-interpolation-filters="sRGB">
<feFlood flood-opacity="0" result="BackgroundImageFix"/>
<feBlend mode="normal" in="SourceGraphic" in2="BackgroundImageFix" result="shape"/>
<feColorMatrix in="SourceAlpha" type="matrix" values="0 0 0 0 0 0 0 0 0 0 0 0 0 0 0 0 0 0 127 0" result="hardAlpha"/>
<feOffset dx="-3" dy="1"/>
<feGaussianBlur stdDeviation="2"/>
<feComposite in2="hardAlpha" operator="arithmetic" k2="-1" k3="1"/>
<feColorMatrix type="matrix" values="0 0 0 0 0.404167 0 0 0 0 0.399115 0 0 0 0 0.399115 0 0 0 0.25 0"/>
<feBlend mode="normal" in2="shape" result="effect1_innerShadow_702:58"/>
</filter>
<filter id="filter2_i_702:58" x="0" y="27.2074" width="74.1238" height="124.963" filterUnits="userSpaceOnUse" color-interpolation-filters="sRGB">
<feFlood flood-opacity="0" result="BackgroundImageFix"/>
<feBlend mode="normal" in="SourceGraphic" in2="BackgroundImageFix" result="shape"/>
<feColorMatrix in="SourceAlpha" type="matrix" values="0 0 0 0 0 0 0 0 0 0 0 0 0 0 0 0 0 0 127 0" result="hardAlpha"/>
<feOffset dy="4"/>
<feGaussianBlur stdDeviation="10.5"/>
<feComposite in2="hardAlpha" operator="arithmetic" k2="-1" k3="1"/>
<feColorMatrix type="matrix" values="0 0 0 0 0 0 0 0 0 0 0 0 0 0 0 0 0 0 0.17 0"/>
<feBlend mode="normal" in2="shape" result="effect1_innerShadow_702:58"/>
</filter>
<filter id="filter3_i_702:58" x="18.4486" y="198.173" width="56.0046" height="45.9142" filterUnits="userSpaceOnUse" color-interpolation-filters="sRGB">
<feFlood flood-opacity="0" result="BackgroundImageFix"/>
<feBlend mode="normal" in="SourceGraphic" in2="BackgroundImageFix" result="shape"/>
<feColorMatrix in="SourceAlpha" type="matrix" values="0 0 0 0 0 0 0 0 0 0 0 0 0 0 0 0 0 0 127 0" result="hardAlpha"/>
<feOffset dy="4"/>
<feGaussianBlur stdDeviation="2"/>
<feComposite in2="hardAlpha" operator="arithmetic" k2="-1" k3="1"/>
<feColorMatrix type="matrix" values="0 0 0 0 0 0 0 0 0 0 0 0 0 0 0 0 0 0 0.25 0"/>
<feBlend mode="normal" in2="shape" result="effect1_innerShadow_702:58"/>
</filter>
</defs>
</svg>
