<svg width="723" height="634" viewBox="0 0 723 634" fill="none" xmlns="http://www.w3.org/2000/svg">
<path d="M365.381 1.71582C180.777 1.71582 39.2546 12.0115 0 18.444C0 18.444 0 29.491 0 33.0295C0 49.1398 161.682 60.0534 365.381 60.0534C472.007 60.0534 564.94 56.8082 629.348 51.4115L584.147 6.468C524.478 3.62736 449.868 1.71582 365.381 1.71582Z" fill="#747169"/>
<path d="M584.147 6.45923L629.348 51.4026C687.984 46.4859 722.996 39.7867 722.996 32.1139C722.996 28.9398 722.996 18.4397 722.996 18.4397C701.808 14.221 652.901 9.72663 584.147 6.45923Z" fill="#343331"/>
<path d="M361.5 0C161.851 0 0 6.8637 0 18.4441C0 25.3123 161.847 30.8824 361.5 30.8824C455.519 30.8824 541.132 29.6466 605.433 27.6239L581.044 3.3741C520.168 1.17361 444.091 0 361.5 0Z" fill="#E8E7E5"/>
<path d="M723 18.4442C723 11.6561 667.315 6.49052 581.044 3.37427L605.433 27.6241C677.674 25.348 723 22.0762 723 18.4442Z" fill="#CAC9C7"/>
<path d="M410.68 59.8401H317.497V76.3461H410.68V59.8401Z" fill="#2D2A25"/>
<path d="M27.3931 631.253H39.6702L345.275 179.769C343.066 177.098 340.925 174.115 339.056 170.518L27.3931 631.253Z" fill="#656861"/>
<path d="M354.655 147.464L339.051 170.518C340.925 174.115 343.062 177.093 345.27 179.769L363.243 153.217L354.655 147.464Z" fill="#2D2A25"/>
<path d="M377.072 147.931L367.92 152.745L388.388 191.185C392.689 192.056 396.941 192.425 401.036 192.941L377.072 147.931Z" fill="#2D2A25"/>
<path d="M636.072 634L401.036 192.937C396.94 192.421 392.689 192.052 388.388 191.181L624.166 634H636.072Z" fill="#656861"/>
<path d="M370.531 155.586H359.063C359.215 156.986 365.421 205.206 372.083 267.625C376.031 272.506 380.036 277.374 384.056 282.25C379.254 237.267 374.564 193.364 370.531 155.586Z" fill="#2D2A25"/>
<path d="M372.079 267.62C385.384 392.319 405.499 582.051 405.499 582.051H415.853C415.853 580.593 399.383 425.913 384.052 282.246C380.033 277.369 376.027 272.506 372.079 267.62Z" fill="#656861"/>
<path d="M380.908 72.4875H349.849V156.129H380.908V72.4875Z" fill="#2D2A25"/>
</svg>
