<svg width="654" height="635" viewBox="0 0 654 635" fill="none" xmlns="http://www.w3.org/2000/svg">
<rect width="18.306" height="106.339" transform="matrix(1 -0.00076401 0.000818817 1 335.175 513.789)" fill="#3E3D3D"/>
<g filter="url(#filter0_i_802:722)">
<path d="M471.438 482.236C447.463 499.837 419.988 512.761 390.579 520.272C361.171 527.783 330.407 529.733 300.042 526.011C269.677 522.289 240.307 512.968 213.608 498.58C186.91 484.192 163.405 465.018 144.438 442.154C125.47 419.29 111.41 393.184 103.06 365.325C94.7108 337.466 92.2355 308.4 95.7756 279.788C99.3157 251.175 108.802 223.576 123.693 198.566C138.584 173.556 158.587 151.624 182.562 134.024L327 308.13L471.438 482.236Z" fill="#5D5D5D"/>
</g>
<path d="M465.517 468.315C443.189 484.707 417.564 496.702 390.108 503.616C362.651 510.529 333.899 512.226 305.494 508.609C277.089 504.992 249.587 496.132 224.558 482.534C199.528 468.937 177.463 450.869 159.62 429.361C141.778 407.854 128.508 383.329 120.568 357.185C112.629 331.042 110.175 303.793 113.347 276.994C116.519 250.195 125.255 224.371 139.056 200.997C152.857 177.622 171.452 157.154 193.781 140.762L329.649 304.539L465.517 468.315Z" fill="#34538A"/>
<rect width="18.3947" height="444.05" transform="matrix(0.812188 -0.583395 0.630223 0.776414 171.616 142.091)" fill="#5D5D5D"/>
<g filter="url(#filter1_di_802:722)">
<ellipse cx="334.342" cy="297.613" rx="202.18" ry="196.03" fill="#A4C2E6"/>
</g>
<path d="M534.241 328.035C533.94 330.183 533.469 332.334 532.998 334.485L531.749 331.54L534.241 328.035Z" fill="white"/>
<path d="M450.282 392.339L440.54 391.194L440.676 398.444L444.156 402.173L441.673 406.173L437.832 410.527L437.98 418.436L443.358 423.284L447.992 415.785L457.289 402.269L461.33 381.264L455.533 381.367L450.282 392.339Z" fill="white"/>
<path d="M325.93 217.933L326.326 220.893L321.908 221.796L321.344 228.07L326.8 227.972L333.949 227.186L337.449 222.838L333.5 221.425L331.408 218.989L328.072 213.939L326.405 206.88L320.288 208.143L318.633 210.81L318.685 213.611L321.621 215.537L325.93 217.933Z" fill="white"/>
<path d="M320.685 220.502L320.952 216.541L317.344 215.121L312.42 216.363L308.777 222.198L308.845 225.823L313.108 225.748L320.685 220.502Z" fill="white"/>
<path d="M537.114 282.861C536.842 277.426 536.408 272.489 535.637 267.722C530.509 230.724 510.011 196.486 485.953 168.727L475.745 175.489L476.104 185.538L470 187.46L468.447 177.432L465.995 174.014L458.973 172.491L457.379 178.454L459.518 183.361L434.763 182.153L423.096 187.636L422.737 186.653L421.125 182.561L418.242 183.436L416.13 189.079L410.078 193.802L395.064 193.575L394.32 190.291L409.995 189.353L413.185 186.659L394.098 178.427L373.478 179.453L370.921 179.499L358.082 186.156L353.465 194.645L344.831 198.096L341.321 201.95L342.257 206.384L346.702 206.964L349.551 213.342L357.168 210.239L357.175 210.569L358.526 218.952L356.138 218.994L352.889 218.558L349.982 218.115L343.012 219.393L336.535 228.739L326.844 230.395L325.628 238.329L329.738 239.245L328.641 244.375L319.058 242.732L310.396 244.7L308.61 249.512L310.329 259.372L315.488 261.588L324.184 261.433L329.972 260.835L331.594 256.356L336.09 250.506L340.589 244.821L346.578 245.869L352.447 240.489L353.548 244.591L368.217 253.725L366.555 256.063L360.07 255.848L362.692 259.263L366.629 260.017L371.366 257.955L371.265 252.517L373.292 251.492L371.553 249.71L361.735 244.61L359.048 237.734L367.062 237.591L369.666 240.018L376.595 245.664L377.065 252.579L384.192 259.705L384.366 259.866L384.518 258.875L386.732 249.604L390.446 247.56L391.627 246.88L392.634 255.104L397.675 260.124L412.336 259.698L416.657 262.753L416.796 270.168L411.597 274.876L396.762 275.141L387.605 268.875L378.583 269.86L378.071 269.869L378.176 275.472L375.107 275.526L371.827 273.442L355.21 269.617L355.019 259.4L334.077 261.421L327.997 264.662L327.659 264.832L319.304 264.981L315.206 264.725L305.247 270.342L305.439 280.558L285.075 295.262L286.894 301.329L291.157 301.253L290.242 307.039L287.362 308.079L287.475 323.242L293.393 329.566L305.576 342.536L313.249 342.399L313.739 341.237L327.721 340.988L331.575 337.293L339.418 337.153L341.502 339.094L343.758 341.197L355.545 342.141L354.295 357.328L367.67 379.343L361.087 392.153L361.71 398.077L367.265 403.252L367.534 417.589L374.868 426.689L375.093 438.719L396.066 438.345L411.46 422.411L416.245 413.754L422.529 412.324L422.393 405.073L426.396 400.221L435.043 388.364L432.834 370.6L428.789 364.079L445.882 347.785L464.485 321.079L460.703 319.498L441.001 323.97L435.839 321.589L414.327 284.059L415.831 282.384L436.917 306.24L437.57 313.811L442.431 318.34L452.138 317.508L472.163 302.975L478.565 298.74L478.302 293.799L471.466 293.097C471.466 293.097 447.391 282.646 447.382 282.152C447.373 281.657 447.379 272.921 447.379 272.921L452.665 272.826L453.638 279.238L464.836 285.138L477.466 285.572L504.828 289.371L511.382 293.21L511.496 299.307L510.798 307.561L525.196 329.559L529.819 330.465L534.135 324.125L536.356 306.117L536.52 305.785C537.575 298.348 537.603 290.765 537.114 282.861ZM384.44 190.962L375.334 196.564L375.402 200.189L380.56 202.405L380.991 207.178L373.856 217.854L361.065 217.917L360.163 215.296L368.103 211.198L367.828 196.533L381.129 187.229L384.198 187.175L384.269 190.965L384.44 190.962ZM414.082 252.744L401.966 252.465L398.395 253.023L398.246 245.113L400.919 242.099L403.802 241.223L410.269 240.448L411.594 238.282L414.176 239.555L414.653 246.799L421.696 249.476L422.44 252.76L414.085 252.908L414.082 252.744ZM460.395 257.523L458.386 259.537L453.606 259.293L452.555 257.828L444.873 257.47L445.338 254.989L449.369 251.621L449.316 248.819L441.371 243.521L440.9 236.606L442.37 233.118L448.669 232.512L453.995 234.56L454.234 238.182L446.555 237.989L446.275 241.291L455.938 247.218L456.022 251.667L460.169 254.56L460.225 257.526L460.395 257.523Z" fill="white"/>
<path d="M216.992 241.494L211.705 241.588L211.754 244.225L213.119 244.201C213.119 244.201 213.128 244.695 213.314 245.516L216.548 245.129L218.573 243.939L219.038 241.457L221.593 241.247L222.576 239.086L220.179 238.634L218.133 238.671L216.992 241.494Z" fill="white"/>
<path d="M204.289 246.503L208.034 246.107L208.326 243.464L206.075 241.691L204.41 243.863L204.289 246.503Z" fill="white"/>
<path d="M137.27 302.076L136.765 302.415C136.774 302.909 136.781 303.238 136.79 303.733C136.824 305.545 137.028 307.355 137.236 309.329L138.55 306.668L137.27 302.076ZM176.87 176.769C174.874 179.441 172.875 181.949 171.049 184.619L172.924 184.585L179.622 178.038L176.87 176.769ZM229.335 201.216L231.614 195.407L239.455 195.267L242.086 190.111L236.437 188.893L236.316 182.467L218.62 175.366L206.542 176.9L199.789 180.481L200.458 188.875L193.28 188.014L192 183.422L198.708 177.369L186.422 176.928L182.861 177.981L181.401 181.962L186.019 182.704L185.079 187.171L177.248 187.805L176.11 190.792L166.57 191.291C159.612 202.128 153.856 213.439 149.299 225.057L148.663 227.541L148.325 227.711C141.834 245.298 137.915 263.662 136.9 282.305L150.707 282.059L150.657 288.487L158.566 291.972L157.848 280.943L163.371 275.405L174.656 267.952L175.413 262.829L186.617 251.093L198.597 244.286L197.558 243.481L205.772 235.918L208.856 236.687L210.25 238.31L213.254 234.796L213.929 234.454L210.511 234.02L207.08 232.928L207.018 229.633L208.866 228.116L212.957 228.043L214.847 228.834L216.61 231.934L218.65 231.568L218.647 231.403L219.161 231.559L224.771 230.635L225.574 227.984L228.828 228.75L228.88 231.551L225.849 233.582L226.419 236.704L236.876 239.649L236.879 239.814L239.262 239.607L239.352 235.32L231.102 231.841L230.551 229.708L237.329 227.445L237.553 221.177L230.316 217.186L229.608 206.65L219.978 211.437L216.398 211.5L217.27 203.409L203.919 200.68L198.538 204.731L198.766 216.924L188.935 220.066L185.163 228.044L180.914 228.779L180.722 218.564L171.496 217.574L166.838 214.691L164.84 208.134L181.198 198.448L189.334 195.83L190.285 201.088L194.884 200.841L195.176 198.199L199.936 197.455L199.918 196.466L197.857 195.679L197.293 192.887L203.079 192.289L206.594 188.765L206.758 188.433L207.76 187.261L220.005 185.56L225.372 189.914L211.36 197.416L229.335 201.216ZM154.581 252.158L151.311 250.568L151.91 246.107L156.088 241.583L162.224 241.473L154.581 252.158ZM171.115 251.863L168.437 254.548L162.471 254.654L163.249 250.685L165.974 250.471L166.631 249.141L170.883 248.571L170.945 251.866L171.115 251.863ZM172.346 244.754L169.653 246.615L166.256 247.335C166.256 247.335 166.154 241.898 166.145 241.403L172.452 241.291L172.517 244.751L172.346 244.754ZM177.553 240.541L180.311 242.14L178.129 243.992L175.879 242.219L177.553 240.541ZM173.886 245.056L174.398 245.047L181.424 246.9L181.488 250.36L175.522 250.466L173.774 248.19L173.716 245.059L173.886 245.056ZM169.105 235.582L172.92 238.975L169.185 239.866L169.105 235.582ZM165.495 233.998L165.535 236.14L167.069 236.113L167.14 239.902L156.06 240.1L151.777 239.022L152.75 236.368L157.994 234.132L165.495 233.998ZM262.133 368.251L257.218 360.757L240.851 360.884L227.807 356.336L226.958 347.451L222.558 340.113L210.793 340.158L203.781 329.899L197.762 327.205L197.48 330.341L186.412 331.198L182.22 325.833L170.756 323.73L161.578 334.442L146.702 332.234L145.377 316.106L138.025 315.083C138.221 316.398 138.413 317.549 138.437 318.867C139.215 323.962 139.992 329.058 141.111 334.147L143.894 337.064L158.063 337.965L159.637 349.145L150.044 355.909L149.833 362.835C153.232 371.345 157.139 379.681 161.722 387.675L162.77 388.975L162.956 389.796L163.9 394.723C163.9 394.723 164.929 395.035 166.299 395.34C167.669 395.645 169.383 396.109 169.724 396.103C170.406 396.091 181.293 403.808 181.293 403.808L181.524 416.166C193.384 430.293 207.431 442.899 223.314 453.329L225.003 452.475L228.63 445.818L239.953 431.277L237.186 420.119L240.654 414.123L249.183 414.301L251.229 414.265L258.286 408.7L259.555 394.503L260.269 387.074L268.098 377.21L269.345 370.925L262.133 368.251Z" fill="white"/>
<path opacity="0.37" d="M529.836 347.822C536.92 321.804 539.72 292.948 535.295 266.434C530.699 283.312 504.001 361.986 492.717 375.687C481.432 389.388 444.855 422.235 428.79 430.44C393.602 450.164 353.847 460.521 313.318 460.521L302.272 460.521L195.573 440.956C215.949 459.323 240.098 473.414 266.488 482.334C292.878 491.255 320.933 494.81 348.873 492.773C376.813 490.737 404.028 483.155 428.79 470.506C453.553 457.858 475.322 440.421 492.717 419.301C510.112 398.181 522.752 373.84 529.836 347.822Z" fill="#1F77B4"/>
<g filter="url(#filter2_i_802:722)">
<path d="M241.225 632.679C241.225 609.181 260.275 590.131 283.773 590.131H411.412C434.91 590.131 453.96 609.181 453.96 632.679C453.96 633.961 452.92 635 451.639 635H243.546C242.264 635 241.225 633.961 241.225 632.679Z" fill="#5E5E5E"/>
</g>
<defs>
<filter id="filter0_i_802:722" x="94.2095" y="133.024" width="381.228" height="394.823" filterUnits="userSpaceOnUse" color-interpolation-filters="sRGB">
<feFlood flood-opacity="0" result="BackgroundImageFix"/>
<feBlend mode="normal" in="SourceGraphic" in2="BackgroundImageFix" result="shape"/>
<feColorMatrix in="SourceAlpha" type="matrix" values="0 0 0 0 0 0 0 0 0 0 0 0 0 0 0 0 0 0 127 0" result="hardAlpha"/>
<feOffset dx="4" dy="-1"/>
<feGaussianBlur stdDeviation="2"/>
<feComposite in2="hardAlpha" operator="arithmetic" k2="-1" k3="1"/>
<feColorMatrix type="matrix" values="0 0 0 0 0 0 0 0 0 0 0 0 0 0 0 0 0 0 0.25 0"/>
<feBlend mode="normal" in2="shape" result="effect1_innerShadow_802:722"/>
</filter>
<filter id="filter1_di_802:722" x="128.161" y="96.583" width="412.36" height="405.06" filterUnits="userSpaceOnUse" color-interpolation-filters="sRGB">
<feFlood flood-opacity="0" result="BackgroundImageFix"/>
<feColorMatrix in="SourceAlpha" type="matrix" values="0 0 0 0 0 0 0 0 0 0 0 0 0 0 0 0 0 0 127 0" result="hardAlpha"/>
<feOffset dy="4"/>
<feGaussianBlur stdDeviation="2"/>
<feComposite in2="hardAlpha" operator="out"/>
<feColorMatrix type="matrix" values="0 0 0 0 0 0 0 0 0 0 0 0 0 0 0 0 0 0 0.25 0"/>
<feBlend mode="normal" in2="BackgroundImageFix" result="effect1_dropShadow_802:722"/>
<feBlend mode="normal" in="SourceGraphic" in2="effect1_dropShadow_802:722" result="shape"/>
<feColorMatrix in="SourceAlpha" type="matrix" values="0 0 0 0 0 0 0 0 0 0 0 0 0 0 0 0 0 0 127 0" result="hardAlpha"/>
<feOffset dx="-3" dy="-5"/>
<feGaussianBlur stdDeviation="17.5"/>
<feComposite in2="hardAlpha" operator="arithmetic" k2="-1" k3="1"/>
<feColorMatrix type="matrix" values="0 0 0 0 0 0 0 0 0 0 0 0 0 0 0 0 0 0 0.19 0"/>
<feBlend mode="normal" in2="shape" result="effect2_innerShadow_802:722"/>
</filter>
<filter id="filter2_i_802:722" x="241.225" y="590.131" width="212.734" height="48.8687" filterUnits="userSpaceOnUse" color-interpolation-filters="sRGB">
<feFlood flood-opacity="0" result="BackgroundImageFix"/>
<feBlend mode="normal" in="SourceGraphic" in2="BackgroundImageFix" result="shape"/>
<feColorMatrix in="SourceAlpha" type="matrix" values="0 0 0 0 0 0 0 0 0 0 0 0 0 0 0 0 0 0 127 0" result="hardAlpha"/>
<feOffset dy="4"/>
<feGaussianBlur stdDeviation="3.5"/>
<feComposite in2="hardAlpha" operator="arithmetic" k2="-1" k3="1"/>
<feColorMatrix type="matrix" values="0 0 0 0 0 0 0 0 0 0 0 0 0 0 0 0 0 0 0.25 0"/>
<feBlend mode="normal" in2="shape" result="effect1_innerShadow_802:722"/>
</filter>
</defs>
</svg>
