<svg width="231" height="117" viewBox="0 0 231 117" fill="none" xmlns="http://www.w3.org/2000/svg">
<path d="M226.493 112.226L230.001 108.024V72.4629L226.493 79.8917V112.226Z" fill="#D0D1D7"/>
<path d="M28.0103 72.4629L2.64648 85.433L226.492 79.8917L230 72.4629H28.0103Z" fill="#6B6094"/>
<path d="M2.64648 85.4334V116.001H226.492V112.226V79.8921L2.64648 85.4334Z" fill="#766AA3"/>
<path d="M220.28 70.7572L216.887 70.5137V70.879L201.991 78.3078V81.7178H201.703L201.991 81.9614L220.28 70.7572Z" fill="#766AA3"/>
<path d="M201.991 78.308L216.888 70.8792V70.5139V49.3232L195.032 52.1243H201.991V78.308Z" fill="#D0D1D7"/>
<path d="M183.644 52.124H24.502V81.7786H183.644V52.124Z" fill="#F38498"/>
<path d="M24.5011 52.124H0V81.7786H24.5011V52.124Z" fill="#D94760"/>
<path d="M201.99 78.3077V52.124H195.03H183.643V81.7177H201.702H201.99V78.3077Z" fill="#D94760"/>
<path d="M194.17 6.39306V48.7133L225.63 43.2939V3.89648L194.17 6.39306Z" fill="white"/>
<path d="M225.63 3.89712L228.218 3.65354V0L194.17 2.13123V6.39369L225.63 3.89712Z" fill="#424152"/>
<path d="M194.17 53.9496L228.218 46.5816V42.8672L225.63 43.2934L194.17 48.7128V53.9496Z" fill="#424152"/>
<path d="M194.17 48.7135V6.39332V2.13086H7.88086V53.9502H194.17V48.7135Z" fill="#555369"/>
<path d="M69.0747 2.13086H26.2266V53.9502H69.0747V2.13086Z" fill="#96999F"/>
</svg>
