<svg width="30" height="28" viewBox="0 0 30 28" fill="none" xmlns="http://www.w3.org/2000/svg">
<rect width="6" height="6" rx="1" fill="white"/>
<rect width="6" height="6" rx="1" fill="white"/>
<rect width="6" height="6" rx="1" fill="white"/>
<rect width="6" height="6" rx="1" fill="white"/>
<rect x="12" width="6" height="6" rx="1" fill="white"/>
<rect x="12" width="6" height="6" rx="1" fill="white"/>
<rect x="12" width="6" height="6" rx="1" fill="white"/>
<rect x="12" width="6" height="6" rx="1" fill="white"/>
<rect x="24" width="6" height="6" rx="1" fill="white"/>
<rect x="24" width="6" height="6" rx="1" fill="white"/>
<rect x="24" width="6" height="6" rx="1" fill="white"/>
<rect x="24" width="6" height="6" rx="1" fill="white"/>
<rect y="11" width="6" height="6" rx="1" fill="white"/>
<rect y="11" width="6" height="6" rx="1" fill="white"/>
<rect y="11" width="6" height="6" rx="1" fill="white"/>
<rect y="11" width="6" height="6" rx="1" fill="white"/>
<rect x="12" y="11" width="6" height="6" rx="1" fill="white"/>
<rect x="12" y="11" width="6" height="6" rx="1" fill="white"/>
<rect x="12" y="11" width="6" height="6" rx="1" fill="white"/>
<rect x="12" y="11" width="6" height="6" rx="1" fill="white"/>
<rect x="24" y="11" width="6" height="6" rx="1" fill="white"/>
<rect x="24" y="11" width="6" height="6" rx="1" fill="white"/>
<rect x="24" y="11" width="6" height="6" rx="1" fill="white"/>
<rect x="24" y="11" width="6" height="6" rx="1" fill="white"/>
<rect y="22" width="6" height="6" rx="1" fill="white"/>
<rect y="22" width="6" height="6" rx="1" fill="white"/>
<rect y="22" width="6" height="6" rx="1" fill="white"/>
<rect y="22" width="6" height="6" rx="1" fill="white"/>
<rect x="12" y="22" width="6" height="6" rx="1" fill="white"/>
<rect x="12" y="22" width="6" height="6" rx="1" fill="white"/>
<rect x="12" y="22" width="6" height="6" rx="1" fill="white"/>
<rect x="12" y="22" width="6" height="6" rx="1" fill="white"/>
<rect x="24" y="22" width="6" height="6" rx="1" fill="white"/>
<rect x="24" y="22" width="6" height="6" rx="1" fill="white"/>
<rect x="24" y="22" width="6" height="6" rx="1" fill="white"/>
<rect x="24" y="22" width="6" height="6" rx="1" fill="white"/>
</svg>
