<svg width="63" height="70" viewBox="0 0 63 70" fill="none" xmlns="http://www.w3.org/2000/svg">
<g filter="url(#filter0_d_821:736)">
<path d="M54.5891 -4.45143e-06L58.9009 57.2959L8.31181 61.4162L4.00002 4.12027L54.5891 -4.45143e-06Z" fill="white"/>
</g>
<g filter="url(#filter1_dii_821:736)">
<rect x="38" y="6" width="9.53016" height="9.91442" rx="4.76508" fill="#698FC0"/>
</g>
<path d="M14.5635 21.0034C14.5442 20.856 14.5783 20.7397 14.6657 20.6546C14.7532 20.5694 14.8553 20.5224 14.9721 20.5133C15.089 20.5043 15.201 20.5348 15.3083 20.6048C15.4156 20.6748 15.4789 20.7836 15.4982 20.931C15.5782 21.5595 15.6774 22.1826 15.7958 22.8003C15.9141 23.418 15.99 24.0429 16.0233 24.675C16.4264 24.5184 16.8404 24.4002 17.2652 24.3202C17.6972 24.2319 18.1238 24.2263 18.5451 24.3034C18.7991 24.3464 19.0446 24.4292 19.2813 24.5519C19.5258 24.674 19.7162 24.8552 19.8523 25.0954C19.9711 25.3134 20.0551 25.5381 20.1043 25.7694C20.1614 26 20.1918 26.2406 20.1955 26.491C20.1945 26.781 20.1569 27.0543 20.0827 27.3108C20.0163 27.5667 19.9023 27.8145 19.7407 28.0543C19.5934 28.2772 19.4221 28.4942 19.2269 28.7053C19.0389 28.9079 18.8248 29.0773 18.5845 29.2134C18.4414 29.2872 18.2961 29.3337 18.1487 29.353C18.0085 29.3638 17.8668 29.3552 17.7236 29.3271C17.5797 29.2913 17.4392 29.2473 17.302 29.1952C17.1641 29.1354 17.0299 29.0714 16.8992 29.0031C16.7685 28.9349 16.6421 28.8702 16.5198 28.8092C16.3969 28.7403 16.2771 28.6595 16.1602 28.5667L16.1082 28.8058C16.1202 28.9616 16.0787 29.0823 15.9834 29.1681C15.8954 29.2454 15.793 29.2886 15.6761 29.2977C15.5593 29.3067 15.4475 29.2801 15.3408 29.2179C15.2413 29.1472 15.1855 29.034 15.1735 28.8782C15.1259 28.3647 15.1061 27.8569 15.1142 27.3548C15.1224 26.8527 15.1263 26.347 15.126 25.8376C15.0217 25.7047 14.9728 25.5792 14.9793 25.4611C14.9858 25.3431 15.0292 25.2457 15.1095 25.1689C15.1118 25.0982 15.1103 25.0278 15.1049 24.9577C15.0994 24.8876 15.094 24.8175 15.0886 24.7474C15.0553 24.1153 14.9794 23.4904 14.8611 22.8727C14.7427 22.255 14.6435 21.6319 14.5635 21.0034ZM16.0445 25.7077C16.05 25.9815 16.0514 26.2518 16.0485 26.5184C16.0457 26.7851 16.0431 27.0556 16.0409 27.33C16.2303 27.4486 16.4089 27.5797 16.5768 27.7234C16.744 27.8593 16.9292 27.9743 17.1324 28.0682C17.1815 28.0958 17.2475 28.1377 17.3302 28.194C17.4201 28.2419 17.51 28.2897 17.5999 28.3376C17.6976 28.3849 17.7905 28.4208 17.8786 28.4453C17.9739 28.4615 18.0512 28.4476 18.1105 28.4039C18.2674 28.3055 18.4153 28.1922 18.5543 28.0639C18.6926 27.9278 18.8145 27.7812 18.9198 27.6242C19.0324 27.4587 19.1171 27.2876 19.1739 27.1108C19.2385 26.9334 19.2675 26.751 19.2608 26.5634C19.2637 26.3987 19.2504 26.2273 19.221 26.0493C19.1993 25.8708 19.1438 25.7105 19.0545 25.5686C18.9573 25.4272 18.8245 25.3317 18.6561 25.2821C18.4955 25.2318 18.3286 25.2017 18.1555 25.1916C17.7929 25.1648 17.4316 25.2046 17.0716 25.3108C16.7187 25.4087 16.3764 25.541 16.0445 25.7077ZM25.4467 24.7796C25.5064 25.4488 25.605 26.1151 25.7425 26.7783C25.8801 27.4416 26.0443 28.0949 26.2352 28.7383C26.2779 28.8839 26.2599 29.0067 26.1815 29.1068C26.1115 29.2141 26.0231 29.2876 25.9165 29.3272C25.8098 29.3668 25.7002 29.3674 25.5875 29.3292C25.4749 29.2909 25.3972 29.1989 25.3546 29.0534C25.2267 28.6166 25.1112 28.1868 25.0079 27.7638C24.9797 27.8051 24.9555 27.8462 24.9351 27.887C24.9142 27.9199 24.8896 27.9571 24.8615 27.9984C24.7202 28.1975 24.5537 28.3749 24.3621 28.5308C24.1698 28.6789 23.9598 28.801 23.7322 28.8969C23.5117 28.9845 23.2811 29.0416 23.0402 29.0681C22.7994 29.0946 22.5597 29.0857 22.3212 29.0415C21.8993 28.9566 21.5682 28.7786 21.3277 28.5073C21.0873 28.236 20.9062 27.9209 20.7844 27.562C20.6619 27.1954 20.5775 26.8141 20.5312 26.418C20.4842 26.0142 20.4436 25.6412 20.4092 25.2991C20.3978 25.1511 20.4361 25.0384 20.5241 24.9611C20.6115 24.8759 20.7137 24.8289 20.8305 24.8198C20.9474 24.8108 21.0555 24.8416 21.155 24.9122C21.2617 24.9745 21.3247 25.0793 21.3439 25.2267C21.3759 25.5376 21.4042 25.8528 21.4289 26.1722C21.4615 26.4909 21.5198 26.7881 21.6038 27.0637C21.647 27.217 21.6926 27.3506 21.7406 27.4644C21.788 27.5705 21.8594 27.6825 21.9547 27.8005C21.9979 27.852 22.0198 27.8816 22.0204 27.8894C22.0288 27.8966 22.041 27.9035 22.0572 27.9101C22.1813 27.9945 22.2637 28.0469 22.3045 28.0672C22.3446 28.0798 22.3926 28.0918 22.4483 28.1031C22.7827 28.1712 23.1131 28.1378 23.4396 28.0028C23.7655 27.86 24.0182 27.6328 24.1978 27.3211C24.3002 27.1251 24.3708 26.9238 24.4096 26.717C24.4562 26.5097 24.4834 26.3038 24.4911 26.0995C24.4981 25.8874 24.4974 25.6759 24.4889 25.465C24.4876 25.2457 24.4944 25.0297 24.5093 24.8169C24.4912 24.5833 24.5378 24.4268 24.6492 24.3477C24.7678 24.2601 24.8942 24.2229 25.0284 24.236C25.1081 24.2534 25.1726 24.2758 25.2217 24.3033L25.3215 24.3779C25.4181 24.5115 25.4598 24.6454 25.4467 24.7796ZM30.6755 23.2344C30.7893 23.2883 30.8706 23.376 30.9192 23.4976C30.9678 23.6192 30.9573 23.7376 30.8879 23.8527C30.7149 24.1482 30.5907 24.4673 30.5154 24.8101C30.4479 25.1522 30.3642 25.4878 30.2643 25.8168C30.1584 26.1698 30.0361 26.5123 29.8972 26.8444C29.7662 27.1758 29.6238 27.512 29.47 27.853C29.4574 27.8932 29.4406 27.9297 29.4197 27.9627C29.4059 27.9873 29.3928 28.0196 29.3802 28.0598C29.421 28.182 29.4103 28.2965 29.348 28.4032C29.293 28.5014 29.2124 28.5743 29.1064 28.6217C28.8292 29.1917 28.5476 29.7542 28.2615 30.3092C27.9838 30.8714 27.7064 31.4374 27.4293 32.0074C27.3616 32.1459 27.2661 32.2277 27.1427 32.2529C27.027 32.2776 26.9162 32.2627 26.8101 32.2082C26.7046 32.1615 26.624 32.0816 26.5682 31.9683C26.513 31.8629 26.5192 31.741 26.5869 31.6025C26.8706 31.0164 27.1585 30.4338 27.4506 29.8548C27.7433 29.2836 28.0315 28.705 28.3152 28.1188C27.9158 27.515 27.5317 26.9061 27.1628 26.2922C26.7934 25.6704 26.4165 25.0531 26.0321 24.4404C25.9517 24.3134 25.9307 24.1936 25.969 24.0809C26.0144 23.9598 26.0818 23.8684 26.171 23.8067C26.2675 23.7365 26.3747 23.7047 26.4928 23.7112C26.6186 23.7171 26.7217 23.7836 26.802 23.9106C27.1337 24.4491 27.4614 24.9879 27.7853 25.527C28.1085 26.0583 28.4396 26.589 28.7784 27.1191C29.0256 26.5671 29.2395 25.9903 29.4201 25.3886C29.5122 25.0602 29.5962 24.7285 29.6721 24.3935C29.7552 24.0501 29.8836 23.7346 30.0572 23.4469C30.1189 23.3324 30.2069 23.255 30.3213 23.2148C30.4351 23.1668 30.5532 23.1734 30.6755 23.2344ZM35.6638 28.29C35.5577 28.3374 35.4361 28.3351 35.2989 28.283C35.1694 28.2304 35.0921 28.1423 35.0668 28.0189C34.9047 27.3419 34.7821 26.6697 34.699 26.0022C34.6232 25.3264 34.5587 24.6457 34.5056 23.9603C34.4966 23.8435 34.5205 23.7476 34.5774 23.6726C34.6342 23.5977 34.7046 23.5453 34.7885 23.5152C34.8724 23.4852 34.9616 23.4744 35.0563 23.4827C35.151 23.4911 35.2319 23.524 35.299 23.5815C35.4667 23.4196 35.6476 23.2763 35.8417 23.1516C36.0357 23.0268 36.2328 22.941 36.4329 22.8942C36.6402 22.839 36.8475 22.8347 37.0549 22.8813C37.2616 22.9201 37.4618 23.0261 37.6555 23.1991C37.8155 23.3435 37.957 23.501 38.0799 23.6717C38.2023 23.8346 38.3138 24.0101 38.4146 24.1982C38.5085 23.8931 38.6509 23.6078 38.8419 23.3423C39.0329 23.0768 39.2887 22.8885 39.6092 22.7774C39.8458 22.6964 40.0379 22.6972 40.1853 22.7798C40.3322 22.8547 40.4751 22.9807 40.6142 23.158C40.7617 23.3425 40.8979 23.5317 41.0226 23.7258C41.1551 23.9193 41.2802 24.1172 41.3977 24.3197C41.5153 24.5222 41.6289 24.7249 41.7387 24.928C41.8484 25.1311 41.9579 25.3302 42.067 25.5255C42.1936 25.743 42.3046 25.9616 42.4 26.1815C42.5025 26.3929 42.5752 26.6224 42.6178 26.8698C42.6437 27.001 42.6057 27.1176 42.5039 27.2195C42.4092 27.313 42.3035 27.3643 42.1867 27.3734C42.0543 27.3836 41.9419 27.3492 41.8496 27.2702C41.7644 27.1827 41.709 27.0734 41.6831 26.9422C41.6531 26.7565 41.5886 26.5813 41.4896 26.4165C41.3978 26.2434 41.3064 26.0742 41.2152 25.9089C41.1156 25.7363 41.0158 25.5599 40.9156 25.3796C40.8233 25.1987 40.7273 25.022 40.6277 24.8495C40.5282 24.677 40.4208 24.5051 40.3057 24.3338C40.1983 24.1619 40.0835 23.9945 39.9612 23.8315C39.9438 23.8094 39.9264 23.7872 39.909 23.7651C39.8916 23.7429 39.8742 23.7207 39.8568 23.6986C39.7077 23.7963 39.6011 23.8869 39.537 23.9702C39.473 24.0535 39.4149 24.1638 39.3628 24.301C39.3174 24.4221 39.2803 24.5503 39.2516 24.6858C39.2301 24.8128 39.2128 24.9434 39.1997 25.0777C39.1723 25.3305 39.1574 25.5942 39.1552 25.8686C39.1553 26.0723 39.1704 26.2671 39.2004 26.4528C39.2383 26.6379 39.2456 26.8333 39.2223 27.0388C39.2086 27.1652 39.1418 27.2644 39.022 27.3364C38.91 27.4078 38.7944 27.4324 38.6751 27.4103C38.5637 27.3876 38.4777 27.3394 38.4171 27.2657C38.3637 27.1837 38.325 27.0887 38.301 26.9809C38.2505 26.734 38.1956 26.4797 38.1361 26.2179C38.0767 25.9561 38.0058 25.6991 37.9236 25.4469C37.8408 25.1868 37.7394 24.94 37.6194 24.7064C37.5066 24.4644 37.3642 24.2443 37.1921 24.046C37.0722 23.9143 36.952 23.8296 36.8316 23.7919C36.7189 23.7536 36.5841 23.7836 36.4272 23.882C36.2553 23.9893 36.0888 24.1158 35.9277 24.2615C35.7665 24.4072 35.6261 24.567 35.5064 24.7408C35.5528 25.2387 35.607 25.736 35.669 26.2327C35.7381 26.721 35.8307 27.2075 35.9466 27.6922C35.9724 27.8234 35.9623 27.9456 35.9162 28.0589C35.8773 28.1638 35.7932 28.2408 35.6638 28.29ZM42.7906 23.0247C42.9229 22.8107 43.0843 22.618 43.2747 22.4465C43.473 22.2744 43.6856 22.1365 43.9126 22.0327C44.1391 21.9211 44.3769 21.8557 44.6262 21.8364C44.8748 21.8093 45.1277 21.8367 45.3848 21.9187C45.6335 21.9934 45.8616 22.1051 46.069 22.2535C46.2758 22.3942 46.4433 22.585 46.5717 22.8258C46.6718 23.0061 46.7382 23.2047 46.7706 23.4216C46.8031 23.6385 46.7601 23.8416 46.6415 24.031C46.5374 24.2037 46.4029 24.3395 46.2382 24.4384C46.0813 24.5368 45.9069 24.6129 45.7152 24.667C45.5313 24.7204 45.3381 24.755 45.1356 24.7707C44.9408 24.7857 44.7536 24.7963 44.5738 24.8024C44.3707 24.8103 44.167 24.8104 43.9627 24.8027C43.7661 24.7945 43.5657 24.7865 43.3614 24.7788C43.4508 25.1245 43.5996 25.4264 43.8077 25.6845C44.0157 25.9427 44.2849 26.1295 44.6151 26.2449C44.7032 26.2695 44.7712 26.2877 44.8191 26.2997C44.8431 26.3056 44.8632 26.3119 44.8793 26.3185C44.9027 26.3167 44.9261 26.3149 44.9495 26.3131C45.0124 26.316 45.0636 26.3199 45.1032 26.3247C45.1499 26.3211 45.1924 26.3138 45.2308 26.303C45.2847 26.291 45.3194 26.2844 45.335 26.2832C45.3578 26.2736 45.3805 26.264 45.4033 26.2544C45.4872 26.2244 45.5591 26.1914 45.619 26.1554C45.6867 26.1188 45.7645 26.0619 45.8526 25.9845C45.8963 25.942 45.9541 25.8787 46.0259 25.7948C46.0978 25.7109 46.1586 25.6356 46.2083 25.5691C46.2777 25.454 46.3654 25.3728 46.4715 25.3254C46.5853 25.2774 46.7033 25.2839 46.8256 25.345C46.9317 25.3994 47.0093 25.4914 47.0585 25.6208C47.1149 25.7418 47.1084 25.8598 47.039 25.9749C46.8366 26.2962 46.5881 26.5779 46.2934 26.8202C46.0059 27.054 45.6642 27.1941 45.2681 27.2404C44.95 27.2808 44.6381 27.2501 44.3324 27.1484C44.0262 27.0389 43.7517 26.8838 43.5089 26.6832C43.2074 26.4323 42.9609 26.1341 42.7696 25.7884C42.5783 25.4428 42.4603 25.0837 42.4158 24.711C42.3415 24.6619 42.2818 24.5999 42.2369 24.525C42.1991 24.4418 42.1807 24.357 42.1819 24.2707C42.1908 24.1838 42.216 24.1035 42.2573 24.0298C42.298 23.9483 42.3641 23.8922 42.4558 23.8616C42.5192 23.5668 42.6308 23.2878 42.7906 23.0247ZM45.6164 23.0879C45.5223 22.9855 45.3823 22.8983 45.1965 22.8265C45.0437 22.7757 44.8661 22.7581 44.6635 22.7738C44.4688 22.7889 44.3041 22.8369 44.1693 22.9179C43.9968 23.0174 43.8464 23.1505 43.7183 23.3172C43.5896 23.476 43.4896 23.6522 43.4184 23.8458C43.6071 23.8547 43.7959 23.8636 43.9846 23.8725C44.1734 23.8814 44.3615 23.8825 44.5491 23.8758C44.6503 23.8679 44.7516 23.8601 44.8529 23.8522C44.9541 23.8444 45.0551 23.8327 45.1557 23.817C45.1869 23.8146 45.2141 23.8125 45.2375 23.8107C45.2681 23.8005 45.2989 23.7942 45.3301 23.7918C45.399 23.7708 45.449 23.759 45.4802 23.7566C45.5185 23.7458 45.5565 23.7311 45.5943 23.7125C45.6248 23.7023 45.6629 23.6876 45.7084 23.6684C45.7461 23.6498 45.7686 23.6363 45.7758 23.6279C45.783 23.6196 45.7941 23.6109 45.809 23.6019L45.8332 23.4589C45.8152 23.429 45.8014 23.4026 45.7918 23.3799C45.7894 23.3487 45.7795 23.3221 45.7621 23.2999C45.7525 23.2771 45.7303 23.2436 45.6956 23.1993C45.6686 23.1543 45.6422 23.1172 45.6164 23.0879ZM15.9135 46.4007C15.6396 46.3044 15.417 46.161 15.2455 45.9706C15.0812 45.7717 14.9582 45.5501 14.8766 45.3057C14.8028 45.0606 14.7673 44.8048 14.7702 44.5382C14.7724 44.2637 14.8067 43.9986 14.8731 43.7427C14.9281 43.5425 14.9903 43.334 15.0597 43.117C15.1369 42.8995 15.2308 42.6963 15.3416 42.5075C15.4523 42.3187 15.5886 42.1553 15.7503 42.0174C15.9114 41.8717 16.1073 41.7704 16.3379 41.7133C16.5764 41.6557 16.8169 41.6253 17.0596 41.6222C17.3095 41.6106 17.5566 41.615 17.8011 41.6353C17.9114 41.6424 18.0186 41.6615 18.1229 41.6926C18.2266 41.7159 18.3305 41.7431 18.4348 41.7742C18.4336 41.6568 18.4767 41.5555 18.5641 41.4704C18.6593 41.3846 18.7614 41.3375 18.8705 41.3291C19.0029 41.3188 19.1117 41.3574 19.1968 41.4449C19.2891 41.5239 19.3479 41.6251 19.3731 41.7486C19.4398 42.1038 19.4832 42.4609 19.5031 42.8198C19.5309 43.1781 19.547 43.5373 19.5514 43.8975C19.5635 44.257 19.5757 44.6165 19.5879 44.976C19.6079 45.3349 19.6395 45.6929 19.6828 46.05C19.7021 46.1974 19.6641 46.3139 19.5689 46.3997C19.4808 46.477 19.3784 46.5202 19.2616 46.5293C19.1447 46.5383 19.033 46.5117 18.9263 46.4494C18.8268 46.3788 18.7674 46.2698 18.7481 46.1224C18.3186 46.3437 17.8558 46.4893 17.3598 46.559C16.8631 46.621 16.381 46.5683 15.9135 46.4007ZM15.7989 43.859C15.763 44.0029 15.7326 44.1658 15.7075 44.348C15.6824 44.5302 15.684 44.7025 15.7123 44.8648C15.7405 45.0272 15.8029 45.1751 15.8994 45.3087C15.9954 45.4345 16.1428 45.5171 16.3418 45.5565C16.7487 45.6504 17.1486 45.6547 17.5417 45.5694C17.9425 45.4835 18.3094 45.314 18.6424 45.061C18.644 44.6769 18.6387 44.3051 18.6265 43.9456C18.6221 43.5855 18.6019 43.2227 18.5657 42.8572C18.4267 42.7818 18.2846 42.7183 18.1396 42.6669C18.0018 42.607 17.8501 42.5718 17.6848 42.5611C17.5194 42.5504 17.3429 42.5484 17.1554 42.5551C16.975 42.5534 16.7998 42.5669 16.6296 42.5958C16.614 42.597 16.5721 42.612 16.5038 42.6408C16.4427 42.6612 16.4085 42.6756 16.4014 42.684C16.3265 42.729 16.2612 42.7967 16.2055 42.8872C16.1151 43.0353 16.0373 43.1941 15.9721 43.3637C15.9063 43.5255 15.8485 43.6906 15.7989 43.859ZM26.9328 44.9477C26.9724 45.0543 26.9659 45.1724 26.9132 45.3018C26.8606 45.4313 26.7728 45.5125 26.65 45.5455C26.2348 45.6482 25.8178 45.6766 25.3989 45.6307C24.9795 45.577 24.5839 45.4274 24.2123 45.1819C23.8485 44.9359 23.5762 44.6083 23.3957 44.1991C23.2223 43.7816 23.1657 43.355 23.226 42.9193C23.2821 42.531 23.4356 42.1861 23.6865 41.8846C23.9374 41.583 24.2321 41.3408 24.5706 41.1579C24.8707 40.9858 25.1887 40.8436 25.5248 40.7313C25.8609 40.6191 26.2015 40.5653 26.5467 40.5699C26.6803 40.5752 26.7933 40.6174 26.8856 40.6965C26.9851 40.7671 27.04 40.8686 27.0502 41.0011C27.0593 41.1179 27.021 41.2306 26.9354 41.3391C26.8575 41.447 26.7521 41.5021 26.6191 41.5046C26.368 41.5006 26.1236 41.5312 25.8857 41.5967C25.6479 41.6621 25.4199 41.7542 25.2019 41.873C25.0743 41.9455 24.947 42.022 24.82 42.1024C24.7008 42.1821 24.5978 42.2685 24.511 42.3614C24.417 42.4627 24.3385 42.5628 24.2757 42.6617C24.2206 42.76 24.1823 42.8727 24.1608 42.9997C24.1393 43.1268 24.1379 43.2601 24.1565 43.3997C24.1752 43.5393 24.2094 43.6777 24.2592 43.8149C24.3162 43.9437 24.3882 44.0635 24.4751 44.1743C24.5614 44.2773 24.6622 44.3635 24.7772 44.4329C25.0158 44.579 25.2699 44.673 25.5396 44.7148C25.8164 44.7482 26.0815 44.7315 26.335 44.6649C26.4578 44.6319 26.5758 44.6384 26.6891 44.6845C26.8024 44.7306 26.8836 44.8183 26.9328 44.9477ZM30.0217 40.2067C30.2685 40.1562 30.5288 40.1282 30.8027 40.1227C31.0759 40.1094 31.3404 40.1359 31.5963 40.2023C31.8516 40.2608 32.0868 40.3641 32.302 40.512C32.5172 40.6598 32.6896 40.862 32.8192 41.1184C32.9115 41.2993 32.9653 41.4871 32.9804 41.6818C33.0026 41.8681 32.9895 42.0533 32.9411 42.2373C32.8999 42.4129 32.8271 42.587 32.723 42.7596C32.626 42.9238 32.5086 43.0779 32.3709 43.2218C32.0739 43.5347 31.7424 43.8072 31.3764 44.0393C31.0104 44.2714 30.6213 44.4582 30.2092 44.5999C30.0336 44.6605 29.85 44.7178 29.6583 44.7718C29.4738 44.8175 29.2841 44.8478 29.0894 44.8629C28.8947 44.878 28.7023 44.8733 28.5124 44.8488C28.3218 44.8166 28.1408 44.7562 27.9694 44.6676C27.8472 44.6065 27.7698 44.5185 27.7374 44.4035C27.6804 44.2747 27.6201 44.154 27.5565 44.0413C27.493 43.9287 27.4291 43.8122 27.3649 43.6918C27.3085 43.5708 27.2599 43.4492 27.2191 43.327C27.1783 43.2048 27.1528 43.0775 27.1425 42.945C27.122 42.6802 27.1572 42.4267 27.2482 42.1846C27.3463 41.9341 27.4858 41.7117 27.6666 41.5175C27.9696 41.1806 28.3281 40.9021 28.742 40.6819C29.156 40.4618 29.5825 40.3034 30.0217 40.2067ZM31.4198 41.1092C31.2034 41.0476 30.9745 41.0262 30.733 41.0449C30.4754 41.057 30.2205 41.1042 29.9683 41.1864C29.7154 41.2608 29.4761 41.3577 29.2503 41.4771C29.0388 41.5797 28.8223 41.7179 28.6007 41.8918C28.3863 42.0573 28.233 42.2533 28.1408 42.4798C28.0875 42.6015 28.0657 42.7246 28.0754 42.8493C28.0922 42.9655 28.1211 43.0847 28.1619 43.2069C28.2099 43.3208 28.266 43.4379 28.3301 43.5583C28.4015 43.6703 28.4651 43.7829 28.5209 43.8961C28.6479 43.9176 28.727 43.9272 28.7582 43.9248C28.7743 43.9313 28.7941 43.9337 28.8175 43.9319C28.8408 43.9301 28.8603 43.9286 28.8759 43.9274C29.0329 43.9309 29.1728 43.9161 29.2956 43.8831C29.3813 43.8765 29.4891 43.8525 29.6191 43.811C29.8186 43.7564 30.0094 43.6907 30.1916 43.6139C30.3731 43.5293 30.5387 43.442 30.6884 43.3521C30.861 43.2525 31.029 43.1455 31.1925 43.031C31.356 42.9164 31.492 42.8001 31.6004 42.682C31.6728 42.6059 31.7411 42.5261 31.8051 42.4428C31.8411 42.4009 31.8659 42.3676 31.8797 42.343C31.9144 42.2855 31.9426 42.2441 31.9641 42.2189C31.9851 42.186 32.0018 42.1494 32.0144 42.1093C32.0413 42.0523 32.0536 42.0083 32.0512 41.9771C32.0577 41.9609 32.0601 41.9412 32.0583 41.9178C32.0643 41.8938 32.0706 41.8737 32.0772 41.8576L32.0672 41.729C32.057 41.6985 32.0513 41.6754 32.0501 41.6598C32.0489 41.6443 32.0438 41.629 32.0348 41.614C32.0072 41.5613 31.9808 41.5242 31.9556 41.5026C31.9376 41.4727 31.9158 41.443 31.89 41.4137C31.8984 41.4208 31.8858 41.4101 31.8522 41.3813C31.8264 41.352 31.8093 41.3337 31.801 41.3265L31.7002 41.2403C31.6595 41.2199 31.6145 41.196 31.5654 41.1685C31.5162 41.1409 31.4677 41.1212 31.4198 41.1092ZM33.5094 38.4908C33.5487 37.9863 33.6883 37.5131 33.9284 37.0714C34.1762 36.629 34.487 36.2406 34.8607 35.9061C35.0727 35.7094 35.3015 35.5781 35.5471 35.512C35.7928 35.446 36.0537 35.4767 36.33 35.6042C36.5416 35.7053 36.7538 35.8143 36.9665 35.931C37.1871 36.0471 37.364 36.2058 37.4971 36.4071C37.5852 36.5334 37.6105 36.6569 37.5728 36.7773C37.5345 36.89 37.4671 36.9814 37.3707 37.0516C37.2737 37.1139 37.1622 37.1422 37.0364 37.1362C36.9184 37.1297 36.8192 37.0629 36.7388 36.936C36.6944 36.8689 36.6354 36.8147 36.5616 36.7734C36.4873 36.7243 36.4175 36.6827 36.3522 36.6486C36.279 36.615 36.1972 36.5704 36.1067 36.5148C36.0162 36.4591 35.9275 36.4268 35.8406 36.4178C35.7687 36.3999 35.6992 36.4131 35.6321 36.4575C35.5644 36.4941 35.498 36.5463 35.4327 36.614C35.3746 36.6733 35.3171 36.7405 35.2602 36.8154C35.2105 36.882 35.1641 36.9404 35.121 36.9908C34.8635 37.3085 34.6741 37.6444 34.5526 37.9986C34.439 38.3522 34.402 38.7351 34.4418 39.1473C34.4713 39.4271 34.5164 39.7057 34.5771 39.9831C34.8017 39.95 35.0264 39.917 35.2511 39.8839C35.4836 39.8502 35.7121 39.8168 35.9368 39.7837C36.068 39.7579 36.1804 39.7923 36.2739 39.8869C36.3752 39.9809 36.4307 40.0903 36.4404 40.2149C36.4506 40.3473 36.4123 40.46 36.3255 40.5529C36.2459 40.6374 36.1401 40.6887 36.0083 40.7068C35.807 40.738 35.6018 40.7696 35.3927 40.8015C35.1914 40.8327 34.9901 40.864 34.7888 40.8953C34.8224 41.0259 34.856 41.1565 34.8896 41.2871C34.9233 41.4177 34.9569 41.5483 34.9905 41.6789C35.1268 42.2247 35.2625 42.7627 35.3976 43.2929C35.5405 43.8225 35.6571 44.3659 35.7472 44.9231C35.7731 45.0543 35.7387 45.1667 35.6441 45.2602C35.55 45.3615 35.4407 45.417 35.3161 45.4267C35.1837 45.4369 35.071 45.3986 34.9781 45.3118C34.8935 45.2322 34.8384 45.1267 34.8125 44.9955C34.7175 44.376 34.5884 43.7709 34.4251 43.1802C34.2612 42.5817 34.1051 41.9826 33.9567 41.3829C33.9363 41.3217 33.9198 41.2603 33.9072 41.1986C33.9024 41.1363 33.8898 41.0746 33.8694 41.0135C33.6447 41.0466 33.4158 41.0761 33.1827 41.1019C32.9575 41.1272 32.728 41.1489 32.4943 41.167C32.3463 41.1785 32.2336 41.1402 32.1563 41.0522C32.0706 40.9569 32.0232 40.8509 32.0141 40.7341C32.0051 40.6172 32.0359 40.5091 32.1065 40.4096C32.1688 40.3029 32.2739 40.2438 32.4219 40.2323C32.8347 40.2004 33.2466 40.1567 33.6577 40.1013C33.5976 39.8317 33.5534 39.5648 33.5251 39.3006C33.4968 39.0364 33.4916 38.7664 33.5094 38.4908ZM36.9098 38.2274C36.9491 37.7228 37.0888 37.2497 37.3288 36.808C37.5766 36.3656 37.8874 35.9772 38.2611 35.6426C38.4731 35.446 38.7019 35.3147 38.9476 35.2486C39.1932 35.1826 39.4542 35.2133 39.7305 35.3408C39.942 35.4419 40.1542 35.5509 40.367 35.6676C40.5875 35.7837 40.7644 35.9424 40.8975 36.1437C40.9857 36.27 41.0109 36.3935 40.9732 36.5139C40.9349 36.6266 40.8676 36.718 40.7711 36.7882C40.6741 36.8505 40.5627 36.8787 40.4368 36.8728C40.3188 36.8663 40.2196 36.7995 40.1392 36.6725C40.0949 36.6055 40.0358 36.5513 39.9621 36.51C39.8878 36.4609 39.8179 36.4193 39.7526 36.3851C39.6795 36.3516 39.5977 36.307 39.5072 36.2514C39.4167 36.1957 39.328 36.1634 39.2411 36.1544C39.1692 36.1365 39.0997 36.1497 39.0326 36.1941C38.9649 36.2307 38.8984 36.2828 38.8331 36.3506C38.775 36.4099 38.7175 36.4771 38.6607 36.552C38.611 36.6185 38.5646 36.677 38.5214 36.7273C38.264 37.0451 38.0745 37.381 37.9531 37.7352C37.8394 38.0888 37.8025 38.4717 37.8422 38.8839C37.8717 39.1637 37.9168 39.4423 37.9775 39.7197C38.2022 39.6866 38.4268 39.6535 38.6515 39.6205C38.884 39.5868 39.1126 39.5534 39.3372 39.5203C39.4685 39.4945 39.5808 39.5289 39.6743 39.6235C39.7757 39.7175 39.8311 39.8269 39.8408 39.9515C39.8511 40.0839 39.8128 40.1966 39.7259 40.2895C39.6463 40.374 39.5406 40.4253 39.4087 40.4434C39.2074 40.4746 39.0022 40.5062 38.7931 40.5381C38.5918 40.5693 38.3905 40.6006 38.1892 40.6319C38.2228 40.7625 38.2564 40.8931 38.2901 41.0237C38.3237 41.1543 38.3573 41.2849 38.3909 41.4155C38.5273 41.9613 38.663 42.4993 38.7981 43.0295C38.941 43.5591 39.0575 44.1025 39.1477 44.6597C39.1735 44.7909 39.1391 44.9033 39.0445 44.9968C38.9505 45.0981 38.8411 45.1536 38.7165 45.1633C38.5841 45.1735 38.4714 45.1352 38.3785 45.0484C38.294 44.9687 38.2388 44.8633 38.213 44.7321C38.118 44.1126 37.9888 43.5075 37.8255 42.9168C37.6616 42.3183 37.5055 41.7192 37.3572 41.1194C37.3368 41.0583 37.3203 40.9969 37.3076 40.9352C37.3028 40.8729 37.2902 40.8112 37.2698 40.7501C37.0451 40.7832 36.8162 40.8126 36.5832 40.8385C36.3579 40.8638 36.1284 40.8855 35.8947 40.9036C35.7467 40.9151 35.6341 40.8768 35.5567 40.7888C35.471 40.6935 35.4236 40.5875 35.4146 40.4707C35.4055 40.3538 35.4363 40.2457 35.507 40.1462C35.5692 40.0395 35.6743 39.9804 35.8223 39.9689C36.2352 39.9369 36.6471 39.8933 37.0581 39.8379C36.998 39.5683 36.9538 39.3014 36.9255 39.0372C36.8972 38.773 36.892 38.503 36.9098 38.2274ZM40.3007 40.2685C40.433 40.0545 40.5944 39.8618 40.7849 39.6903C40.9831 39.5182 41.1957 39.3803 41.4228 39.2765C41.6492 39.1649 41.887 39.0995 42.1363 39.0802C42.385 39.0531 42.6378 39.0805 42.8949 39.1625C43.1436 39.2372 43.3717 39.3489 43.5791 39.4973C43.7859 39.638 43.9535 39.8288 44.0818 40.0696C44.182 40.2499 44.2483 40.4485 44.2808 40.6654C44.3132 40.8823 44.2702 41.0854 44.1517 41.2748C44.0475 41.4475 43.9131 41.5833 43.7483 41.6822C43.5914 41.7806 43.4171 41.8568 43.2254 41.9108C43.0414 41.9642 42.8482 41.9988 42.6457 42.0145C42.451 42.0295 42.2637 42.0401 42.084 42.0462C41.8808 42.0541 41.6771 42.0542 41.4728 42.0465C41.2763 42.0383 41.0758 42.0303 40.8715 42.0226C40.961 42.3683 41.1097 42.6702 41.3178 42.9283C41.5258 43.1865 41.795 43.3733 42.1252 43.4887C42.2133 43.5133 42.2813 43.5315 42.3292 43.5435C42.3532 43.5494 42.3733 43.5557 42.3895 43.5623C42.4128 43.5605 42.4362 43.5587 42.4596 43.5569C42.5225 43.5598 42.5737 43.5637 42.6133 43.5685C42.66 43.5649 42.7025 43.5576 42.7409 43.5468C42.7948 43.5348 42.8296 43.5282 42.8451 43.527C42.8679 43.5174 42.8907 43.5078 42.9134 43.4982C42.9973 43.4682 43.0692 43.4352 43.1291 43.3992C43.1968 43.3626 43.2746 43.3057 43.3627 43.2283C43.4064 43.1858 43.4642 43.1225 43.536 43.0386C43.6079 42.9547 43.6687 42.8794 43.7184 42.8129C43.7878 42.6978 43.8756 42.6166 43.9816 42.5692C44.0954 42.5212 44.2135 42.5277 44.3357 42.5888C44.4418 42.6432 44.5195 42.7352 44.5687 42.8646C44.625 42.9856 44.6185 43.1036 44.5491 43.2187C44.3467 43.54 44.0982 43.8217 43.8035 44.064C43.516 44.2978 43.1743 44.4379 42.7782 44.4842C42.4601 44.5246 42.1482 44.4939 41.8426 44.3922C41.5363 44.2827 41.2618 44.1276 41.019 43.927C40.7175 43.6761 40.4711 43.3779 40.2797 43.0323C40.0884 42.6866 39.9705 42.3275 39.9259 41.9548C39.8516 41.9057 39.792 41.8437 39.747 41.7688C39.7092 41.6856 39.6909 41.6008 39.692 41.5145C39.701 41.4276 39.7261 41.3473 39.7674 41.2736C39.8081 41.1921 39.8743 41.136 39.9659 41.1054C40.0293 40.8106 40.1409 40.5316 40.3007 40.2685ZM43.1265 40.3317C43.0324 40.2293 42.8925 40.1421 42.7067 40.0703C42.5538 40.0195 42.3762 40.0019 42.1737 40.0176C41.9789 40.0327 41.8142 40.0807 41.6794 40.1617C41.5069 40.2612 41.3566 40.3943 41.2284 40.561C41.0997 40.7198 40.9997 40.896 40.9285 41.0896C41.1173 41.0985 41.306 41.1074 41.4948 41.1163C41.6835 41.1252 41.8717 41.1263 42.0592 41.1196C42.1605 41.1117 42.2617 41.1039 42.363 41.096C42.4642 41.0882 42.5652 41.0765 42.6659 41.0608C42.697 41.0584 42.7243 41.0563 42.7476 41.0545C42.7782 41.0443 42.809 41.038 42.8402 41.0356C42.9091 41.0146 42.9591 41.0028 42.9903 41.0004C43.0286 40.9896 43.0667 40.9749 43.1044 40.9563C43.135 40.9461 43.173 40.9314 43.2185 40.9122C43.2563 40.8936 43.2787 40.8801 43.2859 40.8718C43.2931 40.8634 43.3042 40.8547 43.3192 40.8457L43.3433 40.7027C43.3254 40.6728 43.3116 40.6464 43.302 40.6237C43.2995 40.5925 43.2896 40.5659 43.2723 40.5437C43.2627 40.5209 43.2405 40.4874 43.2057 40.4431C43.1787 40.3981 43.1523 40.361 43.1265 40.3317ZM45.0682 39.8992C45.2005 39.6852 45.3618 39.4925 45.5523 39.321C45.7505 39.1489 45.9632 39.011 46.1902 38.9072C46.4166 38.7956 46.6545 38.7302 46.9037 38.7109C47.1524 38.6838 47.4053 38.7112 47.6624 38.7932C47.9111 38.8679 48.1391 38.9796 48.3465 39.128C48.5533 39.2687 48.7209 39.4595 48.8492 39.7003C48.9494 39.8806 49.0157 40.0792 49.0482 40.2961C49.0807 40.513 49.0376 40.7161 48.9191 40.9055C48.8149 41.0782 48.6805 41.214 48.5158 41.3129C48.3588 41.4113 48.1845 41.4874 47.9928 41.5415C47.8089 41.5949 47.6156 41.6295 47.4131 41.6452C47.2184 41.6602 47.0312 41.6708 46.8514 41.6769C46.6483 41.6848 46.4446 41.6849 46.2402 41.6772C46.0437 41.669 45.8433 41.661 45.6389 41.6533C45.7284 41.999 45.8772 42.3009 46.0852 42.559C46.2933 42.8172 46.5624 43.004 46.8926 43.1194C46.9807 43.144 47.0487 43.1622 47.0967 43.1742C47.1206 43.1801 47.1407 43.1864 47.1569 43.193C47.1803 43.1912 47.2036 43.1894 47.227 43.1876C47.2899 43.1905 47.3412 43.1944 47.3807 43.1992C47.4274 43.1956 47.47 43.1883 47.5083 43.1775C47.5622 43.1655 47.597 43.1589 47.6126 43.1577C47.6353 43.1481 47.6581 43.1385 47.6809 43.1289C47.7647 43.0989 47.8366 43.0659 47.8965 43.0299C47.9642 42.9933 48.0421 42.9364 48.1301 42.859C48.1738 42.8165 48.2316 42.7532 48.3035 42.6693C48.3753 42.5854 48.4361 42.5101 48.4858 42.4436C48.5553 42.3285 48.643 42.2473 48.749 42.1999C48.8628 42.1519 48.9809 42.1584 49.1032 42.2195C49.2092 42.2739 49.2869 42.3659 49.3361 42.4953C49.3925 42.6163 49.386 42.7343 49.3165 42.8494C49.1142 43.1707 48.8656 43.4524 48.571 43.6947C48.2835 43.9285 47.9417 44.0686 47.5457 44.1149C47.2275 44.1553 46.9156 44.1246 46.61 44.0229C46.3037 43.9134 46.0292 43.7583 45.7865 43.5577C45.4849 43.3068 45.2385 43.0086 45.0472 42.663C44.8558 42.3173 44.7379 41.9582 44.6934 41.5855C44.619 41.5364 44.5594 41.4744 44.5144 41.3995C44.4766 41.3163 44.4583 41.2315 44.4594 41.1452C44.4684 41.0583 44.4935 40.978 44.5348 40.9043C44.5755 40.8228 44.6417 40.7667 44.7334 40.7361C44.7967 40.4413 44.9083 40.1623 45.0682 39.8992ZM47.894 39.9624C47.7998 39.86 47.6599 39.7728 47.4741 39.701C47.3213 39.6502 47.1436 39.6326 46.9411 39.6483C46.7464 39.6634 46.5816 39.7114 46.4468 39.7924C46.2743 39.8919 46.124 40.025 45.9959 40.1917C45.8671 40.3505 45.7671 40.5267 45.6959 40.7203C45.8847 40.7292 46.0734 40.7381 46.2622 40.747C46.4509 40.7559 46.6391 40.757 46.8266 40.7503C46.9279 40.7424 47.0292 40.7346 47.1304 40.7267C47.2317 40.7189 47.3326 40.7072 47.4333 40.6915C47.4644 40.6891 47.4917 40.687 47.5151 40.6852C47.5456 40.675 47.5765 40.6687 47.6076 40.6663C47.6765 40.6453 47.7266 40.6335 47.7577 40.6311C47.7961 40.6203 47.8341 40.6056 47.8718 40.587C47.9024 40.5768 47.9404 40.5621 47.986 40.5429C48.0237 40.5243 48.0462 40.5108 48.0533 40.5024C48.0605 40.4941 48.0716 40.4854 48.0866 40.4764L48.1108 40.3334C48.0928 40.3035 48.079 40.2771 48.0694 40.2544C48.067 40.2232 48.0571 40.1966 48.0397 40.1744C48.0301 40.1516 48.0079 40.1181 47.9731 40.0738C47.9461 40.0288 47.9198 39.9917 47.894 39.9624Z" fill="#131E37"/>
<defs>
<filter id="filter0_d_821:736" x="0" y="0" width="62.9009" height="69.4162" filterUnits="userSpaceOnUse" color-interpolation-filters="sRGB">
<feFlood flood-opacity="0" result="BackgroundImageFix"/>
<feColorMatrix in="SourceAlpha" type="matrix" values="0 0 0 0 0 0 0 0 0 0 0 0 0 0 0 0 0 0 127 0" result="hardAlpha"/>
<feOffset dy="4"/>
<feGaussianBlur stdDeviation="2"/>
<feComposite in2="hardAlpha" operator="out"/>
<feColorMatrix type="matrix" values="0 0 0 0 0 0 0 0 0 0 0 0 0 0 0 0 0 0 0.25 0"/>
<feBlend mode="normal" in2="BackgroundImageFix" result="effect1_dropShadow_821:736"/>
<feBlend mode="normal" in="SourceGraphic" in2="effect1_dropShadow_821:736" result="shape"/>
</filter>
<filter id="filter1_dii_821:736" x="33" y="4" width="17.5302" height="17.9144" filterUnits="userSpaceOnUse" color-interpolation-filters="sRGB">
<feFlood flood-opacity="0" result="BackgroundImageFix"/>
<feColorMatrix in="SourceAlpha" type="matrix" values="0 0 0 0 0 0 0 0 0 0 0 0 0 0 0 0 0 0 127 0" result="hardAlpha"/>
<feOffset dx="-1" dy="2"/>
<feGaussianBlur stdDeviation="2"/>
<feComposite in2="hardAlpha" operator="out"/>
<feColorMatrix type="matrix" values="0 0 0 0 0 0 0 0 0 0 0 0 0 0 0 0 0 0 0.25 0"/>
<feBlend mode="normal" in2="BackgroundImageFix" result="effect1_dropShadow_821:736"/>
<feBlend mode="normal" in="SourceGraphic" in2="effect1_dropShadow_821:736" result="shape"/>
<feColorMatrix in="SourceAlpha" type="matrix" values="0 0 0 0 0 0 0 0 0 0 0 0 0 0 0 0 0 0 127 0" result="hardAlpha"/>
<feOffset dy="-1"/>
<feGaussianBlur stdDeviation="0.5"/>
<feComposite in2="hardAlpha" operator="arithmetic" k2="-1" k3="1"/>
<feColorMatrix type="matrix" values="0 0 0 0 1 0 0 0 0 1 0 0 0 0 1 0 0 0 0.37 0"/>
<feBlend mode="normal" in2="shape" result="effect2_innerShadow_821:736"/>
<feColorMatrix in="SourceAlpha" type="matrix" values="0 0 0 0 0 0 0 0 0 0 0 0 0 0 0 0 0 0 127 0" result="hardAlpha"/>
<feOffset dy="4"/>
<feGaussianBlur stdDeviation="2"/>
<feComposite in2="hardAlpha" operator="arithmetic" k2="-1" k3="1"/>
<feColorMatrix type="matrix" values="0 0 0 0 0 0 0 0 0 0 0 0 0 0 0 0 0 0 0.25 0"/>
<feBlend mode="normal" in2="effect2_innerShadow_821:736" result="effect3_innerShadow_821:736"/>
</filter>
</defs>
</svg>
