<svg width="464" height="113" viewBox="0 0 464 113" fill="none" xmlns="http://www.w3.org/2000/svg">
<path opacity="0.2" d="M410.619 113C381.138 113 357.239 105.773 357.239 96.8572C357.239 87.9418 381.138 80.7144 410.619 80.7144C440.101 80.7144 464 87.9418 464 96.8572C464 105.773 440.101 113 410.619 113Z" fill="#14130D"/>
<path d="M412.811 110.518H53.8045C46.5273 110.518 40.5732 104.916 40.5732 98.0681V75.2971C40.5732 68.4496 46.5273 62.8472 53.8045 62.8472H412.814C420.091 62.8472 426.045 68.4496 426.045 75.2971V98.0681C426.042 104.916 420.088 110.518 412.811 110.518Z" fill="#1E241E"/>
<path d="M421.502 66.4326L45.1201 65.4914L82.0803 41.6299H394.338L421.502 66.4326Z" fill="#554233"/>
<path opacity="0.34" d="M334.197 50.3287C334.197 59.4969 260.345 69.539 169.248 69.539C78.1478 69.539 4.29883 59.4969 4.29883 50.3287C4.29883 41.1606 78.1505 33.728 169.248 33.728C260.348 33.728 334.197 41.1606 334.197 50.3287Z" fill="#1E241E"/>
<path d="M329.898 46.2496C329.898 55.4178 256.046 62.8504 164.949 62.8504C73.849 62.8504 0 55.4178 0 46.2496C0 37.0815 73.8516 29.6489 164.949 29.6489C256.049 29.6489 329.898 37.0815 329.898 46.2496Z" fill="#0E0F0E"/>
<path d="M218.095 46.25C218.095 48.1971 194.3 49.7783 164.95 49.7783C135.598 49.7783 111.806 48.1996 111.806 46.25C111.806 44.3003 135.601 42.7217 164.95 42.7217C194.303 42.7217 218.095 44.3003 218.095 46.25Z" fill="#E6E7DA"/>
<path d="M164.949 37.5767C163.819 37.5767 162.893 38.4482 162.893 39.5114V46.2493H167.005V39.5114C167.005 38.4457 166.079 37.5767 164.949 37.5767Z" fill="#A6A49C"/>
<path d="M101.879 87.0132C104.193 87.0132 106.068 85.2485 106.068 83.0716C106.068 80.8946 104.193 79.1299 101.879 79.1299C99.5659 79.1299 97.6904 80.8946 97.6904 83.0716C97.6904 85.2485 99.5659 87.0132 101.879 87.0132Z" fill="#A6CBC5"/>
<path d="M139.588 87.0132C141.902 87.0132 143.777 85.2485 143.777 83.0716C143.777 80.8946 141.902 79.1299 139.588 79.1299C137.275 79.1299 135.399 80.8946 135.399 83.0716C135.399 85.2485 137.275 87.0132 139.588 87.0132Z" fill="#A6CBC5"/>
<path d="M175.534 87.0132C177.847 87.0132 179.723 85.2485 179.723 83.0716C179.723 80.8946 177.847 79.1299 175.534 79.1299C173.22 79.1299 171.345 80.8946 171.345 83.0716C171.345 85.2485 173.22 87.0132 175.534 87.0132Z" fill="#A6CBC5"/>
<path d="M350.189 16.5039L358.975 27.4424L361.029 24.8404L353.164 15.7271C352.174 15.8864 351.182 16.1204 350.189 16.5039Z" fill="#554233"/>
<path d="M349.123 11.043L347.069 12.6142L350.192 16.5035C349.462 16.5035 353.166 15.7292 353.166 15.7292L349.123 11.043Z" fill="#30251E"/>
<path d="M355.374 0H322.957V11.8274H355.374V0Z" fill="#1E241E"/>
<path d="M348.094 11.8271H334.863V48.5544H348.094V11.8271Z" fill="#1E241E"/>
<path d="M427.045 23.812H358.979V27.4424H427.045V23.812Z" fill="#554233"/>
<path d="M427.04 22.5923H410.903V28.6604H427.04V22.5923Z" fill="#554233"/>
<path d="M348.094 11.8271H334.863V14.2325H348.094V11.8271Z" fill="#0E110E"/>
<path d="M410.908 23.812H409.653V27.4424H410.908V23.812Z" fill="#30251E"/>
</svg>
