<svg width="283" height="176" viewBox="0 0 283 176" fill="none" xmlns="http://www.w3.org/2000/svg">
<path d="M40.2095 124.582H275.489C277.215 124.582 278.89 124.668 280.537 124.8C274.412 130.644 270.536 139.424 270.536 149.245C270.536 159.06 274.412 167.835 280.537 173.69C278.89 173.817 277.209 173.903 275.489 173.903H40.2095C23.7703 173.903 8.5932 167.53 8.5932 159.669V138.81C8.5932 130.954 23.7703 124.582 40.2095 124.582Z" fill="white"/>
<path d="M39.2829 122.478H274.563C277.383 122.478 280.124 122.674 282.743 122.995C281.398 124.191 280.147 125.495 278.991 126.874C277.545 126.753 276.07 126.685 274.563 126.685H39.2829C24.4185 126.685 11.3744 132.35 11.3744 138.815V159.675C11.3744 166.139 24.4185 171.799 39.2829 171.799H274.563C276.143 171.799 277.684 171.725 279.186 171.604C280.364 172.977 281.632 174.265 283 175.454C280.303 175.805 277.483 176 274.563 176H39.2829C20.1188 176 3.93643 168.524 3.93643 159.675V138.815C3.93643 129.954 20.1188 122.478 39.2829 122.478Z" fill="#9DA132"/>
<path opacity="0.6" d="M137.944 142.682H117.485L119.908 160.231L137.944 142.682Z" fill="#CECFD1"/>
<path d="M137.944 142.682H117.485V155.801L137.944 142.682Z" fill="#CDCBC4"/>
<path opacity="0.6" d="M278.566 126.868L253.785 131.241C253.785 131.241 34.5645 130.126 26.5348 137.723C20.7442 143.205 19.1417 155.336 22.749 164.375C24.1282 167.845 31.3649 168.903 33.163 171.523C33.163 171.523 19.6107 170.023 13.3734 165.041C9.19104 161.708 11.1009 157.163 11.0283 150.543C10.9892 145.038 9.41461 139.883 12.1731 135.608C14.9315 131.327 22.3525 127.684 36.2453 126.73L278.566 126.868Z" fill="#CECFD1"/>
<path d="M34.0616 70.5479H255.007C256.627 70.5479 258.201 70.634 259.748 70.7662C254.002 76.6103 250.356 85.3907 250.356 95.2113C250.356 105.026 253.997 113.801 259.748 119.656C258.207 119.783 256.627 119.869 255.007 119.869H34.0616C18.622 119.869 4.37164 113.496 4.37164 105.635V84.776C4.37164 76.9207 18.6276 70.5479 34.0616 70.5479Z" fill="white"/>
<path d="M33.1902 68.4385H254.136C256.788 68.4385 259.363 68.6338 261.82 68.9556C260.552 70.1509 259.379 71.4554 258.296 72.8346C256.939 72.7139 255.549 72.6448 254.136 72.6448H33.1902C19.2303 72.6448 6.98477 78.3109 6.98477 84.7756V105.635C6.98477 112.1 19.2303 117.76 33.1902 117.76H254.136C255.627 117.76 257.062 117.685 258.48 117.564C259.58 118.938 260.775 120.225 262.06 121.414C259.524 121.765 256.878 121.96 254.136 121.96H33.1902C15.1931 121.96 -0.000610352 114.484 -0.000610352 105.635V84.7756C-0.000610352 75.9204 15.1931 68.4385 33.1902 68.4385Z" fill="#C10F0F"/>
<path opacity="0.6" d="M125.843 88.6479H106.629L108.912 106.198L125.843 88.6479Z" fill="#CECFD1"/>
<path d="M125.843 88.6479H106.629V101.761L125.843 88.6479Z" fill="#CDCBC4"/>
<path opacity="0.6" d="M255.795 72.6024L232.527 76.9753C232.527 76.9753 26.663 75.8604 19.1191 83.4572C13.6748 88.9392 12.1729 101.07 15.5624 110.109C16.8578 113.58 23.6532 114.637 25.3452 117.258C25.3452 117.258 12.6197 115.758 6.76212 110.776C2.83659 107.443 4.62335 102.897 4.55634 96.2775C4.51726 90.7724 3.04318 85.6179 5.62856 81.3426C8.21951 77.0615 15.1881 73.4183 28.2322 72.4644L255.795 72.6024Z" fill="#CECFD1"/>
<path d="M55.5983 2.7417H256.618C258.091 2.7417 259.526 2.85043 260.925 3.02353C255.708 10.6524 252.382 22.1057 252.382 34.9239C252.382 47.7339 255.704 59.1794 260.925 66.8163C259.526 66.9894 258.091 67.098 256.618 67.098H55.5983C41.5549 67.098 28.582 58.7888 28.582 48.5351V21.3046C28.5779 11.0549 41.5508 2.7417 55.5983 2.7417Z" fill="white"/>
<path d="M54.8073 0H255.827C258.239 0 260.573 0.249596 262.816 0.676331C261.66 2.23431 260.593 3.92514 259.609 5.72467C258.374 5.57572 257.119 5.47908 255.827 5.47908H54.8073C42.1051 5.47908 30.9615 12.8785 30.9615 21.3085V48.539C30.9615 56.9691 42.1051 64.3604 54.8073 64.3604H255.827C257.177 64.3604 258.493 64.2678 259.777 64.1028C260.782 65.8942 261.865 67.577 263.03 69.135C260.724 69.5819 258.313 69.8435 255.823 69.8435H54.8073C38.4343 69.8435 24.6084 60.0851 24.6084 48.5431V21.3126C24.6043 9.75453 38.4343 0 54.8073 0Z" fill="#EBC3A2"/>
<path opacity="0.6" d="M139.101 26.3604H121.621L123.696 49.2671L139.101 26.3604Z" fill="#CECFD1"/>
<path d="M139.101 26.3604H121.621V43.478L139.101 26.3604Z" fill="#29434C"/>
<path opacity="0.6" d="M257.703 4.19899L236.531 9.91567C236.531 9.91567 49.2305 8.45433 42.3769 18.3699C37.4265 25.5237 36.0525 41.3611 39.1368 53.1486C40.3221 57.6857 46.4989 59.0626 48.0369 62.4724C48.0369 62.4724 36.4627 60.5239 31.1267 54.0182C27.5502 49.6623 29.1744 43.7324 29.1252 35.1011C29.0883 27.907 27.743 21.1838 30.1013 15.6C32.4597 10.0163 38.8046 5.26985 50.6619 4.02588L257.703 4.19899Z" fill="#CECFD1"/>
</svg>
