<svg width="598" height="161" viewBox="0 0 598 161" fill="none" xmlns="http://www.w3.org/2000/svg">
<path d="M469.896 25.4617C469.896 25.4617 350.078 -4.5998 320.429 7.20492C290.781 19.0141 269.922 58.6467 280.967 83.3912C292.017 108.14 361.111 100.667 361.111 100.667C361.111 100.667 367.119 21.3092 469.896 25.4617Z" fill="#E8E7E7"/>
<path d="M361.115 100.667L82.2021 104.86L82.574 131.671L361.487 127.479L361.115 100.667Z" fill="#E8E7E7"/>
<path d="M569.277 38.7426C569.277 38.7426 467.583 26.6574 438.788 30.9346C413.754 34.6507 380.789 52.4839 377.045 73.5616C376.06 79.1041 369.456 78.3684 367.081 83.1504C357.463 102.526 364.043 26.6197 435.891 24.2582C484.03 22.6773 554.475 39.2419 569.277 38.7426Z" fill="#5E80AB"/>
<path d="M82.2022 104.86L1.08252 87.6025L1.41895 111.86L82.5742 131.675L82.2022 104.86Z" fill="#E8E7E7"/>
<path d="M1.08252 87.6025L280.967 83.3955L361.115 100.667L82.2022 104.86L1.08252 87.6025Z" fill="#5E80AB"/>
<path d="M408.118 76.2513C408.118 76.2513 477.89 112.512 490.283 121.064C502.676 129.616 597.719 151.745 597.719 151.745C597.719 151.745 535.926 102.674 493.759 89.4352C457.743 78.1308 415.416 67.2517 408.118 76.2513Z" fill="#5E80AB"/>
<path d="M361.487 127.483C361.413 122.13 367.827 79.4688 394.098 77.0647C420.37 74.6605 446.874 76.7714 481.137 85.3695C524.292 96.2004 594.96 147.928 597.723 151.745C601.765 157.328 536.559 83.3844 455.393 70.8968C380.167 59.3245 364.324 78.1551 360.991 91.4307C357.65 104.706 361.487 127.483 361.487 127.483Z" fill="#E8E7E7"/>
</svg>
