<svg width="196" height="205" viewBox="0 0 196 205" fill="none" xmlns="http://www.w3.org/2000/svg">
<path opacity="0.2" d="M126.137 205C97.0546 205 73.4791 201.944 73.4791 198.174C73.4791 194.404 97.0546 191.348 126.137 191.348C155.218 191.348 178.794 194.404 178.794 198.174C178.794 201.944 155.218 205 126.137 205Z" fill="#14130D"/>
<path d="M50.1016 114.882L105.272 117.829V195.954H69.8478L50.1016 114.882Z" fill="#86281B"/>
<path d="M160.258 115.754L105.273 117.83V195.955H140.694L160.258 115.754Z" fill="#86281B"/>
<path d="M165.288 108.457C165.288 108.457 161.137 117.251 154.913 120.412C148.685 123.573 133.374 125.178 105.262 125.328C76.5269 125.483 61.839 123.396 55.7727 121.115C49.7064 118.834 44.9178 107.776 44.9178 107.776C85.0401 112.53 125.162 110.135 165.288 108.457Z" fill="#6E2719"/>
<path d="M52.6894 83.0112C63.1523 84.726 83.1259 85.8851 106.057 85.8851C128.072 85.8851 147.363 84.818 158.13 83.2136C162.229 84.5309 165.285 89.035 165.285 94.4038V106.021C165.285 112.409 160.976 117.638 155.708 117.638C155.708 117.638 133.676 119.573 105.259 119.573C76.8426 119.573 54.4921 117.638 54.4921 117.638C49.2239 117.638 44.9149 112.409 44.9149 106.021V94.4038C44.9149 88.7664 48.2788 84.0416 52.6894 83.0112Z" fill="#86281B"/>
<path d="M52.3808 83.232C52.9654 83.0959 53.5675 83.0112 54.1871 83.0112H155.403C156.243 83.0112 157.048 83.1878 157.825 83.4381C147.058 85.0424 127.767 86.1095 105.752 86.1095C82.8173 86.1095 62.8437 84.9468 52.3808 83.232Z" fill="#422D00"/>
<path d="M105.274 198.084C85.694 198.084 69.8212 197.131 69.8212 195.954C69.8212 194.777 85.694 193.823 105.274 193.823C124.854 193.823 140.727 194.777 140.727 195.954C140.727 197.131 124.854 198.084 105.274 198.084Z" fill="#86281B"/>
<path opacity="0.25" d="M101.592 81.8075C100.835 80.6116 108.802 70.919 130.502 61.8484C130.551 61.8263 130.607 61.8005 130.656 61.7784C142.295 56.8696 158.11 45.4108 172.682 57.5762C187.318 69.793 197.83 82.4698 185.809 92.9019C173.852 103.279 144.759 96.8614 136.299 92.2837C136.253 92.258 136.19 92.2323 136.144 92.2102C127.866 87.6252 107.042 83.007 102.589 84.5084C98.1365 85.9987 101.592 81.8075 101.592 81.8075Z" fill="#262514"/>
<path opacity="0.25" d="M14.4265 98.351C23.1777 90.0715 47.9714 80.872 60.223 78.5943C61.9523 78.2741 64.0561 78.0791 66.3559 77.9688C80.3752 77.2806 102.519 79.9522 102.519 79.9522C109.52 87.3117 98.1435 84.8572 94.6431 88.8608C92.9699 90.7706 82.64 96.7355 71.2916 103.149C58.8859 110.163 45.2586 117.725 40.386 121.136C31.0502 127.671 1.29633 130.24 0.130684 124.234C-1.03497 118.225 5.67535 106.63 14.4265 98.351Z" fill="#262514"/>
<path d="M43.7125 88.8867C46.4603 80.2208 59.9756 78.3295 69.0557 70.808C72.3952 70.6461 76.1967 70.6756 80.0507 70.8117C78.3774 75.7721 74.4394 79.312 77.2468 85.2106C79.6446 87.7313 82.459 88.9419 85.3994 89.4608C81.9585 91.4699 78.0449 93.6999 73.9984 95.9887C59.657 93.5822 33.5086 110.343 43.7125 88.8867Z" fill="#8B8E30"/>
<path d="M17.1204 91.1942C25.8716 82.9148 50.6653 73.7153 62.9169 71.4375C64.6462 71.1174 66.7499 70.9224 69.0497 70.812C59.9695 78.3335 46.4543 80.2248 43.7064 88.8907C33.5026 110.344 59.651 93.5861 73.9854 95.9963C61.5797 103.01 47.9524 110.572 43.0798 113.983C33.744 120.518 3.99024 123.087 2.82458 117.081C1.66244 111.069 8.36926 99.4737 17.1204 91.1942Z" fill="#9DA132"/>
<path d="M80.05 70.812C92.3716 71.2462 105.218 72.7954 105.218 72.7954C112.219 80.1549 100.843 77.7005 97.3423 81.7041C96.2677 82.9331 91.6016 85.8439 85.3952 89.4685C82.4549 88.9459 79.644 87.739 77.2426 85.2183C74.4388 79.3123 78.3733 75.776 80.05 70.812Z" fill="#777A27"/>
<path d="M91.7011 60.7583C95.2015 57.0785 84.7001 49.719 88.2006 46.0392C95.2015 38.6797 109.203 38.6797 116.204 42.3595C119.127 48.501 117.188 57.1815 116.46 64.173C115.788 64.5962 115.175 65.1556 114.591 65.7627C108.048 60.5485 99.2096 66.1196 91.015 66.9807C89.9089 65.1519 89.1317 63.8714 89.0127 63.6948C89.9508 63.0398 90.8505 62.094 91.7011 60.7583Z" fill="#8B8E30"/>
<path d="M114.588 65.7644C114.238 66.1287 113.884 66.4967 113.562 66.9088C108.914 72.8148 107.205 83.3831 107.45 83.534C107.45 83.534 104.003 85.4585 101.391 83.4089C100.583 82.776 94.3133 72.4358 91.0123 66.9861C99.2069 66.1213 107.45 59.7149 114.588 65.7644Z" fill="#777A27"/>
<path d="M116.205 42.3602C109.204 38.6805 95.2021 38.6805 88.2012 46.04C84.7007 49.7198 95.2021 57.0793 91.7016 60.7591C90.8545 62.0948 89.9514 63.0406 89.0133 63.6955C84.6447 57.3185 80.4862 50.3417 78.4909 44.2811C73.2402 28.3367 79.0754 14.2284 91.033 8.40338C102.994 2.57831 133.329 -3.86129 135.664 2.88373C137.999 9.62874 140.33 27.1075 135.664 44.5864C132.195 57.5834 122.282 61.4214 116.46 64.1775C117.188 57.1823 119.124 48.5018 116.205 42.3602Z" fill="#9DA132"/>
<path d="M160.278 71.9202C160.229 58.3456 141.939 64.7999 135.614 56.0973C147.253 51.1885 163.068 39.7297 177.64 51.895C192.276 64.1118 202.788 76.7885 190.767 87.2207C178.81 97.5976 149.717 91.1801 141.257 86.6025C141.194 85.8334 141.295 85.1159 141.649 84.4904C147.568 79.1106 157.747 76.3948 160.278 71.9202Z" fill="#9DA132"/>
<path d="M120.486 63.6664C124.501 61.2451 129.433 58.684 135.457 56.167C135.506 56.1449 135.562 56.1192 135.611 56.0972C141.937 64.7998 160.226 58.3455 160.275 71.9201C157.745 76.391 147.565 79.1104 141.642 84.4866C141.289 85.1121 141.187 85.8297 141.25 86.5988C141.205 86.573 141.142 86.5471 141.096 86.5214C138.552 85.112 134.817 83.7027 130.742 82.4663C130.648 82.4369 130.546 82.4111 130.452 82.3816C132.408 73.3699 129.083 67.1327 120.486 63.6664Z" fill="#8B8E30"/>
<path d="M106.545 76.1263C105.999 75.2615 110.039 69.9589 120.484 63.6665C129.078 67.1328 132.407 73.37 130.45 82.3818C121.328 79.644 110.592 77.7932 107.543 78.8198C103.094 80.3212 106.545 76.1263 106.545 76.1263Z" fill="#777A27"/>
<path opacity="0.25" d="M70.6179 108.595C72.4906 103.098 74.8534 98.9726 77.5278 95.7344C84.8402 86.8809 94.5295 84.9047 103.291 81.3022C103.291 81.3022 114.489 82.3694 122.988 85.3316C126.597 86.5901 129.73 88.1835 131.295 90.1963C136.545 96.9413 143.546 108.595 138.586 123.929C133.626 139.262 119.918 148.178 114.083 151.244C108.248 154.309 94.54 144.123 86.37 136.786C78.2034 129.448 67.0089 119.186 70.6179 108.595Z" fill="#262514"/>
<path d="M101.748 96.2546C97.897 94.2307 94.0466 91.0772 90.1996 87.4379C96.0769 83.6477 102.602 81.8814 108.689 79.3755C108.689 79.3755 115.634 80.0415 122.736 81.771C122.582 96.284 108.71 99.9123 101.748 96.2546Z" fill="#777A27"/>
<path d="M90.2005 87.4384C94.051 91.074 97.9014 94.2312 101.748 96.2551C108.711 99.9128 122.58 96.2845 122.737 81.7715C124.652 82.2388 126.581 82.7761 128.387 83.4053C129.71 85.8523 129.752 89.1457 129.752 91.2579C136.753 105.977 126.252 117.016 112.25 120.696C89.1432 124.166 94.0334 108.005 82.9265 93.808C85.1563 91.1107 87.6241 89.1016 90.2005 87.4384Z" fill="#8B8E30"/>
<path d="M76.0192 106.668C77.892 101.17 80.2548 97.0452 82.9292 93.807C94.0361 108.004 89.1459 124.165 112.252 120.695C126.254 117.015 136.756 105.976 129.755 91.2569C129.755 89.1447 129.709 85.855 128.39 83.4043C131.999 84.6628 135.131 86.2561 136.696 88.2689C141.947 95.0139 148.948 106.668 143.988 122.001C139.028 137.335 125.32 146.251 119.484 149.316C113.649 152.381 99.9414 142.196 91.7713 134.858C83.6048 127.521 72.4103 117.258 76.0192 106.668Z" fill="#9DA132"/>
</svg>
