<svg width="1096" height="621" viewBox="0 0 1096 621" fill="none" xmlns="http://www.w3.org/2000/svg">
<path d="M733.29 592.74L714.704 576.482V16.418L733.29 0.169434V592.74Z" fill="#F2EBDF"/>
<path d="M299.4 592.735L315.495 576.478V16.4131L299.4 0.164551V592.735Z" fill="#B5B5B5"/>
<path opacity="0.1" d="M755.142 621H341.705L301.248 588.899L301.27 0.169125L725.498 0L755.142 28.7854V621Z" fill="#050304"/>
<path d="M733.29 0.168945H299.4V592.74H733.29V0.168945Z" fill="#F5F7F7"/>
<path d="M714.618 16.4175H315.898V576.487H714.618V16.4175Z" fill="#D3D9D7"/>
<path d="M315.495 576.478L299.4 592.624V0.168945L314.27 16.4175L315.495 576.478Z" fill="white"/>
<path d="M1084.07 327.898L1073.92 319.02V13.1549L1084.07 4.28076V327.898Z" fill="#F2EBDF"/>
<path d="M847.109 327.895L855.895 319.016V13.1515L847.109 4.27734V327.895Z" fill="#B5B5B5"/>
<path opacity="0.1" d="M1096 343.333H870.209L848.116 325.798L848.129 4.28094L1079.81 4.1875L1096 19.9064V343.333Z" fill="#050304"/>
<path d="M1084.07 4.28174H847.109V327.899H1084.07V4.28174Z" fill="#F5F7F7"/>
<path d="M1073.87 13.1558H856.118V319.025H1073.87V13.1558Z" fill="#D3D9D7"/>
<path d="M855.895 319.016L847.109 327.837V4.28174L855.228 13.1559L855.895 319.016Z" fill="white"/>
<path d="M168.693 246.936L161.469 240.616V22.8655L168.693 16.5459V246.936Z" fill="#F2EBDF"/>
<path d="M0 246.938L6.25812 240.618V22.863L0 16.5479V246.938Z" fill="#B5B5B5"/>
<path opacity="0.1" d="M177.193 257.925H16.4489L0.720703 245.446L0.725072 16.5472L165.665 16.4805L177.193 27.6733V257.925Z" fill="#050304"/>
<path d="M168.698 16.5479H0V246.938H168.698V16.5479Z" fill="#F5F7F7"/>
<path d="M161.438 22.8667H6.41504V240.622H161.438V22.8667Z" fill="#D3D9D7"/>
<path d="M6.25812 240.618L0 246.893V16.5479L5.77949 22.8675L6.25812 240.618Z" fill="white"/>
<path d="M168.693 584.912L161.469 578.592V360.837L168.693 354.522V584.912Z" fill="#F2EBDF"/>
<path d="M0 584.912L6.25812 578.588V360.837L0 354.518V584.912Z" fill="#B5B5B5"/>
<path opacity="0.1" d="M177.193 595.899H16.4489L0.720703 583.416L0.725072 354.521L165.665 354.455L177.193 365.647V595.899Z" fill="#050304"/>
<path d="M168.698 354.522H0V584.912H168.698V354.522Z" fill="#F5F7F7"/>
<path d="M161.438 360.837H6.41504V578.592H161.438V360.837Z" fill="#D3D9D7"/>
<path d="M6.25812 578.588L0 584.868V354.522L5.77949 360.837L6.25812 578.588Z" fill="white"/>
<path d="M505.992 136.501L416.066 291.412C414.718 293.735 415.598 295.489 418.046 294.383C436.114 286.219 505.321 236.674 541.614 209.98C551.53 195.498 549.878 182.904 547.812 178.417C531.099 146.064 517.917 136.485 511.097 134.161C509.072 133.472 507.066 134.651 505.992 136.501Z" fill="#B9BABA"/>
<path d="M364.199 379.376C358.79 388.492 366.453 394.316 370.961 396.089C374.643 396.089 529.627 365.82 609.011 350.224C610.654 349.901 613.752 348.981 614.812 347.685C616.909 345.121 612.202 344.566 608.921 344.109C463.008 323.792 440.777 318.252 411.11 320.881C393.867 324.223 372.652 361.27 364.199 379.376Z" fill="#B9BABA"/>
<path d="M520.569 262.765C507.721 280.694 520.85 293.532 529.021 297.71L653.271 340.252C663.752 340.556 662.71 331.516 660.878 326.958C657.497 322.096 599.739 246.947 571.283 209.98L520.569 262.765Z" fill="#B9BABA"/>
<path d="M46.7386 498.38C46.048 498.922 45.308 498.996 44.5186 498.602C43.7786 498.207 43.4086 497.59 43.4086 496.752V493.792C43.4086 491.029 44.5186 488.784 46.7386 487.058L54.6566 480.99C56.8766 479.312 59.3926 478.474 62.2046 478.474H64.4246C65.5593 478.474 66.5213 478.893 67.3106 479.732C68.1493 480.57 68.5686 481.557 68.5686 482.692V528.276C68.5686 529.41 68.1493 530.397 67.3106 531.236C66.5213 532.074 65.5593 532.494 64.4246 532.494H62.2046C61.07 532.494 60.0833 532.074 59.2446 531.236C58.406 530.397 57.9866 529.41 57.9866 528.276V489.87L57.9126 489.796L57.8386 489.87L46.7386 498.38ZM108.577 490.24C106.899 487.28 104.334 485.8 100.881 485.8C97.4273 485.8 94.8619 487.28 93.1846 490.24C91.5073 493.2 90.6686 498.281 90.6686 505.484C90.6686 512.686 91.5073 517.768 93.1846 520.728C94.8619 523.688 97.4273 525.168 100.881 525.168C104.334 525.168 106.899 523.688 108.577 520.728C110.254 517.768 111.093 512.686 111.093 505.484C111.093 498.281 110.254 493.2 108.577 490.24ZM116.421 526.648C113.017 531.038 107.837 533.234 100.881 533.234C93.9246 533.234 88.7199 531.038 85.2666 526.648C81.8626 522.257 80.1606 515.202 80.1606 505.484C80.1606 495.765 81.8626 488.71 85.2666 484.32C88.7199 479.929 93.9246 477.734 100.881 477.734C107.837 477.734 113.017 479.929 116.421 484.32C119.874 488.71 121.601 495.765 121.601 505.484C121.601 515.202 119.874 522.257 116.421 526.648Z" fill="#C6C6C6"/>
<path d="M925.655 220C923.309 220 921.269 219.133 919.535 217.399C917.903 215.665 917.087 213.625 917.087 211.279V117.031C917.087 114.685 917.903 112.645 919.535 110.911C921.269 109.177 923.309 108.31 925.655 108.31H930.551C932.897 108.31 934.937 109.177 936.671 110.911C938.405 112.645 939.272 114.685 939.272 117.031V200.875C939.272 201.793 939.68 202.252 940.496 202.252H979.817C982.163 202.252 984.152 203.119 985.784 204.853C987.518 206.485 988.385 208.474 988.385 210.82V211.279C988.385 213.625 987.518 215.665 985.784 217.399C984.152 219.133 982.163 220 979.817 220H925.655ZM962.166 220C959.82 220 957.78 219.133 956.046 217.399C954.414 215.665 953.598 213.625 953.598 211.279V117.031C953.598 114.685 954.414 112.645 956.046 110.911C957.78 109.177 959.82 108.31 962.166 108.31H967.062C969.408 108.31 971.448 109.177 973.182 110.911C974.916 112.645 975.783 114.685 975.783 117.031V200.875C975.783 201.793 976.191 202.252 977.007 202.252H1016.33C1018.67 202.252 1020.66 203.119 1022.29 204.853C1024.03 206.485 1024.9 208.474 1024.9 210.82V211.279C1024.9 213.625 1024.03 215.665 1022.29 217.399C1020.66 219.133 1018.67 220 1016.33 220H962.166Z" fill="#C6C6C6"/>
<path d="M27.925 136.602L105.944 194.763C106.567 195.228 107.458 194.835 107.536 194.062L109.542 174.104C109.576 173.769 109.439 173.439 109.177 173.227L64.0304 136.586C63.5305 136.181 63.5387 135.415 64.0472 135.02L111.184 98.4139C111.561 98.1209 111.678 97.6019 111.464 97.1751L103.417 81.1639C103.139 80.6114 102.432 80.4408 101.933 80.8062L27.9318 134.993C27.3891 135.39 27.3857 136.199 27.925 136.602Z" fill="#C4C4C4" stroke="#C4C4C4" stroke-width="2" stroke-linejoin="round"/>
<path d="M71.6358 419.033C69.9584 416.073 67.3931 414.593 63.9398 414.593C60.4864 414.593 57.9211 416.073 56.2438 419.033C54.5664 421.993 53.7278 427.074 53.7278 434.277C53.7278 441.479 54.5664 446.561 56.2438 449.521C57.9211 452.481 60.4864 453.961 63.9398 453.961C67.3931 453.961 69.9584 452.481 71.6358 449.521C73.3131 446.561 74.1518 441.479 74.1518 434.277C74.1518 427.074 73.3131 421.993 71.6358 419.033ZM79.4798 455.441C76.0758 459.831 70.8958 462.027 63.9398 462.027C56.9838 462.027 51.7791 459.831 48.3258 455.441C44.9218 451.05 43.2198 443.995 43.2198 434.277C43.2198 424.558 44.9218 417.503 48.3258 413.113C51.7791 408.722 56.9838 406.527 63.9398 406.527C70.8958 406.527 76.0758 408.722 79.4798 413.113C82.9331 417.503 84.6598 424.558 84.6598 434.277C84.6598 443.995 82.9331 451.05 79.4798 455.441ZM92.6258 427.173C91.9351 427.715 91.1951 427.789 90.4058 427.395C89.6658 427 89.2958 426.383 89.2958 425.545V422.585C89.2958 419.822 90.4058 417.577 92.6258 415.851L100.544 409.783C102.764 408.105 105.28 407.267 108.092 407.267H110.312C111.446 407.267 112.408 407.686 113.198 408.525C114.036 409.363 114.456 410.35 114.456 411.485V457.069C114.456 458.203 114.036 459.19 113.198 460.029C112.408 460.867 111.446 461.287 110.312 461.287H108.092C106.957 461.287 105.97 460.867 105.132 460.029C104.293 459.19 103.874 458.203 103.874 457.069V418.663L103.8 418.589L103.726 418.663L92.6258 427.173Z" fill="#C6C6C6"/>
</svg>
