<svg width="172" height="31" viewBox="0 0 172 31" fill="none" xmlns="http://www.w3.org/2000/svg">
<g filter="url(#filter0_d_805_393)">
<path d="M11.489 7.39118C10.761 7.63721 9.93486 7.91616 8.86415 7.91616C8.41625 7.91546 7.9705 7.86695 7.53906 7.77195L8.27959 13.7742C8.3058 14.025 8.45057 14.259 8.68514 14.4295C8.9197 14.6 9.22692 14.6945 9.54578 14.6945C9.54578 14.6945 10.5958 14.7376 10.9461 14.7376C11.3232 14.7376 12.4539 14.6945 12.4539 14.6945C12.7727 14.6945 13.0798 14.5998 13.3144 14.4293C13.5489 14.2588 13.6936 14.025 13.7198 13.7742L14.513 7.14148C14.1585 7.04592 13.8008 6.98242 13.3975 6.98242C12.7001 6.98221 12.1382 7.17184 11.489 7.39118Z" fill="#FFDD00"/>
<path d="M17.9376 4.27644L17.826 3.83239C17.726 3.43396 17.4989 3.0575 16.9808 2.9135C16.8148 2.86742 16.6264 2.84763 16.499 2.75227C16.3717 2.65692 16.3341 2.50883 16.3046 2.3715C16.2501 2.11944 16.1989 1.86717 16.143 1.61555C16.0947 1.39922 16.0565 1.1562 15.9308 0.957746C15.7672 0.691269 15.4278 0.535428 15.0902 0.432324C14.9173 0.381352 14.7408 0.338232 14.5616 0.303176C13.7183 0.127533 12.8316 0.0629587 11.964 0.0261513C10.9227 -0.0192121 9.87857 -0.00554474 8.8397 0.0670483C8.06646 0.122582 7.25204 0.18974 6.51725 0.400899C6.2487 0.478173 5.97195 0.570944 5.76774 0.734749C5.51717 0.936006 5.43537 1.24725 5.61831 1.49823C5.74838 1.67646 5.96868 1.80238 6.20235 1.88568C6.5067 1.99302 6.82455 2.07469 7.15063 2.12935C8.05855 2.28777 8.99893 2.34997 9.92649 2.37645C10.9546 2.4092 11.9843 2.38266 13.0075 2.29701C13.2605 2.27506 13.5131 2.24873 13.7652 2.21803C14.0621 2.18208 14.2527 1.87556 14.1651 1.66203C14.0604 1.40676 13.7791 1.30774 13.4609 1.34627C13.414 1.35208 13.3674 1.35746 13.3205 1.36284L13.2867 1.36672C13.1789 1.37749 13.0711 1.38752 12.9633 1.39685C12.7406 1.41579 12.5174 1.43129 12.2937 1.44335C11.7925 1.4709 11.29 1.48359 10.7878 1.48424C10.2943 1.48424 9.80053 1.47326 9.30812 1.44765C9.08345 1.43603 8.85933 1.42125 8.63576 1.40331C8.53406 1.39491 8.43263 1.38609 8.33122 1.37618L8.23468 1.3665L8.2137 1.36414L8.11363 1.35273C7.90914 1.3284 7.70465 1.30043 7.50235 1.26662C7.48194 1.26305 7.46367 1.25409 7.45058 1.24121C7.43749 1.22833 7.43036 1.21232 7.43036 1.19581C7.43036 1.1793 7.43749 1.16329 7.45058 1.15041C7.46367 1.13754 7.48194 1.12857 7.50235 1.12499H7.50617C7.68148 1.0955 7.85815 1.07032 8.03537 1.04836C8.09446 1.04105 8.15371 1.03387 8.21315 1.02684H8.21478C8.32575 1.02103 8.43727 1.00531 8.54769 0.994983C9.50842 0.916091 10.4749 0.889194 11.4403 0.91448C11.9089 0.925244 12.3774 0.946983 12.8439 0.984436C12.9442 0.992616 13.044 1.00123 13.1438 1.01091C13.182 1.01457 13.2204 1.01888 13.2589 1.02254L13.3363 1.03136C13.562 1.05791 13.7866 1.09012 14.01 1.12801C14.341 1.18483 14.7661 1.20334 14.9133 1.48962C14.9602 1.58046 14.9815 1.68141 15.0074 1.77676L15.0403 1.89838C15.0412 1.90056 15.0419 1.9028 15.0423 1.90505C15.1202 2.19205 15.1983 2.47904 15.2765 2.76604C15.2822 2.78725 15.2823 2.80915 15.2769 2.83039C15.2714 2.85165 15.2604 2.87176 15.2447 2.88953C15.2289 2.90728 15.2087 2.92228 15.1853 2.93359C15.1618 2.94489 15.1357 2.95226 15.1085 2.95525H15.1063L15.0586 2.96042L15.0115 2.96536C14.862 2.98072 14.7124 2.99507 14.5627 3.00842C14.2677 3.03496 13.9722 3.05792 13.6763 3.0773C13.0883 3.11589 12.4991 3.14122 11.9087 3.15328C11.6079 3.15959 11.3071 3.16254 11.0065 3.1621C9.8098 3.16136 8.61416 3.10645 7.42546 2.99765C7.29676 2.9856 7.16808 2.97268 7.03938 2.95956C7.13917 2.96968 6.96685 2.9518 6.93196 2.94793C6.85016 2.93889 6.76836 2.9295 6.68657 2.91974C6.412 2.88722 6.13909 2.84719 5.86507 2.8121C5.5338 2.76906 5.21698 2.79059 4.91733 2.91974C4.67137 3.026 4.4723 3.18893 4.34667 3.38683C4.21743 3.59777 4.17899 3.82743 4.12119 4.0541C4.06339 4.28075 3.97341 4.52463 4.00749 4.75731C4.08083 5.25949 4.52553 5.66759 5.16517 5.75886C5.76692 5.84495 6.37193 5.9147 6.97857 5.97411C9.36164 6.20452 11.7692 6.23208 14.1597 6.05633C14.3544 6.04198 14.5488 6.02635 14.7429 6.00941C14.8035 6.00415 14.8649 6.00966 14.9225 6.02555C14.9801 6.04143 15.0324 6.06729 15.0757 6.10122C15.119 6.13514 15.1521 6.17629 15.1726 6.22162C15.1932 6.26697 15.2006 6.31537 15.1944 6.36327L15.1339 6.82778C15.0119 7.7664 14.8899 8.70496 14.768 9.64344C14.6407 10.629 14.5127 11.6145 14.3838 12.5998C14.3475 12.8774 14.3111 13.1549 14.2748 13.4322C14.2398 13.7054 14.2349 13.9872 14.1692 14.2571C14.0656 14.6816 13.7016 14.9423 13.1705 15.0376C12.6839 15.125 12.1868 15.1709 11.6878 15.1744C11.1346 15.1768 10.5817 15.1574 10.0285 15.1598C9.43789 15.1624 8.71456 15.1194 8.25869 14.7724C7.85815 14.4676 7.8028 13.9904 7.74828 13.5777C7.67557 13.0314 7.60351 12.4852 7.53206 11.9391L7.13127 8.90212L6.87198 6.93713C6.86761 6.90463 6.86325 6.87256 6.85916 6.83983C6.82807 6.60543 6.61786 6.37598 6.28658 6.38782C6.00304 6.39771 5.68076 6.588 5.71402 6.83983L5.90623 8.29664L6.30376 11.3101C6.41701 12.1661 6.52998 13.0221 6.64267 13.8784C6.66449 14.0424 6.68493 14.2069 6.70783 14.3709C6.83244 15.2673 7.69947 15.7503 8.77317 15.8863C9.40028 15.9659 10.0426 15.9823 10.679 15.9905C11.4948 16.0008 12.3187 16.0256 13.1212 15.9089C14.3102 15.7366 15.2023 15.1099 15.3296 14.1376C15.366 13.8569 15.4023 13.5762 15.4387 13.2954C15.5596 12.3666 15.6803 11.4378 15.8008 10.509L16.195 7.47396L16.3758 6.08303C16.3848 6.01405 16.4217 5.9492 16.481 5.89807C16.5403 5.84694 16.6189 5.81224 16.7052 5.79911C17.0452 5.7468 17.3702 5.65747 17.612 5.4532C17.997 5.12797 18.0736 4.70393 17.9376 4.27644ZM5.14772 4.5765C5.1529 4.57456 5.14336 4.60964 5.13927 4.626C5.13845 4.60125 5.14009 4.57929 5.14772 4.5765ZM5.18071 4.77797C5.18344 4.77646 5.19162 4.78508 5.20007 4.79541C5.18726 4.78593 5.17908 4.77884 5.18044 4.77797H5.18071ZM5.21316 4.81176C5.22488 4.82747 5.23115 4.83738 5.21316 4.81176V4.81176ZM5.27832 4.85352H5.27996C5.27996 4.85503 5.28296 4.85653 5.28405 4.85805C5.28224 4.85638 5.28023 4.85487 5.27805 4.85352H5.27832ZM16.6894 4.7911C16.5672 4.88279 16.3832 4.92541 16.2013 4.94673C14.1619 5.18565 12.0927 5.30662 10.0309 5.25324C8.55532 5.21343 7.09528 5.08405 5.63441 4.92111C5.49126 4.90518 5.33612 4.88452 5.2377 4.80122C5.05229 4.64408 5.14336 4.32767 5.19162 4.13782C5.23579 3.9639 5.32031 3.73208 5.58233 3.70733C5.99131 3.66945 6.46626 3.80569 6.87089 3.85413C7.35802 3.91281 7.84698 3.95981 8.33774 3.99511C10.4323 4.14579 12.562 4.12232 14.6472 3.90192C15.0273 3.86158 15.406 3.81474 15.7833 3.76136C16.1195 3.71378 16.4922 3.62446 16.6954 3.89933C16.8347 4.0866 16.8532 4.33714 16.8317 4.54873C16.825 4.64092 16.774 4.72762 16.6891 4.7911H16.6894Z" fill="white"/>
<path d="M162 6L167 11M167 6L162 11" stroke="white" stroke-width="1.4" stroke-linecap="round" stroke-linejoin="round"/>
<path d="M34.8952 10.2109C34.8952 10.8906 34.7234 11.4297 34.3796 11.8281C34.0437 12.2266 33.6218 12.5039 33.114 12.6602C32.9499 12.6992 32.7585 12.7266 32.5398 12.7422C32.321 12.7578 32.1491 12.7656 32.0241 12.7656H29.5398V4.02344H31.8835C32.7116 4.02344 33.3679 4.22656 33.8523 4.63281C34.3366 5.03906 34.5788 5.625 34.5788 6.39062C34.5788 6.84375 34.4734 7.21484 34.2624 7.50391C34.0515 7.78516 33.7898 7.99609 33.4773 8.13672C33.8054 8.24609 34.1218 8.46094 34.4265 8.78125C34.739 9.09375 34.8952 9.57031 34.8952 10.2109ZM30.8054 11.6289H31.8835C31.9773 11.6289 32.1062 11.625 32.2702 11.6172C32.4421 11.6016 32.571 11.5781 32.657 11.5469C32.9929 11.4375 33.2351 11.2656 33.3835 11.0312C33.5398 10.7969 33.6179 10.5234 33.6179 10.2109C33.6179 9.88281 33.5398 9.60547 33.3835 9.37891C33.2351 9.15234 32.9929 8.98438 32.657 8.875C32.571 8.84375 32.4499 8.81641 32.2937 8.79297C32.1374 8.76953 32.0007 8.75781 31.8835 8.75781H30.8054V11.6289ZM33.3132 6.39062C33.3132 6 33.2116 5.71094 33.0085 5.52344C32.8054 5.33594 32.5241 5.22266 32.1648 5.18359C32.0788 5.17578 31.9851 5.17188 31.8835 5.17188C31.7898 5.16406 31.7077 5.16016 31.6374 5.16016H30.8054V7.62109H31.6726C31.7351 7.62109 31.8132 7.62109 31.907 7.62109C32.0085 7.62109 32.0945 7.61719 32.1648 7.60938C32.5085 7.5625 32.7859 7.4375 32.9968 7.23438C33.2077 7.02344 33.3132 6.74219 33.3132 6.39062ZM36.7927 6.53125H38.0466V10.4688C38.0466 10.8906 38.1365 11.2344 38.3162 11.5C38.449 11.6875 38.6755 11.7812 38.9959 11.7812C39.2693 11.7812 39.5271 11.6445 39.7693 11.3711C40.0115 11.0977 40.1873 10.6797 40.2966 10.1172C40.3279 9.97656 40.3474 9.83984 40.3552 9.70703C40.3709 9.57422 40.3787 9.42578 40.3787 9.26172V6.53125H41.6209V12.7656H40.3787V12.1328C40.2459 12.3203 40.0505 12.4961 39.7927 12.6602C39.5349 12.8242 39.2459 12.9062 38.9255 12.9062C38.2615 12.9062 37.7459 12.7266 37.3787 12.3672C36.988 11.9766 36.7927 11.4141 36.7927 10.6797V6.53125ZM47.2918 6.53125H48.5809L45.8152 14.6641H44.5613L45.3582 12.2617L43.1785 6.53125H44.5027L45.9559 10.5391L47.2918 6.53125ZM62.1493 12.7656H60.9423V9.23828C60.9423 9.01172 60.9305 8.78125 60.9071 8.54688C60.8837 8.3125 60.8485 8.13281 60.8016 8.00781C60.7391 7.85156 60.6571 7.74219 60.5555 7.67969C60.4618 7.61719 60.3407 7.58594 60.1923 7.58594C59.9345 7.58594 59.704 7.72656 59.5009 8.00781C59.2977 8.28125 59.161 8.67969 59.0907 9.20312C59.0673 9.375 59.0516 9.52734 59.0438 9.66016C59.036 9.78516 59.0321 9.92578 59.0321 10.082V12.7656H57.8485V9.23828C57.8485 9.01172 57.8368 8.78906 57.8134 8.57031C57.7977 8.34375 57.7626 8.15625 57.7079 8.00781C57.6454 7.85156 57.5634 7.74219 57.4618 7.67969C57.368 7.61719 57.2391 7.58594 57.0751 7.58594C56.8954 7.58594 56.7352 7.64844 56.5946 7.77344C56.454 7.89844 56.3329 8.08984 56.2313 8.34766C56.1376 8.60547 56.0673 8.875 56.0204 9.15625C55.9813 9.4375 55.9579 9.73828 55.9501 10.0586V12.7656H54.7313V6.53125H55.9501V7.10547C56.0673 6.93359 56.2352 6.76953 56.454 6.61328C56.6727 6.45703 56.911 6.37891 57.1688 6.37891C57.6766 6.37891 58.0829 6.52734 58.3876 6.82422C58.5282 6.95703 58.6532 7.13281 58.7626 7.35156C58.8251 7.24219 58.9071 7.125 59.0087 7C59.3212 6.58594 59.7509 6.37891 60.2977 6.37891C60.829 6.37891 61.2704 6.57031 61.622 6.95312C61.9735 7.32812 62.1493 7.90234 62.1493 8.67578V12.7656ZM65.3007 9.03906H67.7499C67.7499 8.60938 67.6796 8.24219 67.539 7.9375C67.453 7.79688 67.3398 7.68359 67.1991 7.59766C67.0585 7.50391 66.8905 7.45703 66.6952 7.45703C66.3046 7.45703 65.9726 7.63672 65.6991 7.99609C65.4882 8.25391 65.3554 8.60156 65.3007 9.03906ZM65.3359 10.1055C65.3593 10.2539 65.3984 10.4023 65.453 10.5508C65.5155 10.7461 65.6132 10.9375 65.746 11.125C65.8866 11.3047 66.0624 11.4688 66.2734 11.6172C66.3437 11.6641 66.457 11.7109 66.6132 11.7578C66.7773 11.7969 66.9687 11.8164 67.1874 11.8164C67.3437 11.8164 67.5507 11.793 67.8085 11.7461C68.0663 11.6992 68.414 11.5508 68.8515 11.3008V12.4023C68.4687 12.6367 68.0898 12.7852 67.7148 12.8477C67.3398 12.9102 66.9648 12.9219 66.5898 12.8828C66.2616 12.8516 65.9335 12.7578 65.6054 12.6016C65.2851 12.4375 65.0234 12.2461 64.8202 12.0273C64.5859 11.7461 64.3866 11.3945 64.2226 10.9727C64.0663 10.5508 63.9882 10.0664 63.9882 9.51953C63.9882 9.06641 64.0468 8.65234 64.164 8.27734C64.2812 7.89453 64.453 7.56641 64.6796 7.29297C64.9062 7.01953 65.1874 6.80078 65.5234 6.63672C65.8593 6.46484 66.2499 6.37891 66.6952 6.37891C67.0624 6.37891 67.4101 6.46094 67.7382 6.625C68.0663 6.78125 68.3241 6.98438 68.5116 7.23438C68.8554 7.6875 69.0273 8.41016 69.0273 9.40234V10.1055H65.3359ZM79.959 12.7656H78.7168V12.2148C78.6152 12.3164 78.4863 12.4219 78.3301 12.5312C78.1348 12.6562 77.9121 12.75 77.6621 12.8125C77.4121 12.8672 77.1191 12.8945 76.7832 12.8945C76.627 12.8945 76.4395 12.8555 76.2207 12.7773C76.0098 12.6992 75.8301 12.5859 75.6816 12.4375C75.5098 12.2891 75.3809 12.1094 75.2949 11.8984C75.209 11.6875 75.166 11.4492 75.166 11.1836C75.166 10.707 75.291 10.293 75.541 9.94141C75.7988 9.58984 76.1113 9.35156 76.4785 9.22656C76.7207 9.14062 76.9746 9.07812 77.2402 9.03906C77.5059 9 77.7285 8.98047 77.9082 8.98047H78.7168V8.57031C78.7168 8.50781 78.7012 8.40625 78.6699 8.26562C78.6465 8.11719 78.5957 7.98438 78.5176 7.86719C78.4473 7.75 78.3379 7.65234 78.1895 7.57422C78.041 7.49609 77.8613 7.45703 77.6504 7.45703C77.3848 7.45703 77.1543 7.53125 76.959 7.67969C76.7715 7.82031 76.6777 8.0625 76.6777 8.40625H75.3066C75.3066 8.0625 75.3496 7.78516 75.4355 7.57422C75.5293 7.35547 75.6777 7.16016 75.8809 6.98828C76.0762 6.80859 76.3262 6.66406 76.6309 6.55469C76.9434 6.4375 77.2832 6.37891 77.6504 6.37891C78.4004 6.37891 78.9707 6.58984 79.3613 7.01172C79.7598 7.43359 79.959 7.9375 79.959 8.52344V12.7656ZM78.7168 10.4219V9.98828C78.6621 9.98828 78.5254 9.99219 78.3066 10C78.0879 10 77.8145 10.0273 77.4863 10.082C77.2207 10.1289 76.9863 10.2266 76.7832 10.375C76.5488 10.5703 76.4316 10.8008 76.4316 11.0664C76.4316 11.3477 76.502 11.5469 76.6426 11.6641C76.791 11.7734 76.9746 11.8281 77.1934 11.8281C77.2793 11.8281 77.4043 11.8086 77.5684 11.7695C77.7324 11.7305 77.877 11.668 78.002 11.582C78.2676 11.4023 78.4707 11.1836 78.6113 10.9258C78.6816 10.8008 78.7168 10.6328 78.7168 10.4219ZM91.3829 8.71094H90.0704C90.0704 8.32812 89.9845 8.02344 89.8126 7.79688C89.6407 7.57031 89.3868 7.45703 89.0509 7.45703C88.6602 7.45703 88.3243 7.63672 88.043 7.99609C87.7696 8.35547 87.6329 8.86719 87.6329 9.53125C87.6329 9.6875 87.6446 9.85547 87.668 10.0352C87.6993 10.207 87.7462 10.3789 87.8087 10.5508C87.8712 10.7539 87.9688 10.9453 88.1016 11.125C88.2423 11.3047 88.418 11.4688 88.629 11.6172C88.6993 11.6641 88.8126 11.7109 88.9688 11.7578C89.1329 11.7969 89.3243 11.8164 89.543 11.8164C89.6993 11.8164 89.9024 11.7969 90.1524 11.7578C90.4024 11.7109 90.754 11.5586 91.2071 11.3008V12.4023C90.8243 12.6367 90.4454 12.7852 90.0704 12.8477C89.6954 12.9102 89.3204 12.9219 88.9454 12.8828C88.6173 12.8516 88.2891 12.7578 87.961 12.6016C87.6407 12.4375 87.379 12.2461 87.1759 12.0273C86.9415 11.7461 86.7423 11.3945 86.5782 10.9727C86.422 10.5508 86.3438 10.0664 86.3438 9.51953C86.3438 9.06641 86.4024 8.65234 86.5196 8.27734C86.6368 7.89453 86.8087 7.56641 87.0352 7.29297C87.2618 7.01172 87.547 6.78906 87.8907 6.625C88.2345 6.46094 88.629 6.37891 89.0743 6.37891C89.3946 6.37891 89.6915 6.42969 89.9649 6.53125C90.2384 6.63281 90.4766 6.77734 90.6798 6.96484C90.8907 7.14453 91.0587 7.36719 91.1837 7.63281C91.3165 7.89844 91.3829 8.25781 91.3829 8.71094ZM97.089 9.64844C97.089 9.34375 97.0538 9.04297 96.9835 8.74609C96.9132 8.44922 96.8116 8.20703 96.6788 8.01953C96.5538 7.81641 96.4015 7.66797 96.2218 7.57422C96.0421 7.48047 95.8585 7.43359 95.671 7.43359C95.4835 7.43359 95.2999 7.48047 95.1202 7.57422C94.9405 7.66797 94.7843 7.81641 94.6515 8.01953C94.5265 8.20703 94.4288 8.44922 94.3585 8.74609C94.2882 9.04297 94.253 9.34375 94.253 9.64844C94.253 9.95312 94.2882 10.2539 94.3585 10.5508C94.4288 10.8398 94.5265 11.0781 94.6515 11.2656C94.7843 11.4688 94.9405 11.6172 95.1202 11.7109C95.2999 11.7969 95.4835 11.8398 95.671 11.8398C95.8585 11.8398 96.0421 11.7969 96.2218 11.7109C96.4015 11.6172 96.5538 11.4688 96.6788 11.2656C96.8116 11.0781 96.9132 10.8398 96.9835 10.5508C97.0538 10.2539 97.089 9.95312 97.089 9.64844ZM98.378 9.64844C98.378 10.0859 98.3155 10.5117 98.1905 10.9258C98.0655 11.332 97.8859 11.6836 97.6515 11.9805C97.4015 12.2773 97.1007 12.5039 96.7491 12.6602C96.4054 12.8164 96.046 12.8945 95.671 12.8945C95.296 12.8945 94.9327 12.8164 94.5812 12.6602C94.2374 12.5039 93.9405 12.2773 93.6905 11.9805C93.4562 11.6836 93.2765 11.332 93.1515 10.9258C93.0265 10.5117 92.964 10.0859 92.964 9.64844C92.964 9.21094 93.0265 8.78906 93.1515 8.38281C93.2765 7.96875 93.4562 7.61328 93.6905 7.31641C93.9405 7.00391 94.2374 6.76953 94.5812 6.61328C94.9327 6.45703 95.296 6.37891 95.671 6.37891C96.046 6.37891 96.4054 6.45703 96.7491 6.61328C97.1007 6.76953 97.4015 7.00391 97.6515 7.31641C97.8859 7.61328 98.0655 7.96875 98.1905 8.38281C98.3155 8.78906 98.378 9.21094 98.378 9.64844ZM103.967 5.14844C103.654 5.07031 103.42 5.01562 103.264 4.98438C103.115 4.94531 102.955 4.92578 102.783 4.92578C102.611 4.92578 102.479 4.95312 102.385 5.00781C102.291 5.05469 102.205 5.14453 102.127 5.27734C102.08 5.37109 102.045 5.48438 102.022 5.61719C102.006 5.75 101.998 5.89844 101.998 6.0625V6.53125H103.569V7.59766H101.998V12.7656H100.721V7.59766H99.7599V6.53125H100.721V6.25C100.721 6.02344 100.733 5.77344 100.756 5.5C100.787 5.21875 100.877 4.94922 101.026 4.69141C101.166 4.45703 101.369 4.26172 101.635 4.10547C101.901 3.94922 102.268 3.86719 102.736 3.85938C102.963 3.85938 103.166 3.87891 103.346 3.91797C103.526 3.94922 103.733 3.98437 103.967 4.02344V5.14844ZM109.005 5.14844C108.693 5.07031 108.458 5.01562 108.302 4.98438C108.154 4.94531 107.993 4.92578 107.821 4.92578C107.65 4.92578 107.517 4.95312 107.423 5.00781C107.329 5.05469 107.243 5.14453 107.165 5.27734C107.118 5.37109 107.083 5.48438 107.06 5.61719C107.044 5.75 107.036 5.89844 107.036 6.0625V6.53125H108.607V7.59766H107.036V12.7656H105.759V7.59766H104.798V6.53125H105.759V6.25C105.759 6.02344 105.771 5.77344 105.794 5.5C105.825 5.21875 105.915 4.94922 106.064 4.69141C106.204 4.45703 106.407 4.26172 106.673 4.10547C106.939 3.94922 107.306 3.86719 107.775 3.85938C108.001 3.85938 108.204 3.87891 108.384 3.91797C108.564 3.94922 108.771 3.98437 109.005 4.02344V5.14844ZM111.43 9.03906H113.879C113.879 8.60938 113.809 8.24219 113.668 7.9375C113.582 7.79688 113.469 7.68359 113.328 7.59766C113.188 7.50391 113.02 7.45703 112.824 7.45703C112.434 7.45703 112.102 7.63672 111.828 7.99609C111.617 8.25391 111.485 8.60156 111.43 9.03906ZM111.465 10.1055C111.489 10.2539 111.528 10.4023 111.582 10.5508C111.645 10.7461 111.742 10.9375 111.875 11.125C112.016 11.3047 112.192 11.4688 112.403 11.6172C112.473 11.6641 112.586 11.7109 112.742 11.7578C112.906 11.7969 113.098 11.8164 113.317 11.8164C113.473 11.8164 113.68 11.793 113.938 11.7461C114.196 11.6992 114.543 11.5508 114.981 11.3008V12.4023C114.598 12.6367 114.219 12.7852 113.844 12.8477C113.469 12.9102 113.094 12.9219 112.719 12.8828C112.391 12.8516 112.063 12.7578 111.735 12.6016C111.414 12.4375 111.153 12.2461 110.949 12.0273C110.715 11.7461 110.516 11.3945 110.352 10.9727C110.196 10.5508 110.117 10.0664 110.117 9.51953C110.117 9.06641 110.176 8.65234 110.293 8.27734C110.41 7.89453 110.582 7.56641 110.809 7.29297C111.035 7.01953 111.317 6.80078 111.653 6.63672C111.989 6.46484 112.379 6.37891 112.824 6.37891C113.192 6.37891 113.539 6.46094 113.867 6.625C114.196 6.78125 114.453 6.98438 114.641 7.23438C114.985 7.6875 115.156 8.41016 115.156 9.40234V10.1055H111.465ZM118.05 9.03906H120.499C120.499 8.60938 120.429 8.24219 120.288 7.9375C120.202 7.79688 120.089 7.68359 119.949 7.59766C119.808 7.50391 119.64 7.45703 119.445 7.45703C119.054 7.45703 118.722 7.63672 118.449 7.99609C118.238 8.25391 118.105 8.60156 118.05 9.03906ZM118.085 10.1055C118.109 10.2539 118.148 10.4023 118.202 10.5508C118.265 10.7461 118.363 10.9375 118.495 11.125C118.636 11.3047 118.812 11.4688 119.023 11.6172C119.093 11.6641 119.206 11.7109 119.363 11.7578C119.527 11.7969 119.718 11.8164 119.937 11.8164C120.093 11.8164 120.3 11.793 120.558 11.7461C120.816 11.6992 121.163 11.5508 121.601 11.3008V12.4023C121.218 12.6367 120.839 12.7852 120.464 12.8477C120.089 12.9102 119.714 12.9219 119.339 12.8828C119.011 12.8516 118.683 12.7578 118.355 12.6016C118.034 12.4375 117.773 12.2461 117.57 12.0273C117.335 11.7461 117.136 11.3945 116.972 10.9727C116.816 10.5508 116.738 10.0664 116.738 9.51953C116.738 9.06641 116.796 8.65234 116.913 8.27734C117.031 7.89453 117.202 7.56641 117.429 7.29297C117.656 7.01953 117.937 6.80078 118.273 6.63672C118.609 6.46484 118.999 6.37891 119.445 6.37891C119.812 6.37891 120.159 6.46094 120.488 6.625C120.816 6.78125 121.074 6.98438 121.261 7.23438C121.605 7.6875 121.777 8.41016 121.777 9.40234V10.1055H118.085Z" fill="white"/>
</g>
<defs>
<filter id="filter0_d_805_393" x="0" y="0" width="171.7" height="24" filterUnits="userSpaceOnUse" color-interpolation-filters="sRGB">
<feFlood flood-opacity="0" result="BackgroundImageFix"/>
<feColorMatrix in="SourceAlpha" type="matrix" values="0 0 0 0 0 0 0 0 0 0 0 0 0 0 0 0 0 0 127 0" result="hardAlpha"/>
<feOffset dy="4"/>
<feGaussianBlur stdDeviation="2"/>
<feComposite in2="hardAlpha" operator="out"/>
<feColorMatrix type="matrix" values="0 0 0 0 0 0 0 0 0 0 0 0 0 0 0 0 0 0 0.25 0"/>
<feBlend mode="normal" in2="BackgroundImageFix" result="effect1_dropShadow_805_393"/>
<feBlend mode="normal" in="SourceGraphic" in2="effect1_dropShadow_805_393" result="shape"/>
</filter>
</defs>
</svg>
