<svg width="180" height="151" viewBox="0 0 180 151" fill="none" xmlns="http://www.w3.org/2000/svg">
<path opacity="0.2" d="M126.998 151C97.7261 151 73.9963 147.946 73.9963 144.178C73.9963 140.411 97.7261 137.357 126.998 137.357C156.27 137.357 180 140.411 180 144.178C180 147.946 156.27 151 126.998 151Z" fill="#14130D"/>
<g filter="url(#filter0_ii_802:906)">
<rect width="152.103" height="149.477" rx="7" fill="#336AAB"/>
</g>
<path d="M58.1854 105.037H41.9225V59.7996H58.1854V105.037ZM50.0539 53.0818C45.1182 53.0818 41.1094 49.3421 41.1094 44.7203C41.1094 40.1061 45.11 36.3589 50.0539 36.3589C54.9979 36.3589 58.9985 40.1061 58.9985 44.7203C58.9985 49.3421 54.9897 53.0818 50.0539 53.0818ZM115.105 105.037H98.8588V83.4665C98.8588 69.2845 82.5797 70.4833 82.5797 83.4665V105.037H66.3168V59.7996H82.5797V68.0404C89.6703 55.8564 115.105 54.9516 115.105 79.7118V105.037Z" fill="#FEFDFD"/>
<defs>
<filter id="filter0_ii_802:906" x="0" y="-2" width="152.103" height="152.477" filterUnits="userSpaceOnUse" color-interpolation-filters="sRGB">
<feFlood flood-opacity="0" result="BackgroundImageFix"/>
<feBlend mode="normal" in="SourceGraphic" in2="BackgroundImageFix" result="shape"/>
<feColorMatrix in="SourceAlpha" type="matrix" values="0 0 0 0 0 0 0 0 0 0 0 0 0 0 0 0 0 0 127 0" result="hardAlpha"/>
<feOffset dy="-2"/>
<feGaussianBlur stdDeviation="1"/>
<feComposite in2="hardAlpha" operator="arithmetic" k2="-1" k3="1"/>
<feColorMatrix type="matrix" values="0 0 0 0 0 0 0 0 0 0 0 0 0 0 0 0 0 0 0.6 0"/>
<feBlend mode="normal" in2="shape" result="effect1_innerShadow_802:906"/>
<feColorMatrix in="SourceAlpha" type="matrix" values="0 0 0 0 0 0 0 0 0 0 0 0 0 0 0 0 0 0 127 0" result="hardAlpha"/>
<feOffset dy="1"/>
<feGaussianBlur stdDeviation="0.5"/>
<feComposite in2="hardAlpha" operator="arithmetic" k2="-1" k3="1"/>
<feColorMatrix type="matrix" values="0 0 0 0 1 0 0 0 0 1 0 0 0 0 1 0 0 0 0.25 0"/>
<feBlend mode="normal" in2="effect1_innerShadow_802:906" result="effect2_innerShadow_802:906"/>
</filter>
</defs>
</svg>
