<svg width="145" height="34" viewBox="0 0 145 34" fill="none" xmlns="http://www.w3.org/2000/svg">
<g filter="url(#filter0_d_808_394)">
<rect x="40" width="63" height="23" rx="1" fill="#41434A"/>
<path d="M66.3057 14.3467H65.0108V16.7842H63.6905V14.3467H60.2881V13.293L63.8174 7.2373H65.0108V13.0645H66.3057V14.3467ZM63.6905 13.0645V9.81445L61.7989 13.0645H63.6905ZM70.71 15.7559C70.8708 15.7559 71.04 15.6882 71.2178 15.5527C71.404 15.4173 71.5648 15.1846 71.7002 14.8545C71.8271 14.516 71.9202 14.1012 71.9795 13.6104C72.0472 13.1195 72.0811 12.6117 72.0811 12.0869C72.0811 11.5537 72.0472 11.0459 71.9795 10.5635C71.9118 10.0726 71.8187 9.65788 71.7002 9.31934C71.5648 8.97233 71.404 8.73535 71.2178 8.6084C71.04 8.47298 70.8708 8.40527 70.71 8.40527C70.5407 8.40527 70.363 8.47298 70.1768 8.6084C69.999 8.73535 69.8467 8.97233 69.7197 9.31934C69.6012 9.65788 69.5039 10.0726 69.4277 10.5635C69.36 11.0459 69.3262 11.5537 69.3262 12.0869C69.3262 12.6117 69.36 13.1195 69.4277 13.6104C69.4954 14.1012 69.5885 14.516 69.707 14.8545C69.8424 15.1846 69.999 15.4173 70.1768 15.5527C70.363 15.6882 70.5407 15.7559 70.71 15.7559ZM70.71 16.9746C70.3291 16.9746 69.9482 16.8646 69.5674 16.6445C69.1865 16.4245 68.8776 16.0859 68.6406 15.6289C68.3952 15.1803 68.2174 14.6471 68.1074 14.0293C67.9974 13.403 67.9424 12.7555 67.9424 12.0869C67.9424 11.4183 67.9974 10.7708 68.1074 10.1445C68.2174 9.51823 68.3952 8.98079 68.6406 8.53223C68.8861 8.0752 69.195 7.73665 69.5674 7.5166C69.9482 7.29655 70.3291 7.18652 70.71 7.18652C71.0908 7.18652 71.4674 7.29655 71.8398 7.5166C72.2207 7.73665 72.5339 8.0752 72.7793 8.53223C73.0163 8.98079 73.1898 9.51823 73.2998 10.1445C73.4183 10.7708 73.4775 11.4183 73.4775 12.0869C73.4775 12.7555 73.4183 13.403 73.2998 14.0293C73.1898 14.6471 73.0163 15.1803 72.7793 15.6289C72.5423 16.0859 72.2334 16.4245 71.8525 16.6445C71.4717 16.8646 71.0908 16.9746 70.71 16.9746ZM82.3379 7.64355L78.7832 16.5684H77.4882L81.0302 7.64355H82.3379ZM78.0341 10.4619C78.0341 9.91178 77.9537 9.48438 77.7929 9.17969C77.6406 8.875 77.4502 8.72266 77.2216 8.72266C77.0185 8.72266 76.8366 8.875 76.6757 9.17969C76.5234 9.48438 76.4472 9.91178 76.4472 10.4619C76.4472 10.9951 76.5234 11.4141 76.6757 11.7188C76.8281 12.015 77.0101 12.1631 77.2216 12.1631C77.4502 12.1631 77.6406 12.015 77.7929 11.7188C77.9537 11.4141 78.0341 10.9951 78.0341 10.4619ZM79.3545 10.4619C79.3545 10.8343 79.3037 11.2025 79.2021 11.5664C79.1005 11.9219 78.9524 12.2266 78.7578 12.4805C78.5716 12.7344 78.3431 12.9248 78.0722 13.0518C77.8099 13.1787 77.5263 13.2422 77.2216 13.2422C76.9254 13.2422 76.6461 13.1787 76.3838 13.0518C76.1214 12.9248 75.8929 12.7344 75.6982 12.4805C75.512 12.2266 75.3681 11.9219 75.2666 11.5664C75.165 11.2025 75.1142 10.8343 75.1142 10.4619C75.1142 10.0726 75.165 9.7002 75.2666 9.34473C75.3681 8.98079 75.512 8.67611 75.6982 8.43066C75.8929 8.17676 76.1214 7.9821 76.3838 7.84668C76.6461 7.71126 76.9254 7.64355 77.2216 7.64355C77.5263 7.64355 77.8099 7.71126 78.0722 7.84668C78.3431 7.9821 78.5716 8.17676 78.7578 8.43066C78.9524 8.67611 79.1005 8.98079 79.2021 9.34473C79.3037 9.7002 79.3545 10.0726 79.3545 10.4619ZM83.4043 13.7881C83.4043 13.238 83.3239 12.8105 83.163 12.5059C83.0107 12.2012 82.8203 12.0488 82.5918 12.0488C82.3886 12.0488 82.2067 12.2012 82.0459 12.5059C81.8935 12.8105 81.8173 13.238 81.8173 13.7881C81.8173 14.3213 81.8935 14.7402 82.0459 15.0449C82.1982 15.3411 82.3802 15.4893 82.5918 15.4893C82.8203 15.4893 83.0107 15.3411 83.163 15.0449C83.3239 14.7402 83.4043 14.3213 83.4043 13.7881ZM84.7246 13.7881C84.7246 14.1605 84.6696 14.5286 84.5595 14.8926C84.458 15.248 84.3141 15.5527 84.1279 15.8066C83.9332 16.0605 83.7047 16.251 83.4423 16.3779C83.18 16.5049 82.8964 16.5684 82.5918 16.5684C82.2955 16.5684 82.0162 16.5049 81.7539 16.3779C81.4915 16.251 81.263 16.0605 81.0683 15.8066C80.8821 15.5527 80.7382 15.248 80.6367 14.8926C80.5351 14.5286 80.4843 14.1605 80.4843 13.7881C80.4843 13.4072 80.5351 13.0391 80.6367 12.6836C80.7382 12.3197 80.8821 12.0107 81.0683 11.7568C81.263 11.5029 81.4915 11.3083 81.7539 11.1729C82.0162 11.0374 82.2955 10.9697 82.5918 10.9697C82.8964 10.9697 83.18 11.0374 83.4423 11.1729C83.7047 11.3083 83.9332 11.5029 84.1279 11.7568C84.3141 12.0107 84.458 12.3197 84.5595 12.6836C84.6696 13.0391 84.7246 13.4072 84.7246 13.7881Z" fill="white"/>
<path d="M135.256 12.1162H131.123V16.7432H128.877V12.1162H124.789V9.98242H128.877V5.33301H131.123V9.98242H135.256V12.1162Z" fill="white"/>
<path d="M18.6611 12.2061H11.2939V9.91504H18.6611V12.2061Z" fill="white"/>
</g>
<defs>
<filter id="filter0_d_808_394" x="7.29395" y="0" width="131.962" height="31" filterUnits="userSpaceOnUse" color-interpolation-filters="sRGB">
<feFlood flood-opacity="0" result="BackgroundImageFix"/>
<feColorMatrix in="SourceAlpha" type="matrix" values="0 0 0 0 0 0 0 0 0 0 0 0 0 0 0 0 0 0 127 0" result="hardAlpha"/>
<feOffset dy="4"/>
<feGaussianBlur stdDeviation="2"/>
<feComposite in2="hardAlpha" operator="out"/>
<feColorMatrix type="matrix" values="0 0 0 0 0 0 0 0 0 0 0 0 0 0 0 0 0 0 0.25 0"/>
<feBlend mode="normal" in2="BackgroundImageFix" result="effect1_dropShadow_808_394"/>
<feBlend mode="normal" in="SourceGraphic" in2="effect1_dropShadow_808_394" result="shape"/>
</filter>
</defs>
</svg>
