<svg width="203" height="37" viewBox="0 0 203 37" fill="none" xmlns="http://www.w3.org/2000/svg">
<path d="M7.12281 6V21.205C7.12281 25.9045 4.32065 30.1513 0 32H203L201.815 31.5773C197.339 29.9817 194.227 25.8959 193.877 21.1576L192.726 5.55837C192.495 2.42452 189.885 0 186.742 0H13.1228C9.8091 0 7.12281 2.68629 7.12281 6Z" fill="#F5F8FF"/>
<path d="M31.0168 16.0426L32.0017 16.3975C33.9587 17.1026 33.4526 20 31.3725 20L29.6922 20C29.5433 20 29.3948 19.9834 29.2496 19.9504L26.025 19.2187C25.4177 19.0808 24.9092 18.668 24.6497 18.1019L24.5063 17.7892C24.3439 17.4352 24.2987 17.0387 24.3772 16.6572L24.3942 16.5745C24.4291 16.4048 24.4319 16.23 24.4023 16.0593L24.3478 15.7441C24.2918 15.4204 24.4234 15.0929 24.6879 14.8981C24.9213 14.7261 25.2252 14.6822 25.4978 14.781L26.6645 15.204C26.7256 15.2261 26.7887 15.2422 26.8529 15.2519C27.2222 15.3079 27.5914 15.1504 27.8066 14.8451L28.0009 14.5695C28.235 14.2374 28.5914 14.012 28.9917 13.9427L29.3045 13.8886C29.4129 13.8698 29.5236 13.8687 29.6323 13.8852L29.8878 13.9239C30.3941 14.0006 30.7036 14.5213 30.529 15.0027C30.3761 15.4246 30.5946 15.8905 31.0168 16.0426Z" fill="#2C3F7B"/>
<path d="M172 11L177 16M177 11L172 16" stroke="#2C3F7B" stroke-width="1.4" stroke-linecap="round" stroke-linejoin="round"/>
<path d="M54.4984 12.6602H53.1741C53.1741 12.2852 53.1273 12.0078 53.0335 11.8281C52.9476 11.6406 52.8421 11.4844 52.7171 11.3594C52.5765 11.25 52.4163 11.168 52.2366 11.1133C52.0648 11.0508 51.8968 11.0156 51.7327 11.0078C51.4359 11.0078 51.1507 11.0703 50.8773 11.1953C50.6116 11.3203 50.3695 11.5234 50.1507 11.8047C49.932 12.0938 49.7601 12.4648 49.6351 12.918C49.5101 13.3633 49.4476 13.8086 49.4476 14.2539C49.4476 14.543 49.4827 14.8906 49.553 15.2969C49.6234 15.7031 49.7523 16.1016 49.9398 16.4922C50.1351 16.8516 50.3968 17.1562 50.7249 17.4062C51.053 17.6484 51.4749 17.7695 51.9905 17.7695C52.3655 17.7695 52.721 17.707 53.057 17.582C53.3929 17.4492 53.7835 17.2461 54.2288 16.9727V18.3203C54.096 18.3906 53.9671 18.457 53.8421 18.5195C53.7249 18.582 53.5648 18.6445 53.3616 18.707C52.8929 18.8398 52.3577 18.9062 51.7562 18.9062C51.1312 18.9062 50.5882 18.7695 50.1273 18.4961C49.6741 18.2227 49.2913 17.8594 48.9788 17.4062C48.6741 16.9531 48.4593 16.457 48.3343 15.918C48.2171 15.3789 48.1585 14.8242 48.1585 14.2539C48.1585 13.6836 48.2249 13.1367 48.3577 12.6133C48.4905 12.0898 48.7093 11.6289 49.014 11.2305C49.3109 10.8398 49.6859 10.5156 50.139 10.2578C50.5921 9.99219 51.1234 9.85938 51.7327 9.85938C52.0999 9.85938 52.4515 9.92578 52.7874 10.0586C53.1234 10.1836 53.4163 10.3594 53.6663 10.5859C53.9163 10.8125 54.1155 11.0859 54.264 11.4062C54.4202 11.7188 54.4984 12.1367 54.4984 12.6602ZM56.3021 12.5312H57.556V16.4688C57.556 16.8906 57.6459 17.2344 57.8255 17.5C57.9584 17.6875 58.1849 17.7812 58.5052 17.7812C58.7787 17.7812 59.0365 17.6445 59.2787 17.3711C59.5209 17.0977 59.6966 16.6797 59.806 16.1172C59.8373 15.9766 59.8568 15.8398 59.8646 15.707C59.8802 15.5742 59.888 15.4258 59.888 15.2617V12.5312H61.1302V18.7656H59.888V18.1328C59.7552 18.3203 59.5599 18.4961 59.3021 18.6602C59.0443 18.8242 58.7552 18.9062 58.4349 18.9062C57.7709 18.9062 57.2552 18.7266 56.888 18.3672C56.4974 17.9766 56.3021 17.4141 56.3021 16.6797V12.5312ZM66.8246 13.6328C66.473 13.6328 66.1918 13.6602 65.9809 13.7148C65.7699 13.7695 65.5707 13.8516 65.3832 13.9609C65.2035 14.0625 65.0355 14.2109 64.8793 14.4062C64.7309 14.6016 64.6332 14.832 64.5863 15.0977C64.5238 15.4258 64.4926 15.7891 64.4926 16.1875V18.7656H63.2621V12.5312H64.4926V13.3867C64.6566 13.1523 64.8676 12.9492 65.1254 12.7773C65.5238 12.5195 66.0902 12.3867 66.8246 12.3789V13.6328ZM71.9799 13.6328C71.6284 13.6328 71.3471 13.6602 71.1362 13.7148C70.9252 13.7695 70.726 13.8516 70.5385 13.9609C70.3588 14.0625 70.1909 14.2109 70.0346 14.4062C69.8862 14.6016 69.7885 14.832 69.7416 15.0977C69.6791 15.4258 69.6479 15.7891 69.6479 16.1875V18.7656H68.4174V12.5312H69.6479V13.3867C69.812 13.1523 70.0229 12.9492 70.2807 12.7773C70.6791 12.5195 71.2455 12.3867 71.9799 12.3789V13.6328ZM74.9673 11.5352H73.5259V10.0234H74.9673V11.5352ZM74.897 18.7656H73.6196V12.5312H74.897V18.7656ZM81.8218 14.7109H80.5093C80.5093 14.3281 80.4234 14.0234 80.2515 13.7969C80.0796 13.5703 79.8257 13.457 79.4898 13.457C79.0991 13.457 78.7632 13.6367 78.482 13.9961C78.2085 14.3555 78.0718 14.8672 78.0718 15.5312C78.0718 15.6875 78.0835 15.8555 78.107 16.0352C78.1382 16.207 78.1851 16.3789 78.2476 16.5508C78.3101 16.7539 78.4077 16.9453 78.5405 17.125C78.6812 17.3047 78.857 17.4688 79.0679 17.6172C79.1382 17.6641 79.2515 17.7109 79.4077 17.7578C79.5718 17.7969 79.7632 17.8164 79.982 17.8164C80.1382 17.8164 80.3413 17.7969 80.5913 17.7578C80.8413 17.7109 81.1929 17.5586 81.646 17.3008V18.4023C81.2632 18.6367 80.8843 18.7852 80.5093 18.8477C80.1343 18.9102 79.7593 18.9219 79.3843 18.8828C79.0562 18.8516 78.728 18.7578 78.3999 18.6016C78.0796 18.4375 77.8179 18.2461 77.6148 18.0273C77.3804 17.7461 77.1812 17.3945 77.0171 16.9727C76.8609 16.5508 76.7827 16.0664 76.7827 15.5195C76.7827 15.0664 76.8413 14.6523 76.9585 14.2773C77.0757 13.8945 77.2476 13.5664 77.4741 13.293C77.7007 13.0117 77.9859 12.7891 78.3296 12.625C78.6734 12.4609 79.0679 12.3789 79.5132 12.3789C79.8335 12.3789 80.1304 12.4297 80.4038 12.5312C80.6773 12.6328 80.9155 12.7773 81.1187 12.9648C81.3296 13.1445 81.4976 13.3672 81.6226 13.6328C81.7554 13.8984 81.8218 14.2578 81.8218 14.7109ZM83.6959 12.5312H84.9498V16.4688C84.9498 16.8906 85.0396 17.2344 85.2193 17.5C85.3521 17.6875 85.5787 17.7812 85.899 17.7812C86.1724 17.7812 86.4302 17.6445 86.6724 17.3711C86.9146 17.0977 87.0904 16.6797 87.1998 16.1172C87.231 15.9766 87.2505 15.8398 87.2584 15.707C87.274 15.5742 87.2818 15.4258 87.2818 15.2617V12.5312H88.524V18.7656H87.2818V18.1328C87.149 18.3203 86.9537 18.4961 86.6959 18.6602C86.438 18.8242 86.149 18.9062 85.8287 18.9062C85.1646 18.9062 84.649 18.7266 84.2818 18.3672C83.8912 17.9766 83.6959 17.4141 83.6959 16.6797V12.5312ZM91.9801 18.7656H90.7027V10.0234H91.9801V18.7656ZM94.1588 12.5312H95.4127V16.4688C95.4127 16.8906 95.5026 17.2344 95.6823 17.5C95.8151 17.6875 96.0416 17.7812 96.362 17.7812C96.6354 17.7812 96.8932 17.6445 97.1354 17.3711C97.3776 17.0977 97.5534 16.6797 97.6627 16.1172C97.694 15.9766 97.7135 15.8398 97.7213 15.707C97.737 15.5742 97.7448 15.4258 97.7448 15.2617V12.5312H98.987V18.7656H97.7448V18.1328C97.612 18.3203 97.4166 18.4961 97.1588 18.6602C96.901 18.8242 96.612 18.9062 96.2916 18.9062C95.6276 18.9062 95.112 18.7266 94.7448 18.3672C94.3541 17.9766 94.1588 17.4141 94.1588 16.6797V12.5312ZM108.537 18.7656H107.33V15.2383C107.33 15.0117 107.318 14.7812 107.295 14.5469C107.271 14.3125 107.236 14.1328 107.189 14.0078C107.127 13.8516 107.045 13.7422 106.943 13.6797C106.849 13.6172 106.728 13.5859 106.58 13.5859C106.322 13.5859 106.091 13.7266 105.888 14.0078C105.685 14.2812 105.549 14.6797 105.478 15.2031C105.455 15.375 105.439 15.5273 105.431 15.6602C105.424 15.7852 105.42 15.9258 105.42 16.082V18.7656H104.236V15.2383C104.236 15.0117 104.224 14.7891 104.201 14.5703C104.185 14.3438 104.15 14.1562 104.095 14.0078C104.033 13.8516 103.951 13.7422 103.849 13.6797C103.756 13.6172 103.627 13.5859 103.463 13.5859C103.283 13.5859 103.123 13.6484 102.982 13.7734C102.841 13.8984 102.72 14.0898 102.619 14.3477C102.525 14.6055 102.455 14.875 102.408 15.1562C102.369 15.4375 102.345 15.7383 102.338 16.0586V18.7656H101.119V12.5312H102.338V13.1055C102.455 12.9336 102.623 12.7695 102.841 12.6133C103.06 12.457 103.299 12.3789 103.556 12.3789C104.064 12.3789 104.47 12.5273 104.775 12.8242C104.916 12.957 105.041 13.1328 105.15 13.3516C105.213 13.2422 105.295 13.125 105.396 13C105.709 12.5859 106.138 12.3789 106.685 12.3789C107.216 12.3789 107.658 12.5703 108.009 12.9531C108.361 13.3281 108.537 13.9023 108.537 14.6758V18.7656Z" fill="#2C3F7B"/>
<circle cx="29" cy="14" r="6.25" stroke="#2C3F7B" stroke-width="1.5"/>
<path d="M28.5 9.45024V9.40754C28.5 8.87984 28.8725 8.42551 29.3899 8.32202L30.094 8.18121C30.6683 8.06633 31.2641 8.21129 31.7215 8.5772L32.7494 9.39951C33.2238 9.77906 33.5 10.3537 33.5 10.9612V11.5V12.691C33.5 12.8942 33.4527 13.0946 33.3618 13.2764L33.2397 13.5207C33.0928 13.8144 32.7925 14 32.4641 14C32.1741 14 31.9034 13.8551 31.7426 13.6139L31.0542 12.5812C31.0181 12.5272 30.9769 12.4769 30.931 12.431C30.6668 12.1668 30.2762 12.0746 29.9218 12.1927L29.6019 12.2994C29.2165 12.4278 28.7959 12.3979 28.4325 12.2163L28.1485 12.0743C28.0502 12.0251 27.9604 11.9604 27.8826 11.8826C27.426 11.426 27.5041 10.664 28.0413 10.3058C28.3271 10.1153 28.5 9.7937 28.5 9.45024Z" fill="#2C3F7B"/>
</svg>
