<svg width="993" height="1828" viewBox="0 0 993 1828" fill="none" xmlns="http://www.w3.org/2000/svg">
<g filter="url(#filter0_i_802:955)">
<rect width="993" height="1828" fill="white"/>
<g filter="url(#filter1_ii_802:955)">
<rect x="61.5498" y="48.5308" width="881.384" height="1682.41" fill="#E3E3E3"/>
</g>
<path d="M943.219 48.5308H897.033V1726.89H943.219V48.5308Z" fill="#F5F5F5"/>
<path d="M943.219 48.5308H897.033V1726.89H943.219V48.5308Z" fill="#F5F5F5"/>
<path d="M943.219 48.5308H897.033V1726.89H943.219V48.5308Z" fill="#F5F5F5"/>
<path d="M34.6377 1795.65L58.6304 1722.85H940.364L958.359 1795.65H34.6377Z" fill="#F7F7F7"/>
<path d="M100.07 44.4868H53.8838V1722.85H100.07V44.4868Z" fill="#F5F5F5"/>
<path d="M100.07 44.4868H53.8838V1722.85H100.07V44.4868Z" fill="#F5F5F5"/>
<path d="M100.07 44.4868H53.8838V1722.85H100.07V44.4868Z" fill="#F5F5F5"/>
<rect x="53.8838" y="335.672" width="881.384" height="28.3097" fill="white"/>
<path d="M100.07 285.12L48.1104 337.695H935.267L889.081 285.12H100.07Z" fill="#EAEAEA"/>
<rect x="51.96" y="661.234" width="881.384" height="28.3098" fill="white"/>
<path d="M98.1458 606.637L46.1865 659.212H933.343L887.157 606.637H98.1458Z" fill="#EAEAEA"/>
<rect x="55.8066" y="984.774" width="881.384" height="28.3098" fill="white"/>
<path d="M101.993 930.177L50.0332 982.752H937.19L891.004 930.177H101.993Z" fill="#EAEAEA"/>
<rect x="50.0332" y="1290.12" width="896.779" height="505.531" fill="white"/>
<path d="M105.84 1241.58L53.8809 1294.16H941.038L894.852 1241.58H105.84Z" fill="#EAEAEA"/>
<path d="M61.5781 1769.36H931.415" stroke="#E8E8E8" stroke-opacity="0.58"/>
<path d="M500.347 1767.34L500.347 1362.91" stroke="#E8E8E8" stroke-opacity="0.58"/>
<path d="M942.963 1767.34L942.963 1362.91" stroke="#E8E8E8"/>
<path d="M61.5781 1767.34L61.5781 1362.91" stroke="#E8E8E8" stroke-opacity="0.58"/>
<path d="M69.2793 1364.93H939.116" stroke="#E8E8E8" stroke-opacity="0.58"/>
<g filter="url(#filter2_i_802:955)">
<rect x="196.29" y="1427.62" width="169.349" height="36.3983" rx="2" fill="#C4C4C4" fill-opacity="0.38"/>
</g>
<g filter="url(#filter3_i_802:955)">
<rect x="638.906" y="1427.62" width="169.349" height="36.3983" rx="2" fill="#C4C4C4" fill-opacity="0.38"/>
</g>
</g>
<defs>
<filter id="filter0_i_802:955" x="0" y="0" width="993" height="1829" filterUnits="userSpaceOnUse" color-interpolation-filters="sRGB">
<feFlood flood-opacity="0" result="BackgroundImageFix"/>
<feBlend mode="normal" in="SourceGraphic" in2="BackgroundImageFix" result="shape"/>
<feColorMatrix in="SourceAlpha" type="matrix" values="0 0 0 0 0 0 0 0 0 0 0 0 0 0 0 0 0 0 127 0" result="hardAlpha"/>
<feOffset dy="1"/>
<feGaussianBlur stdDeviation="13"/>
<feComposite in2="hardAlpha" operator="arithmetic" k2="-1" k3="1"/>
<feColorMatrix type="matrix" values="0 0 0 0 0 0 0 0 0 0 0 0 0 0 0 0 0 0 0.17 0"/>
<feBlend mode="normal" in2="shape" result="effect1_innerShadow_802:955"/>
</filter>
<filter id="filter1_ii_802:955" x="40.5498" y="46.5308" width="923.384" height="1688.41" filterUnits="userSpaceOnUse" color-interpolation-filters="sRGB">
<feFlood flood-opacity="0" result="BackgroundImageFix"/>
<feBlend mode="normal" in="SourceGraphic" in2="BackgroundImageFix" result="shape"/>
<feColorMatrix in="SourceAlpha" type="matrix" values="0 0 0 0 0 0 0 0 0 0 0 0 0 0 0 0 0 0 127 0" result="hardAlpha"/>
<feOffset dx="21" dy="4"/>
<feGaussianBlur stdDeviation="15"/>
<feComposite in2="hardAlpha" operator="arithmetic" k2="-1" k3="1"/>
<feColorMatrix type="matrix" values="0 0 0 0 0 0 0 0 0 0 0 0 0 0 0 0 0 0 0.13 0"/>
<feBlend mode="normal" in2="shape" result="effect1_innerShadow_802:955"/>
<feColorMatrix in="SourceAlpha" type="matrix" values="0 0 0 0 0 0 0 0 0 0 0 0 0 0 0 0 0 0 127 0" result="hardAlpha"/>
<feOffset dx="-21" dy="-2"/>
<feGaussianBlur stdDeviation="13.5"/>
<feComposite in2="hardAlpha" operator="arithmetic" k2="-1" k3="1"/>
<feColorMatrix type="matrix" values="0 0 0 0 0 0 0 0 0 0 0 0 0 0 0 0 0 0 0.15 0"/>
<feBlend mode="normal" in2="effect1_innerShadow_802:955" result="effect2_innerShadow_802:955"/>
</filter>
<filter id="filter2_i_802:955" x="196.29" y="1427.62" width="169.349" height="39.3984" filterUnits="userSpaceOnUse" color-interpolation-filters="sRGB">
<feFlood flood-opacity="0" result="BackgroundImageFix"/>
<feBlend mode="normal" in="SourceGraphic" in2="BackgroundImageFix" result="shape"/>
<feColorMatrix in="SourceAlpha" type="matrix" values="0 0 0 0 0 0 0 0 0 0 0 0 0 0 0 0 0 0 127 0" result="hardAlpha"/>
<feOffset dy="4"/>
<feGaussianBlur stdDeviation="1.5"/>
<feComposite in2="hardAlpha" operator="arithmetic" k2="-1" k3="1"/>
<feColorMatrix type="matrix" values="0 0 0 0 0 0 0 0 0 0 0 0 0 0 0 0 0 0 0.08 0"/>
<feBlend mode="normal" in2="shape" result="effect1_innerShadow_802:955"/>
</filter>
<filter id="filter3_i_802:955" x="638.906" y="1427.62" width="169.349" height="39.3984" filterUnits="userSpaceOnUse" color-interpolation-filters="sRGB">
<feFlood flood-opacity="0" result="BackgroundImageFix"/>
<feBlend mode="normal" in="SourceGraphic" in2="BackgroundImageFix" result="shape"/>
<feColorMatrix in="SourceAlpha" type="matrix" values="0 0 0 0 0 0 0 0 0 0 0 0 0 0 0 0 0 0 127 0" result="hardAlpha"/>
<feOffset dy="4"/>
<feGaussianBlur stdDeviation="1.5"/>
<feComposite in2="hardAlpha" operator="arithmetic" k2="-1" k3="1"/>
<feColorMatrix type="matrix" values="0 0 0 0 0 0 0 0 0 0 0 0 0 0 0 0 0 0 0.08 0"/>
<feBlend mode="normal" in2="shape" result="effect1_innerShadow_802:955"/>
</filter>
</defs>
</svg>
