<svg width="4213" height="2524" viewBox="0 0 4213 2524" fill="none" xmlns="http://www.w3.org/2000/svg">
<path d="M2106.5 2524C3269.89 2524 4213 2383.86 4213 2211C4213 2038.13 3269.89 1897.99 2106.5 1897.99C943.112 1897.99 0 2038.13 0 2211C0 2383.86 943.112 2524 2106.5 2524Z" fill="#EDEBE4"/>
<path d="M595.547 2314.55V1070.68C595.547 1069.02 596.89 1067.68 598.547 1067.68H723.631C725.288 1067.68 726.631 1069.02 726.631 1070.68V2314.55C726.631 2316.21 725.288 2317.55 723.631 2317.55H598.547C596.89 2317.55 595.547 2316.21 595.547 2314.55Z" fill="white"/>
<path d="M3479.39 2314.55V1070.68C3479.39 1069.02 3480.74 1067.68 3482.39 1067.68H3607.48C3609.13 1067.68 3610.48 1069.02 3610.48 1070.68V2314.55C3610.48 2316.21 3609.13 2317.55 3607.48 2317.55H3482.39C3480.74 2317.55 3479.39 2316.21 3479.39 2314.55Z" fill="white"/>
<path d="M833.88 2026.49V968.153C833.88 966.496 835.223 965.153 836.88 965.153H944.089C945.746 965.153 947.089 966.496 947.089 968.153V2026.49C947.089 2028.15 945.746 2029.49 944.089 2029.49H836.88C835.223 2029.49 833.88 2028.15 833.88 2026.49Z" fill="url(#paint0_linear_802:724)"/>
<path d="M3264.89 2026.49V968.153C3264.89 966.496 3266.24 965.153 3267.89 965.153H3375.1C3376.76 965.153 3378.1 966.496 3378.1 968.153V2026.49C3378.1 2028.15 3376.76 2029.49 3375.1 2029.49H3267.89C3266.24 2029.49 3264.89 2028.15 3264.89 2026.49Z" fill="url(#paint1_linear_802:724)"/>
<g filter="url(#filter0_i_802:724)">
<path d="M832.368 799.155L547.879 1067.68H3646.23L3361.74 799.155H832.368Z" fill="url(#paint2_linear_802:724)"/>
</g>
<path d="M547.879 1063.51H3640.27V1165.33H547.879V1063.51Z" fill="#ECECEC"/>
<path d="M1146.67 1378.32L1015.89 1357.17L986.17 1487.6L1357.22 1499.58C1378.82 1500.28 1389.13 1473.28 1372.55 1459.4L1259.7 1407.92C1257.66 1406.99 1255.54 1406.25 1253.37 1405.69L1146.67 1378.32Z" fill="#CC800E"/>
<path d="M843.506 1924.72V1818.97H902.949V1924.72H843.506Z" fill="#1F1E1E"/>
<path d="M935.643 1826.02H888.089V1790.76H897.005L775.146 1618.03H1366.61L1399.3 1603.93L1390.38 1639.18L1366.61 1653.28H1152.61L935.643 1790.76L944.56 1811.92L935.643 1826.02Z" fill="#1F1E1E"/>
<path d="M356.071 1639.18L341.21 1618.03H778.118L899.977 1787.24L891.06 1797.81V1808.39V1826.02H822.701L816.756 1818.97V1808.39L828.645 1797.81V1787.24L602.76 1653.28H373.904L356.071 1639.18Z" fill="#3E3D3D"/>
<path d="M1237.78 1050.49H950.504L967.239 1099.24H1223.85L1268.48 1125.24L1282.43 1499L1313.11 1508.75V1157.74L1309.26 1124.08C1308.11 1114.09 1305.35 1104.34 1301.09 1095.23L1294.72 1081.63C1292.13 1076.08 1288.54 1071.05 1284.14 1066.78C1277.54 1060.37 1269.33 1055.88 1260.37 1053.8L1254.33 1052.39C1248.91 1051.13 1243.35 1050.49 1237.78 1050.49Z" fill="#1F1E1E"/>
<path d="M1220.03 1157.15H999.654L944.56 1099.84H1228.29C1254.16 1099.84 1275.12 1120.81 1275.12 1146.67V1169.89L1283.39 1494.65L1228.29 1466L1220.03 1157.15Z" fill="#3E3D3D"/>
<g filter="url(#filter1_ii_802:724)">
<path d="M306.956 203.442L314.28 216.473C316.228 219.938 319.894 222.083 323.869 222.083H677.954C684.029 222.083 688.954 217.158 688.954 211.083V186.832V55.3886C688.954 53.7354 688.582 52.1035 687.864 50.6141L677.812 29.7495C677.317 28.7234 676.667 27.7803 675.883 26.9539L653.57 3.42993C651.492 1.24014 648.607 0 645.589 0H344.843C342.484 0 340.188 0.758353 338.293 2.16314L320.204 15.5719C318.4 16.909 317.049 18.766 316.331 20.8935L306.122 51.1666C305.74 52.2992 305.545 53.4865 305.545 54.6819V198.053C305.545 199.941 306.031 201.797 306.956 203.442Z" fill="#EB9412"/>
</g>
<g filter="url(#filter2_i_802:724)">
<path d="M278.794 1519.97V1403L204.49 408.915V297.879C204.49 292.16 206.376 286.601 209.855 282.062L229.922 255.881C232.731 252.216 236.466 249.365 240.742 247.622L324.602 213.432C327.718 212.161 331.052 211.508 334.418 211.508H590.872H720.339C725.128 211.508 729.872 212.438 734.307 214.246L810.906 245.475C818.549 248.592 824.931 254.174 829.036 261.334L868.326 329.863C871.538 335.465 873.227 341.81 873.227 348.267V405.817C873.227 407.879 873.4 409.937 873.742 411.969L899.977 567.546L935.643 800.204L962.392 923.583L992.114 1025.81L1015.85 1145.47C1015.88 1145.6 1015.89 1145.73 1015.89 1145.86V1373.91C1015.89 1379.17 1015.11 1384.41 1013.56 1389.44L992.907 1456.82C992.513 1458.1 993.474 1459.4 994.819 1459.4H1015.89H1286.36H1386.82C1391.08 1459.4 1395.26 1460.64 1398.83 1462.98L1442.82 1491.67C1449.05 1495.73 1452.8 1502.66 1452.8 1510.09V1548.37C1452.8 1552.43 1451.68 1556.41 1449.55 1559.87L1432.64 1587.47C1430.28 1591.3 1426.81 1594.32 1422.69 1596.12L1376.76 1616.19C1373.99 1617.41 1370.99 1618.03 1367.95 1618.03H354.749C351.707 1618.03 348.706 1617.34 345.972 1616L307.513 1597.22C302.471 1594.76 298.695 1590.29 297.107 1584.91L279.612 1525.63C279.07 1523.79 278.794 1521.88 278.794 1519.97Z" fill="#EFA310"/>
</g>
<g filter="url(#filter3_i_802:724)">
<path d="M240.157 934.158L275.687 1418.77C275.763 1419.82 276.634 1420.63 277.681 1420.63H822.571C831.54 1420.63 839.518 1414.93 842.432 1406.45L865.591 1339.03C868.68 1330.04 870.256 1320.6 870.256 1311.09V1209.12V994.086L837.562 676.824L796.118 434.33C794.089 422.456 788 411.655 778.891 403.772L696.008 332.037C687.418 324.602 677.512 318.842 666.802 315.054L528.322 266.069C518.576 262.621 508.313 260.859 497.975 260.859H370.435C358.98 260.859 347.629 263.022 336.978 267.233L211.004 317.037C205.279 319.3 201.519 324.83 201.519 330.986V564.02L240.157 934.158Z" fill="#EB9412"/>
</g>
<path d="M308.864 214.821L302.571 197.407H583.81C586.448 197.407 588.998 196.459 590.995 194.736L619.017 170.566C620.058 169.667 620.922 168.581 621.563 167.364L634.185 143.412C635.018 141.831 635.454 140.071 635.454 138.284V0L647.809 2.93067C649.457 3.32169 650.993 4.08816 652.296 5.17034L678.193 26.6706C679.408 27.679 680.391 28.9372 681.076 30.3594L690.835 50.6141C691.552 52.1035 691.925 53.7354 691.925 55.3886V194.895C691.925 196.549 691.552 198.181 690.835 199.67L683.036 215.857C681.202 219.663 677.351 222.083 673.126 222.083H319.209C314.575 222.083 310.439 219.179 308.864 214.821Z" fill="#EFA310"/>
<ellipse cx="367.96" cy="2404.14" rx="53.499" ry="59.9271" fill="#232222"/>
<ellipse cx="364.988" cy="2407.66" rx="20.8052" ry="21.1508" fill="#171717"/>
<ellipse cx="1390.39" cy="2390.04" rx="53.499" ry="59.9271" fill="#232222"/>
<ellipse cx="1387.41" cy="2393.56" rx="20.8051" ry="21.1508" fill="#171717"/>
<ellipse cx="819.728" cy="2397.09" rx="53.499" ry="59.9274" fill="#232222"/>
<ellipse cx="816.757" cy="2400.61" rx="20.8052" ry="21.1508" fill="#171717"/>
<path d="M442.264 2304.22L849.451 2214.65V2160.9L442.264 2254.06L376.876 2293.47L403.626 2311.38L406.598 2336.47H367.96L350.127 2347.21L332.294 2365.13V2379.46H394.709L397.682 2390.04H439.292L442.264 2365.13V2304.22Z" fill="#3E3D3D"/>
<path d="M329.322 2379.46H296.628L308.517 2354.78L329.322 2337.16L350.127 2323.06H379.849L400.654 2337.16L329.322 2379.46Z" fill="#C4C4C4"/>
<path d="M914.839 1900.04H873.228H852.423L858.368 2210.65L849.451 2326.58L831.618 2327.99L804.869 2341.79L784.063 2352.15L778.119 2376.31H852.423L864.312 2393.56H897.006L905.922 2376.31V2210.65L986.171 2224.45L1119.92 2255.51L1238.8 2283.12L1322.03 2300.38V2352.15H1313.11L1322.03 2379.46H1354.72L1357.69 2368.89L1432 2365.95L1420.11 2334.89L1387.41 2321.09L1354.72 2319.53V2300.38H1366.61L1387.41 2293.48L1372.55 2283.12L1301.22 2255.51L1188.28 2224.45L1078.31 2200.3L914.839 2162.33V1900.04Z" fill="#3E3D3D"/>
<path d="M1432 2368.88L1473.61 2372.41L1464.69 2354.78L1443.88 2337.16L1423.08 2323.06L1387.41 2319.53H1360.66L1432 2368.88Z" fill="#C4C4C4"/>
<g filter="url(#filter4_i_802:724)">
<path d="M873.228 2170.32V1900.04H831.618V2127.65L784.063 2138.32L674.093 2170.32L552.234 2209.44L454.153 2241.45L400.654 2269.9L367.96 2301.91L400.654 2291.24L442.264 2269.9L558.179 2241.45L656.26 2216.56L745.425 2198.77L810.813 2188.11H840.534V2216.56L858.367 2230.78V2188.11L873.228 2170.32Z" fill="#C4C4C4"/>
</g>
<path d="M784.063 2375.93L754.342 2379.46L766.23 2354.78L787.036 2337.16L807.841 2323.06H837.562L849.451 2326.58L784.063 2375.93Z" fill="#C4C4C4"/>
<rect x="421.459" y="1801.34" width="142.664" height="28.2014" rx="5" fill="#413E3E"/>
<path d="M549.263 1811.91C559.17 1815.44 591.467 1815.44 641.4 1787.24C691.332 1759.04 713.723 1774.31 730.565 1762.56L784.064 1720.26" stroke="#413E3E" stroke-width="1.6"/>
<path d="M1250.14 1054.01H1170.44L1215.03 1064.59L1257.7 1077.24C1260.88 1078.19 1263.72 1080.04 1265.86 1082.58L1292.9 1114.65C1294.47 1116.51 1295.62 1118.67 1296.27 1121.01L1301.22 1138.62L1310.14 1198.54V1156.24V1122.58C1310.14 1119.22 1309.36 1115.89 1307.88 1112.87L1292.02 1080.62C1290.26 1077.05 1287.57 1074.02 1284.22 1071.86L1262.09 1057.54C1258.53 1055.24 1254.38 1054.01 1250.14 1054.01Z" fill="#C9C9C9" fill-opacity="0.14"/>
<defs>
<filter id="filter0_i_802:724" x="547.879" y="799.155" width="3098.35" height="272.526" filterUnits="userSpaceOnUse" color-interpolation-filters="sRGB">
<feFlood flood-opacity="0" result="BackgroundImageFix"/>
<feBlend mode="normal" in="SourceGraphic" in2="BackgroundImageFix" result="shape"/>
<feColorMatrix in="SourceAlpha" type="matrix" values="0 0 0 0 0 0 0 0 0 0 0 0 0 0 0 0 0 0 127 0" result="hardAlpha"/>
<feOffset dy="4"/>
<feGaussianBlur stdDeviation="2"/>
<feComposite in2="hardAlpha" operator="arithmetic" k2="-1" k3="1"/>
<feColorMatrix type="matrix" values="0 0 0 0 0 0 0 0 0 0 0 0 0 0 0 0 0 0 0.03 0"/>
<feBlend mode="normal" in2="shape" result="effect1_innerShadow_802:724"/>
</filter>
<filter id="filter1_ii_802:724" x="297.545" y="-6" width="391.409" height="232.083" filterUnits="userSpaceOnUse" color-interpolation-filters="sRGB">
<feFlood flood-opacity="0" result="BackgroundImageFix"/>
<feBlend mode="normal" in="SourceGraphic" in2="BackgroundImageFix" result="shape"/>
<feColorMatrix in="SourceAlpha" type="matrix" values="0 0 0 0 0 0 0 0 0 0 0 0 0 0 0 0 0 0 127 0" result="hardAlpha"/>
<feOffset dx="-8" dy="-6"/>
<feGaussianBlur stdDeviation="4"/>
<feComposite in2="hardAlpha" operator="arithmetic" k2="-1" k3="1"/>
<feColorMatrix type="matrix" values="0 0 0 0 0 0 0 0 0 0 0 0 0 0 0 0 0 0 0.13 0"/>
<feBlend mode="normal" in2="shape" result="effect1_innerShadow_802:724"/>
<feColorMatrix in="SourceAlpha" type="matrix" values="0 0 0 0 0 0 0 0 0 0 0 0 0 0 0 0 0 0 127 0" result="hardAlpha"/>
<feOffset dx="-1" dy="4"/>
<feGaussianBlur stdDeviation="14.5"/>
<feComposite in2="hardAlpha" operator="arithmetic" k2="-1" k3="1"/>
<feColorMatrix type="matrix" values="0 0 0 0 0 0 0 0 0 0 0 0 0 0 0 0 0 0 0.12 0"/>
<feBlend mode="normal" in2="effect1_innerShadow_802:724" result="effect2_innerShadow_802:724"/>
</filter>
<filter id="filter2_i_802:724" x="201.49" y="211.508" width="1251.31" height="1407.53" filterUnits="userSpaceOnUse" color-interpolation-filters="sRGB">
<feFlood flood-opacity="0" result="BackgroundImageFix"/>
<feBlend mode="normal" in="SourceGraphic" in2="BackgroundImageFix" result="shape"/>
<feColorMatrix in="SourceAlpha" type="matrix" values="0 0 0 0 0 0 0 0 0 0 0 0 0 0 0 0 0 0 127 0" result="hardAlpha"/>
<feOffset dx="-3" dy="1"/>
<feGaussianBlur stdDeviation="2"/>
<feComposite in2="hardAlpha" operator="arithmetic" k2="-1" k3="1"/>
<feColorMatrix type="matrix" values="0 0 0 0 0.404167 0 0 0 0 0.399115 0 0 0 0 0.399115 0 0 0 0.25 0"/>
<feBlend mode="normal" in2="shape" result="effect1_innerShadow_802:724"/>
</filter>
<filter id="filter3_i_802:724" x="201.519" y="260.859" width="668.737" height="1163.77" filterUnits="userSpaceOnUse" color-interpolation-filters="sRGB">
<feFlood flood-opacity="0" result="BackgroundImageFix"/>
<feBlend mode="normal" in="SourceGraphic" in2="BackgroundImageFix" result="shape"/>
<feColorMatrix in="SourceAlpha" type="matrix" values="0 0 0 0 0 0 0 0 0 0 0 0 0 0 0 0 0 0 127 0" result="hardAlpha"/>
<feOffset dy="4"/>
<feGaussianBlur stdDeviation="10.5"/>
<feComposite in2="hardAlpha" operator="arithmetic" k2="-1" k3="1"/>
<feColorMatrix type="matrix" values="0 0 0 0 0 0 0 0 0 0 0 0 0 0 0 0 0 0 0.17 0"/>
<feBlend mode="normal" in2="shape" result="effect1_innerShadow_802:724"/>
</filter>
<filter id="filter4_i_802:724" x="367.96" y="1900.04" width="505.268" height="405.865" filterUnits="userSpaceOnUse" color-interpolation-filters="sRGB">
<feFlood flood-opacity="0" result="BackgroundImageFix"/>
<feBlend mode="normal" in="SourceGraphic" in2="BackgroundImageFix" result="shape"/>
<feColorMatrix in="SourceAlpha" type="matrix" values="0 0 0 0 0 0 0 0 0 0 0 0 0 0 0 0 0 0 127 0" result="hardAlpha"/>
<feOffset dy="4"/>
<feGaussianBlur stdDeviation="2"/>
<feComposite in2="hardAlpha" operator="arithmetic" k2="-1" k3="1"/>
<feColorMatrix type="matrix" values="0 0 0 0 0 0 0 0 0 0 0 0 0 0 0 0 0 0 0.25 0"/>
<feBlend mode="normal" in2="shape" result="effect1_innerShadow_802:724"/>
</filter>
<linearGradient id="paint0_linear_802:724" x1="890.484" y1="965.153" x2="890.484" y2="2029.49" gradientUnits="userSpaceOnUse">
<stop stop-color="#9E9E9E"/>
<stop offset="0.572917" stop-color="white"/>
</linearGradient>
<linearGradient id="paint1_linear_802:724" x1="3321.5" y1="965.153" x2="3321.5" y2="2029.49" gradientUnits="userSpaceOnUse">
<stop stop-color="#9E9E9E"/>
<stop offset="0.572917" stop-color="white"/>
</linearGradient>
<linearGradient id="paint2_linear_802:724" x1="875.347" y1="932.347" x2="3299.87" y2="932.347" gradientUnits="userSpaceOnUse">
<stop stop-color="white"/>
<stop offset="0.494792" stop-color="#E1DEDE"/>
<stop offset="1" stop-color="white"/>
</linearGradient>
</defs>
</svg>
